%TF.GenerationSoftware,KiCad,Pcbnew,8.0.4-8.0.4-0~ubuntu22.04.1*%
%TF.CreationDate,2024-08-24T15:00:40-03:00*%
%TF.ProjectId,Antares-Transmitter,416e7461-7265-4732-9d54-72616e736d69,1.0.1*%
%TF.SameCoordinates,Original*%
%TF.FileFunction,Legend,Bot*%
%TF.FilePolarity,Positive*%
%FSLAX46Y46*%
G04 Gerber Fmt 4.6, Leading zero omitted, Abs format (unit mm)*
G04 Created by KiCad (PCBNEW 8.0.4-8.0.4-0~ubuntu22.04.1) date 2024-08-24 15:00:40*
%MOMM*%
%LPD*%
G01*
G04 APERTURE LIST*
%ADD10C,0.100000*%
%ADD11C,0.150000*%
%ADD12C,0.120000*%
%ADD13C,0.000000*%
G04 APERTURE END LIST*
D10*
X164400000Y-107600000D02*
X164400000Y-99600000D01*
X101600000Y-136000000D02*
X101600000Y-99000000D01*
X101600000Y-99000000D02*
X91000000Y-99000000D01*
X164400000Y-137200000D02*
X164400000Y-135000000D01*
X154000000Y-99000000D02*
X154000000Y-139000000D01*
X91000000Y-99000000D02*
X91000000Y-124600000D01*
X154000000Y-139000000D02*
X155800000Y-139000000D01*
X93600000Y-139000000D02*
X100200000Y-139000000D01*
X160600000Y-99000000D02*
X154000000Y-99000000D01*
D11*
X111577800Y-137510839D02*
X111530180Y-137367982D01*
X111530180Y-137367982D02*
X111530180Y-137129887D01*
X111530180Y-137129887D02*
X111577800Y-137034649D01*
X111577800Y-137034649D02*
X111625419Y-136987030D01*
X111625419Y-136987030D02*
X111720657Y-136939411D01*
X111720657Y-136939411D02*
X111815895Y-136939411D01*
X111815895Y-136939411D02*
X111911133Y-136987030D01*
X111911133Y-136987030D02*
X111958752Y-137034649D01*
X111958752Y-137034649D02*
X112006371Y-137129887D01*
X112006371Y-137129887D02*
X112053990Y-137320363D01*
X112053990Y-137320363D02*
X112101609Y-137415601D01*
X112101609Y-137415601D02*
X112149228Y-137463220D01*
X112149228Y-137463220D02*
X112244466Y-137510839D01*
X112244466Y-137510839D02*
X112339704Y-137510839D01*
X112339704Y-137510839D02*
X112434942Y-137463220D01*
X112434942Y-137463220D02*
X112482561Y-137415601D01*
X112482561Y-137415601D02*
X112530180Y-137320363D01*
X112530180Y-137320363D02*
X112530180Y-137082268D01*
X112530180Y-137082268D02*
X112482561Y-136939411D01*
X112053990Y-136510839D02*
X112053990Y-136177506D01*
X111530180Y-136034649D02*
X111530180Y-136510839D01*
X111530180Y-136510839D02*
X112530180Y-136510839D01*
X112530180Y-136510839D02*
X112530180Y-136034649D01*
X111530180Y-135129887D02*
X111530180Y-135606077D01*
X111530180Y-135606077D02*
X112530180Y-135606077D01*
X112053990Y-134796553D02*
X112053990Y-134463220D01*
X111530180Y-134320363D02*
X111530180Y-134796553D01*
X111530180Y-134796553D02*
X112530180Y-134796553D01*
X112530180Y-134796553D02*
X112530180Y-134320363D01*
X111625419Y-133320363D02*
X111577800Y-133367982D01*
X111577800Y-133367982D02*
X111530180Y-133510839D01*
X111530180Y-133510839D02*
X111530180Y-133606077D01*
X111530180Y-133606077D02*
X111577800Y-133748934D01*
X111577800Y-133748934D02*
X111673038Y-133844172D01*
X111673038Y-133844172D02*
X111768276Y-133891791D01*
X111768276Y-133891791D02*
X111958752Y-133939410D01*
X111958752Y-133939410D02*
X112101609Y-133939410D01*
X112101609Y-133939410D02*
X112292085Y-133891791D01*
X112292085Y-133891791D02*
X112387323Y-133844172D01*
X112387323Y-133844172D02*
X112482561Y-133748934D01*
X112482561Y-133748934D02*
X112530180Y-133606077D01*
X112530180Y-133606077D02*
X112530180Y-133510839D01*
X112530180Y-133510839D02*
X112482561Y-133367982D01*
X112482561Y-133367982D02*
X112434942Y-133320363D01*
X112530180Y-133034648D02*
X112530180Y-132463220D01*
X111530180Y-132748934D02*
X112530180Y-132748934D01*
X146330180Y-142291792D02*
X146806371Y-142625125D01*
X146330180Y-142863220D02*
X147330180Y-142863220D01*
X147330180Y-142863220D02*
X147330180Y-142482268D01*
X147330180Y-142482268D02*
X147282561Y-142387030D01*
X147282561Y-142387030D02*
X147234942Y-142339411D01*
X147234942Y-142339411D02*
X147139704Y-142291792D01*
X147139704Y-142291792D02*
X146996847Y-142291792D01*
X146996847Y-142291792D02*
X146901609Y-142339411D01*
X146901609Y-142339411D02*
X146853990Y-142387030D01*
X146853990Y-142387030D02*
X146806371Y-142482268D01*
X146806371Y-142482268D02*
X146806371Y-142863220D01*
X146330180Y-141863220D02*
X147330180Y-141863220D01*
X147282561Y-140863221D02*
X147330180Y-140958459D01*
X147330180Y-140958459D02*
X147330180Y-141101316D01*
X147330180Y-141101316D02*
X147282561Y-141244173D01*
X147282561Y-141244173D02*
X147187323Y-141339411D01*
X147187323Y-141339411D02*
X147092085Y-141387030D01*
X147092085Y-141387030D02*
X146901609Y-141434649D01*
X146901609Y-141434649D02*
X146758752Y-141434649D01*
X146758752Y-141434649D02*
X146568276Y-141387030D01*
X146568276Y-141387030D02*
X146473038Y-141339411D01*
X146473038Y-141339411D02*
X146377800Y-141244173D01*
X146377800Y-141244173D02*
X146330180Y-141101316D01*
X146330180Y-141101316D02*
X146330180Y-141006078D01*
X146330180Y-141006078D02*
X146377800Y-140863221D01*
X146377800Y-140863221D02*
X146425419Y-140815602D01*
X146425419Y-140815602D02*
X146758752Y-140815602D01*
X146758752Y-140815602D02*
X146758752Y-141006078D01*
X146330180Y-140387030D02*
X147330180Y-140387030D01*
X146853990Y-140387030D02*
X146853990Y-139815602D01*
X146330180Y-139815602D02*
X147330180Y-139815602D01*
X147330180Y-139482268D02*
X147330180Y-138910840D01*
X146330180Y-139196554D02*
X147330180Y-139196554D01*
X144330180Y-142863220D02*
X145330180Y-142863220D01*
X145330180Y-142863220D02*
X145330180Y-142625125D01*
X145330180Y-142625125D02*
X145282561Y-142482268D01*
X145282561Y-142482268D02*
X145187323Y-142387030D01*
X145187323Y-142387030D02*
X145092085Y-142339411D01*
X145092085Y-142339411D02*
X144901609Y-142291792D01*
X144901609Y-142291792D02*
X144758752Y-142291792D01*
X144758752Y-142291792D02*
X144568276Y-142339411D01*
X144568276Y-142339411D02*
X144473038Y-142387030D01*
X144473038Y-142387030D02*
X144377800Y-142482268D01*
X144377800Y-142482268D02*
X144330180Y-142625125D01*
X144330180Y-142625125D02*
X144330180Y-142863220D01*
X145330180Y-141672744D02*
X145330180Y-141482268D01*
X145330180Y-141482268D02*
X145282561Y-141387030D01*
X145282561Y-141387030D02*
X145187323Y-141291792D01*
X145187323Y-141291792D02*
X144996847Y-141244173D01*
X144996847Y-141244173D02*
X144663514Y-141244173D01*
X144663514Y-141244173D02*
X144473038Y-141291792D01*
X144473038Y-141291792D02*
X144377800Y-141387030D01*
X144377800Y-141387030D02*
X144330180Y-141482268D01*
X144330180Y-141482268D02*
X144330180Y-141672744D01*
X144330180Y-141672744D02*
X144377800Y-141767982D01*
X144377800Y-141767982D02*
X144473038Y-141863220D01*
X144473038Y-141863220D02*
X144663514Y-141910839D01*
X144663514Y-141910839D02*
X144996847Y-141910839D01*
X144996847Y-141910839D02*
X145187323Y-141863220D01*
X145187323Y-141863220D02*
X145282561Y-141767982D01*
X145282561Y-141767982D02*
X145330180Y-141672744D01*
X145330180Y-140910839D02*
X144330180Y-140672744D01*
X144330180Y-140672744D02*
X145044466Y-140482268D01*
X145044466Y-140482268D02*
X144330180Y-140291792D01*
X144330180Y-140291792D02*
X145330180Y-140053697D01*
X144330180Y-139672744D02*
X145330180Y-139672744D01*
X145330180Y-139672744D02*
X144330180Y-139101316D01*
X144330180Y-139101316D02*
X145330180Y-139101316D01*
X165729887Y-113946009D02*
X165587030Y-113993628D01*
X165587030Y-113993628D02*
X165539411Y-114041247D01*
X165539411Y-114041247D02*
X165491792Y-114136485D01*
X165491792Y-114136485D02*
X165491792Y-114279342D01*
X165491792Y-114279342D02*
X165539411Y-114374580D01*
X165539411Y-114374580D02*
X165587030Y-114422200D01*
X165587030Y-114422200D02*
X165682268Y-114469819D01*
X165682268Y-114469819D02*
X166063220Y-114469819D01*
X166063220Y-114469819D02*
X166063220Y-113469819D01*
X166063220Y-113469819D02*
X165729887Y-113469819D01*
X165729887Y-113469819D02*
X165634649Y-113517438D01*
X165634649Y-113517438D02*
X165587030Y-113565057D01*
X165587030Y-113565057D02*
X165539411Y-113660295D01*
X165539411Y-113660295D02*
X165539411Y-113755533D01*
X165539411Y-113755533D02*
X165587030Y-113850771D01*
X165587030Y-113850771D02*
X165634649Y-113898390D01*
X165634649Y-113898390D02*
X165729887Y-113946009D01*
X165729887Y-113946009D02*
X166063220Y-113946009D01*
X164587030Y-114469819D02*
X165063220Y-114469819D01*
X165063220Y-114469819D02*
X165063220Y-113469819D01*
X164253696Y-113469819D02*
X164253696Y-114279342D01*
X164253696Y-114279342D02*
X164206077Y-114374580D01*
X164206077Y-114374580D02*
X164158458Y-114422200D01*
X164158458Y-114422200D02*
X164063220Y-114469819D01*
X164063220Y-114469819D02*
X163872744Y-114469819D01*
X163872744Y-114469819D02*
X163777506Y-114422200D01*
X163777506Y-114422200D02*
X163729887Y-114374580D01*
X163729887Y-114374580D02*
X163682268Y-114279342D01*
X163682268Y-114279342D02*
X163682268Y-113469819D01*
X163206077Y-113946009D02*
X162872744Y-113946009D01*
X162729887Y-114469819D02*
X163206077Y-114469819D01*
X163206077Y-114469819D02*
X163206077Y-113469819D01*
X163206077Y-113469819D02*
X162729887Y-113469819D01*
X162158458Y-113469819D02*
X162158458Y-113707914D01*
X162396553Y-113612676D02*
X162158458Y-113707914D01*
X162158458Y-113707914D02*
X161920363Y-113612676D01*
X162301315Y-113898390D02*
X162158458Y-113707914D01*
X162158458Y-113707914D02*
X162015601Y-113898390D01*
X107530180Y-137558458D02*
X107530180Y-136939411D01*
X107530180Y-136939411D02*
X107149228Y-137272744D01*
X107149228Y-137272744D02*
X107149228Y-137129887D01*
X107149228Y-137129887D02*
X107101609Y-137034649D01*
X107101609Y-137034649D02*
X107053990Y-136987030D01*
X107053990Y-136987030D02*
X106958752Y-136939411D01*
X106958752Y-136939411D02*
X106720657Y-136939411D01*
X106720657Y-136939411D02*
X106625419Y-136987030D01*
X106625419Y-136987030D02*
X106577800Y-137034649D01*
X106577800Y-137034649D02*
X106530180Y-137129887D01*
X106530180Y-137129887D02*
X106530180Y-137415601D01*
X106530180Y-137415601D02*
X106577800Y-137510839D01*
X106577800Y-137510839D02*
X106625419Y-137558458D01*
X107530180Y-136653696D02*
X106530180Y-136320363D01*
X106530180Y-136320363D02*
X107530180Y-135987030D01*
X107530180Y-135748934D02*
X107530180Y-135129887D01*
X107530180Y-135129887D02*
X107149228Y-135463220D01*
X107149228Y-135463220D02*
X107149228Y-135320363D01*
X107149228Y-135320363D02*
X107101609Y-135225125D01*
X107101609Y-135225125D02*
X107053990Y-135177506D01*
X107053990Y-135177506D02*
X106958752Y-135129887D01*
X106958752Y-135129887D02*
X106720657Y-135129887D01*
X106720657Y-135129887D02*
X106625419Y-135177506D01*
X106625419Y-135177506D02*
X106577800Y-135225125D01*
X106577800Y-135225125D02*
X106530180Y-135320363D01*
X106530180Y-135320363D02*
X106530180Y-135606077D01*
X106530180Y-135606077D02*
X106577800Y-135701315D01*
X106577800Y-135701315D02*
X106625419Y-135748934D01*
X105130180Y-137558458D02*
X104130180Y-137320363D01*
X104130180Y-137320363D02*
X104844466Y-137129887D01*
X104844466Y-137129887D02*
X104130180Y-136939411D01*
X104130180Y-136939411D02*
X105130180Y-136701316D01*
X105130180Y-136129887D02*
X105130180Y-135939411D01*
X105130180Y-135939411D02*
X105082561Y-135844173D01*
X105082561Y-135844173D02*
X104987323Y-135748935D01*
X104987323Y-135748935D02*
X104796847Y-135701316D01*
X104796847Y-135701316D02*
X104463514Y-135701316D01*
X104463514Y-135701316D02*
X104273038Y-135748935D01*
X104273038Y-135748935D02*
X104177800Y-135844173D01*
X104177800Y-135844173D02*
X104130180Y-135939411D01*
X104130180Y-135939411D02*
X104130180Y-136129887D01*
X104130180Y-136129887D02*
X104177800Y-136225125D01*
X104177800Y-136225125D02*
X104273038Y-136320363D01*
X104273038Y-136320363D02*
X104463514Y-136367982D01*
X104463514Y-136367982D02*
X104796847Y-136367982D01*
X104796847Y-136367982D02*
X104987323Y-136320363D01*
X104987323Y-136320363D02*
X105082561Y-136225125D01*
X105082561Y-136225125D02*
X105130180Y-136129887D01*
X104130180Y-134701316D02*
X104606371Y-135034649D01*
X104130180Y-135272744D02*
X105130180Y-135272744D01*
X105130180Y-135272744D02*
X105130180Y-134891792D01*
X105130180Y-134891792D02*
X105082561Y-134796554D01*
X105082561Y-134796554D02*
X105034942Y-134748935D01*
X105034942Y-134748935D02*
X104939704Y-134701316D01*
X104939704Y-134701316D02*
X104796847Y-134701316D01*
X104796847Y-134701316D02*
X104701609Y-134748935D01*
X104701609Y-134748935D02*
X104653990Y-134796554D01*
X104653990Y-134796554D02*
X104606371Y-134891792D01*
X104606371Y-134891792D02*
X104606371Y-135272744D01*
X104130180Y-134272744D02*
X105130180Y-134272744D01*
X104130180Y-133701316D02*
X104701609Y-134129887D01*
X105130180Y-133701316D02*
X104558752Y-134272744D01*
X165539411Y-121117438D02*
X165634649Y-121069819D01*
X165634649Y-121069819D02*
X165777506Y-121069819D01*
X165777506Y-121069819D02*
X165920363Y-121117438D01*
X165920363Y-121117438D02*
X166015601Y-121212676D01*
X166015601Y-121212676D02*
X166063220Y-121307914D01*
X166063220Y-121307914D02*
X166110839Y-121498390D01*
X166110839Y-121498390D02*
X166110839Y-121641247D01*
X166110839Y-121641247D02*
X166063220Y-121831723D01*
X166063220Y-121831723D02*
X166015601Y-121926961D01*
X166015601Y-121926961D02*
X165920363Y-122022200D01*
X165920363Y-122022200D02*
X165777506Y-122069819D01*
X165777506Y-122069819D02*
X165682268Y-122069819D01*
X165682268Y-122069819D02*
X165539411Y-122022200D01*
X165539411Y-122022200D02*
X165491792Y-121974580D01*
X165491792Y-121974580D02*
X165491792Y-121641247D01*
X165491792Y-121641247D02*
X165682268Y-121641247D01*
X164491792Y-122069819D02*
X164825125Y-121593628D01*
X165063220Y-122069819D02*
X165063220Y-121069819D01*
X165063220Y-121069819D02*
X164682268Y-121069819D01*
X164682268Y-121069819D02*
X164587030Y-121117438D01*
X164587030Y-121117438D02*
X164539411Y-121165057D01*
X164539411Y-121165057D02*
X164491792Y-121260295D01*
X164491792Y-121260295D02*
X164491792Y-121403152D01*
X164491792Y-121403152D02*
X164539411Y-121498390D01*
X164539411Y-121498390D02*
X164587030Y-121546009D01*
X164587030Y-121546009D02*
X164682268Y-121593628D01*
X164682268Y-121593628D02*
X165063220Y-121593628D01*
X164063220Y-121546009D02*
X163729887Y-121546009D01*
X163587030Y-122069819D02*
X164063220Y-122069819D01*
X164063220Y-122069819D02*
X164063220Y-121069819D01*
X164063220Y-121069819D02*
X163587030Y-121069819D01*
X163158458Y-121546009D02*
X162825125Y-121546009D01*
X162682268Y-122069819D02*
X163158458Y-122069819D01*
X163158458Y-122069819D02*
X163158458Y-121069819D01*
X163158458Y-121069819D02*
X162682268Y-121069819D01*
X162253696Y-122069819D02*
X162253696Y-121069819D01*
X162253696Y-121069819D02*
X161682268Y-122069819D01*
X161682268Y-122069819D02*
X161682268Y-121069819D01*
X161063220Y-121069819D02*
X161063220Y-121307914D01*
X161301315Y-121212676D02*
X161063220Y-121307914D01*
X161063220Y-121307914D02*
X160825125Y-121212676D01*
X161206077Y-121498390D02*
X161063220Y-121307914D01*
X161063220Y-121307914D02*
X160920363Y-121498390D01*
X165539411Y-108517438D02*
X165634649Y-108469819D01*
X165634649Y-108469819D02*
X165777506Y-108469819D01*
X165777506Y-108469819D02*
X165920363Y-108517438D01*
X165920363Y-108517438D02*
X166015601Y-108612676D01*
X166015601Y-108612676D02*
X166063220Y-108707914D01*
X166063220Y-108707914D02*
X166110839Y-108898390D01*
X166110839Y-108898390D02*
X166110839Y-109041247D01*
X166110839Y-109041247D02*
X166063220Y-109231723D01*
X166063220Y-109231723D02*
X166015601Y-109326961D01*
X166015601Y-109326961D02*
X165920363Y-109422200D01*
X165920363Y-109422200D02*
X165777506Y-109469819D01*
X165777506Y-109469819D02*
X165682268Y-109469819D01*
X165682268Y-109469819D02*
X165539411Y-109422200D01*
X165539411Y-109422200D02*
X165491792Y-109374580D01*
X165491792Y-109374580D02*
X165491792Y-109041247D01*
X165491792Y-109041247D02*
X165682268Y-109041247D01*
X165063220Y-109469819D02*
X165063220Y-108469819D01*
X165063220Y-108469819D02*
X164491792Y-109469819D01*
X164491792Y-109469819D02*
X164491792Y-108469819D01*
X164015601Y-109469819D02*
X164015601Y-108469819D01*
X164015601Y-108469819D02*
X163777506Y-108469819D01*
X163777506Y-108469819D02*
X163634649Y-108517438D01*
X163634649Y-108517438D02*
X163539411Y-108612676D01*
X163539411Y-108612676D02*
X163491792Y-108707914D01*
X163491792Y-108707914D02*
X163444173Y-108898390D01*
X163444173Y-108898390D02*
X163444173Y-109041247D01*
X163444173Y-109041247D02*
X163491792Y-109231723D01*
X163491792Y-109231723D02*
X163539411Y-109326961D01*
X163539411Y-109326961D02*
X163634649Y-109422200D01*
X163634649Y-109422200D02*
X163777506Y-109469819D01*
X163777506Y-109469819D02*
X164015601Y-109469819D01*
X148330180Y-142387030D02*
X148330180Y-142863220D01*
X148330180Y-142863220D02*
X149330180Y-142863220D01*
X148853990Y-142053696D02*
X148853990Y-141720363D01*
X148330180Y-141577506D02*
X148330180Y-142053696D01*
X148330180Y-142053696D02*
X149330180Y-142053696D01*
X149330180Y-142053696D02*
X149330180Y-141577506D01*
X148853990Y-140815601D02*
X148853990Y-141148934D01*
X148330180Y-141148934D02*
X149330180Y-141148934D01*
X149330180Y-141148934D02*
X149330180Y-140672744D01*
X149330180Y-140434648D02*
X149330180Y-139863220D01*
X148330180Y-140148934D02*
X149330180Y-140148934D01*
X113977800Y-137510839D02*
X113930180Y-137367982D01*
X113930180Y-137367982D02*
X113930180Y-137129887D01*
X113930180Y-137129887D02*
X113977800Y-137034649D01*
X113977800Y-137034649D02*
X114025419Y-136987030D01*
X114025419Y-136987030D02*
X114120657Y-136939411D01*
X114120657Y-136939411D02*
X114215895Y-136939411D01*
X114215895Y-136939411D02*
X114311133Y-136987030D01*
X114311133Y-136987030D02*
X114358752Y-137034649D01*
X114358752Y-137034649D02*
X114406371Y-137129887D01*
X114406371Y-137129887D02*
X114453990Y-137320363D01*
X114453990Y-137320363D02*
X114501609Y-137415601D01*
X114501609Y-137415601D02*
X114549228Y-137463220D01*
X114549228Y-137463220D02*
X114644466Y-137510839D01*
X114644466Y-137510839D02*
X114739704Y-137510839D01*
X114739704Y-137510839D02*
X114834942Y-137463220D01*
X114834942Y-137463220D02*
X114882561Y-137415601D01*
X114882561Y-137415601D02*
X114930180Y-137320363D01*
X114930180Y-137320363D02*
X114930180Y-137082268D01*
X114930180Y-137082268D02*
X114882561Y-136939411D01*
X114930180Y-136653696D02*
X114930180Y-136082268D01*
X113930180Y-136367982D02*
X114930180Y-136367982D01*
X114215895Y-135796553D02*
X114215895Y-135320363D01*
X113930180Y-135891791D02*
X114930180Y-135558458D01*
X114930180Y-135558458D02*
X113930180Y-135225125D01*
X113930180Y-134320363D02*
X114406371Y-134653696D01*
X113930180Y-134891791D02*
X114930180Y-134891791D01*
X114930180Y-134891791D02*
X114930180Y-134510839D01*
X114930180Y-134510839D02*
X114882561Y-134415601D01*
X114882561Y-134415601D02*
X114834942Y-134367982D01*
X114834942Y-134367982D02*
X114739704Y-134320363D01*
X114739704Y-134320363D02*
X114596847Y-134320363D01*
X114596847Y-134320363D02*
X114501609Y-134367982D01*
X114501609Y-134367982D02*
X114453990Y-134415601D01*
X114453990Y-134415601D02*
X114406371Y-134510839D01*
X114406371Y-134510839D02*
X114406371Y-134891791D01*
X114930180Y-134034648D02*
X114930180Y-133463220D01*
X113930180Y-133748934D02*
X114930180Y-133748934D01*
X164530180Y-141263220D02*
X165530180Y-141263220D01*
X165530180Y-141263220D02*
X165530180Y-140882268D01*
X165530180Y-140882268D02*
X165482561Y-140787030D01*
X165482561Y-140787030D02*
X165434942Y-140739411D01*
X165434942Y-140739411D02*
X165339704Y-140691792D01*
X165339704Y-140691792D02*
X165196847Y-140691792D01*
X165196847Y-140691792D02*
X165101609Y-140739411D01*
X165101609Y-140739411D02*
X165053990Y-140787030D01*
X165053990Y-140787030D02*
X165006371Y-140882268D01*
X165006371Y-140882268D02*
X165006371Y-141263220D01*
X165434942Y-140310839D02*
X165482561Y-140263220D01*
X165482561Y-140263220D02*
X165530180Y-140167982D01*
X165530180Y-140167982D02*
X165530180Y-139929887D01*
X165530180Y-139929887D02*
X165482561Y-139834649D01*
X165482561Y-139834649D02*
X165434942Y-139787030D01*
X165434942Y-139787030D02*
X165339704Y-139739411D01*
X165339704Y-139739411D02*
X165244466Y-139739411D01*
X165244466Y-139739411D02*
X165101609Y-139787030D01*
X165101609Y-139787030D02*
X164530180Y-140358458D01*
X164530180Y-140358458D02*
X164530180Y-139739411D01*
X143330180Y-142863220D02*
X142520657Y-142863220D01*
X142520657Y-142863220D02*
X142425419Y-142815601D01*
X142425419Y-142815601D02*
X142377800Y-142767982D01*
X142377800Y-142767982D02*
X142330180Y-142672744D01*
X142330180Y-142672744D02*
X142330180Y-142482268D01*
X142330180Y-142482268D02*
X142377800Y-142387030D01*
X142377800Y-142387030D02*
X142425419Y-142339411D01*
X142425419Y-142339411D02*
X142520657Y-142291792D01*
X142520657Y-142291792D02*
X143330180Y-142291792D01*
X142330180Y-141815601D02*
X143330180Y-141815601D01*
X143330180Y-141815601D02*
X143330180Y-141434649D01*
X143330180Y-141434649D02*
X143282561Y-141339411D01*
X143282561Y-141339411D02*
X143234942Y-141291792D01*
X143234942Y-141291792D02*
X143139704Y-141244173D01*
X143139704Y-141244173D02*
X142996847Y-141244173D01*
X142996847Y-141244173D02*
X142901609Y-141291792D01*
X142901609Y-141291792D02*
X142853990Y-141339411D01*
X142853990Y-141339411D02*
X142806371Y-141434649D01*
X142806371Y-141434649D02*
X142806371Y-141815601D01*
X143869819Y-99041541D02*
X143869819Y-99660588D01*
X143869819Y-99660588D02*
X144250771Y-99327255D01*
X144250771Y-99327255D02*
X144250771Y-99470112D01*
X144250771Y-99470112D02*
X144298390Y-99565350D01*
X144298390Y-99565350D02*
X144346009Y-99612969D01*
X144346009Y-99612969D02*
X144441247Y-99660588D01*
X144441247Y-99660588D02*
X144679342Y-99660588D01*
X144679342Y-99660588D02*
X144774580Y-99612969D01*
X144774580Y-99612969D02*
X144822200Y-99565350D01*
X144822200Y-99565350D02*
X144869819Y-99470112D01*
X144869819Y-99470112D02*
X144869819Y-99184398D01*
X144869819Y-99184398D02*
X144822200Y-99089160D01*
X144822200Y-99089160D02*
X144774580Y-99041541D01*
X143869819Y-99946303D02*
X144869819Y-100279636D01*
X144869819Y-100279636D02*
X143869819Y-100612969D01*
X143869819Y-100851065D02*
X143869819Y-101470112D01*
X143869819Y-101470112D02*
X144250771Y-101136779D01*
X144250771Y-101136779D02*
X144250771Y-101279636D01*
X144250771Y-101279636D02*
X144298390Y-101374874D01*
X144298390Y-101374874D02*
X144346009Y-101422493D01*
X144346009Y-101422493D02*
X144441247Y-101470112D01*
X144441247Y-101470112D02*
X144679342Y-101470112D01*
X144679342Y-101470112D02*
X144774580Y-101422493D01*
X144774580Y-101422493D02*
X144822200Y-101374874D01*
X144822200Y-101374874D02*
X144869819Y-101279636D01*
X144869819Y-101279636D02*
X144869819Y-100993922D01*
X144869819Y-100993922D02*
X144822200Y-100898684D01*
X144822200Y-100898684D02*
X144774580Y-100851065D01*
X104717438Y-99660588D02*
X104669819Y-99565350D01*
X104669819Y-99565350D02*
X104669819Y-99422493D01*
X104669819Y-99422493D02*
X104717438Y-99279636D01*
X104717438Y-99279636D02*
X104812676Y-99184398D01*
X104812676Y-99184398D02*
X104907914Y-99136779D01*
X104907914Y-99136779D02*
X105098390Y-99089160D01*
X105098390Y-99089160D02*
X105241247Y-99089160D01*
X105241247Y-99089160D02*
X105431723Y-99136779D01*
X105431723Y-99136779D02*
X105526961Y-99184398D01*
X105526961Y-99184398D02*
X105622200Y-99279636D01*
X105622200Y-99279636D02*
X105669819Y-99422493D01*
X105669819Y-99422493D02*
X105669819Y-99517731D01*
X105669819Y-99517731D02*
X105622200Y-99660588D01*
X105622200Y-99660588D02*
X105574580Y-99708207D01*
X105574580Y-99708207D02*
X105241247Y-99708207D01*
X105241247Y-99708207D02*
X105241247Y-99517731D01*
X105669819Y-100136779D02*
X104669819Y-100136779D01*
X104669819Y-100136779D02*
X105669819Y-100708207D01*
X105669819Y-100708207D02*
X104669819Y-100708207D01*
X105669819Y-101184398D02*
X104669819Y-101184398D01*
X104669819Y-101184398D02*
X104669819Y-101422493D01*
X104669819Y-101422493D02*
X104717438Y-101565350D01*
X104717438Y-101565350D02*
X104812676Y-101660588D01*
X104812676Y-101660588D02*
X104907914Y-101708207D01*
X104907914Y-101708207D02*
X105098390Y-101755826D01*
X105098390Y-101755826D02*
X105241247Y-101755826D01*
X105241247Y-101755826D02*
X105431723Y-101708207D01*
X105431723Y-101708207D02*
X105526961Y-101660588D01*
X105526961Y-101660588D02*
X105622200Y-101565350D01*
X105622200Y-101565350D02*
X105669819Y-101422493D01*
X105669819Y-101422493D02*
X105669819Y-101184398D01*
X165491792Y-119469819D02*
X165825125Y-118993628D01*
X166063220Y-119469819D02*
X166063220Y-118469819D01*
X166063220Y-118469819D02*
X165682268Y-118469819D01*
X165682268Y-118469819D02*
X165587030Y-118517438D01*
X165587030Y-118517438D02*
X165539411Y-118565057D01*
X165539411Y-118565057D02*
X165491792Y-118660295D01*
X165491792Y-118660295D02*
X165491792Y-118803152D01*
X165491792Y-118803152D02*
X165539411Y-118898390D01*
X165539411Y-118898390D02*
X165587030Y-118946009D01*
X165587030Y-118946009D02*
X165682268Y-118993628D01*
X165682268Y-118993628D02*
X166063220Y-118993628D01*
X165063220Y-118946009D02*
X164729887Y-118946009D01*
X164587030Y-119469819D02*
X165063220Y-119469819D01*
X165063220Y-119469819D02*
X165063220Y-118469819D01*
X165063220Y-118469819D02*
X164587030Y-118469819D01*
X164158458Y-119469819D02*
X164158458Y-118469819D01*
X164158458Y-118469819D02*
X163920363Y-118469819D01*
X163920363Y-118469819D02*
X163777506Y-118517438D01*
X163777506Y-118517438D02*
X163682268Y-118612676D01*
X163682268Y-118612676D02*
X163634649Y-118707914D01*
X163634649Y-118707914D02*
X163587030Y-118898390D01*
X163587030Y-118898390D02*
X163587030Y-119041247D01*
X163587030Y-119041247D02*
X163634649Y-119231723D01*
X163634649Y-119231723D02*
X163682268Y-119326961D01*
X163682268Y-119326961D02*
X163777506Y-119422200D01*
X163777506Y-119422200D02*
X163920363Y-119469819D01*
X163920363Y-119469819D02*
X164158458Y-119469819D01*
X163015601Y-118469819D02*
X163015601Y-118707914D01*
X163253696Y-118612676D02*
X163015601Y-118707914D01*
X163015601Y-118707914D02*
X162777506Y-118612676D01*
X163158458Y-118898390D02*
X163015601Y-118707914D01*
X163015601Y-118707914D02*
X162872744Y-118898390D01*
X165872744Y-111069819D02*
X165682268Y-111069819D01*
X165682268Y-111069819D02*
X165587030Y-111117438D01*
X165587030Y-111117438D02*
X165491792Y-111212676D01*
X165491792Y-111212676D02*
X165444173Y-111403152D01*
X165444173Y-111403152D02*
X165444173Y-111736485D01*
X165444173Y-111736485D02*
X165491792Y-111926961D01*
X165491792Y-111926961D02*
X165587030Y-112022200D01*
X165587030Y-112022200D02*
X165682268Y-112069819D01*
X165682268Y-112069819D02*
X165872744Y-112069819D01*
X165872744Y-112069819D02*
X165967982Y-112022200D01*
X165967982Y-112022200D02*
X166063220Y-111926961D01*
X166063220Y-111926961D02*
X166110839Y-111736485D01*
X166110839Y-111736485D02*
X166110839Y-111403152D01*
X166110839Y-111403152D02*
X166063220Y-111212676D01*
X166063220Y-111212676D02*
X165967982Y-111117438D01*
X165967982Y-111117438D02*
X165872744Y-111069819D01*
X164444173Y-112069819D02*
X164777506Y-111593628D01*
X165015601Y-112069819D02*
X165015601Y-111069819D01*
X165015601Y-111069819D02*
X164634649Y-111069819D01*
X164634649Y-111069819D02*
X164539411Y-111117438D01*
X164539411Y-111117438D02*
X164491792Y-111165057D01*
X164491792Y-111165057D02*
X164444173Y-111260295D01*
X164444173Y-111260295D02*
X164444173Y-111403152D01*
X164444173Y-111403152D02*
X164491792Y-111498390D01*
X164491792Y-111498390D02*
X164539411Y-111546009D01*
X164539411Y-111546009D02*
X164634649Y-111593628D01*
X164634649Y-111593628D02*
X165015601Y-111593628D01*
X164063220Y-111784104D02*
X163587030Y-111784104D01*
X164158458Y-112069819D02*
X163825125Y-111069819D01*
X163825125Y-111069819D02*
X163491792Y-112069819D01*
X163158458Y-112069819D02*
X163158458Y-111069819D01*
X163158458Y-111069819D02*
X162587030Y-112069819D01*
X162587030Y-112069819D02*
X162587030Y-111069819D01*
X161587030Y-111117438D02*
X161682268Y-111069819D01*
X161682268Y-111069819D02*
X161825125Y-111069819D01*
X161825125Y-111069819D02*
X161967982Y-111117438D01*
X161967982Y-111117438D02*
X162063220Y-111212676D01*
X162063220Y-111212676D02*
X162110839Y-111307914D01*
X162110839Y-111307914D02*
X162158458Y-111498390D01*
X162158458Y-111498390D02*
X162158458Y-111641247D01*
X162158458Y-111641247D02*
X162110839Y-111831723D01*
X162110839Y-111831723D02*
X162063220Y-111926961D01*
X162063220Y-111926961D02*
X161967982Y-112022200D01*
X161967982Y-112022200D02*
X161825125Y-112069819D01*
X161825125Y-112069819D02*
X161729887Y-112069819D01*
X161729887Y-112069819D02*
X161587030Y-112022200D01*
X161587030Y-112022200D02*
X161539411Y-111974580D01*
X161539411Y-111974580D02*
X161539411Y-111641247D01*
X161539411Y-111641247D02*
X161729887Y-111641247D01*
X161110839Y-111546009D02*
X160777506Y-111546009D01*
X160634649Y-112069819D02*
X161110839Y-112069819D01*
X161110839Y-112069819D02*
X161110839Y-111069819D01*
X161110839Y-111069819D02*
X160634649Y-111069819D01*
X160063220Y-111069819D02*
X160063220Y-111307914D01*
X160301315Y-111212676D02*
X160063220Y-111307914D01*
X160063220Y-111307914D02*
X159825125Y-111212676D01*
X160206077Y-111498390D02*
X160063220Y-111307914D01*
X160063220Y-111307914D02*
X159920363Y-111498390D01*
X141282561Y-142339411D02*
X141330180Y-142434649D01*
X141330180Y-142434649D02*
X141330180Y-142577506D01*
X141330180Y-142577506D02*
X141282561Y-142720363D01*
X141282561Y-142720363D02*
X141187323Y-142815601D01*
X141187323Y-142815601D02*
X141092085Y-142863220D01*
X141092085Y-142863220D02*
X140901609Y-142910839D01*
X140901609Y-142910839D02*
X140758752Y-142910839D01*
X140758752Y-142910839D02*
X140568276Y-142863220D01*
X140568276Y-142863220D02*
X140473038Y-142815601D01*
X140473038Y-142815601D02*
X140377800Y-142720363D01*
X140377800Y-142720363D02*
X140330180Y-142577506D01*
X140330180Y-142577506D02*
X140330180Y-142482268D01*
X140330180Y-142482268D02*
X140377800Y-142339411D01*
X140377800Y-142339411D02*
X140425419Y-142291792D01*
X140425419Y-142291792D02*
X140758752Y-142291792D01*
X140758752Y-142291792D02*
X140758752Y-142482268D01*
X140330180Y-141863220D02*
X141330180Y-141863220D01*
X141330180Y-141863220D02*
X140330180Y-141291792D01*
X140330180Y-141291792D02*
X141330180Y-141291792D01*
X140330180Y-140815601D02*
X141330180Y-140815601D01*
X141330180Y-140815601D02*
X141330180Y-140577506D01*
X141330180Y-140577506D02*
X141282561Y-140434649D01*
X141282561Y-140434649D02*
X141187323Y-140339411D01*
X141187323Y-140339411D02*
X141092085Y-140291792D01*
X141092085Y-140291792D02*
X140901609Y-140244173D01*
X140901609Y-140244173D02*
X140758752Y-140244173D01*
X140758752Y-140244173D02*
X140568276Y-140291792D01*
X140568276Y-140291792D02*
X140473038Y-140339411D01*
X140473038Y-140339411D02*
X140377800Y-140434649D01*
X140377800Y-140434649D02*
X140330180Y-140577506D01*
X140330180Y-140577506D02*
X140330180Y-140815601D01*
X165872744Y-123469819D02*
X165682268Y-123469819D01*
X165682268Y-123469819D02*
X165587030Y-123517438D01*
X165587030Y-123517438D02*
X165491792Y-123612676D01*
X165491792Y-123612676D02*
X165444173Y-123803152D01*
X165444173Y-123803152D02*
X165444173Y-124136485D01*
X165444173Y-124136485D02*
X165491792Y-124326961D01*
X165491792Y-124326961D02*
X165587030Y-124422200D01*
X165587030Y-124422200D02*
X165682268Y-124469819D01*
X165682268Y-124469819D02*
X165872744Y-124469819D01*
X165872744Y-124469819D02*
X165967982Y-124422200D01*
X165967982Y-124422200D02*
X166063220Y-124326961D01*
X166063220Y-124326961D02*
X166110839Y-124136485D01*
X166110839Y-124136485D02*
X166110839Y-123803152D01*
X166110839Y-123803152D02*
X166063220Y-123612676D01*
X166063220Y-123612676D02*
X165967982Y-123517438D01*
X165967982Y-123517438D02*
X165872744Y-123469819D01*
X164444173Y-124469819D02*
X164777506Y-123993628D01*
X165015601Y-124469819D02*
X165015601Y-123469819D01*
X165015601Y-123469819D02*
X164634649Y-123469819D01*
X164634649Y-123469819D02*
X164539411Y-123517438D01*
X164539411Y-123517438D02*
X164491792Y-123565057D01*
X164491792Y-123565057D02*
X164444173Y-123660295D01*
X164444173Y-123660295D02*
X164444173Y-123803152D01*
X164444173Y-123803152D02*
X164491792Y-123898390D01*
X164491792Y-123898390D02*
X164539411Y-123946009D01*
X164539411Y-123946009D02*
X164634649Y-123993628D01*
X164634649Y-123993628D02*
X165015601Y-123993628D01*
X164063220Y-124184104D02*
X163587030Y-124184104D01*
X164158458Y-124469819D02*
X163825125Y-123469819D01*
X163825125Y-123469819D02*
X163491792Y-124469819D01*
X163158458Y-124469819D02*
X163158458Y-123469819D01*
X163158458Y-123469819D02*
X162587030Y-124469819D01*
X162587030Y-124469819D02*
X162587030Y-123469819D01*
X161587030Y-123517438D02*
X161682268Y-123469819D01*
X161682268Y-123469819D02*
X161825125Y-123469819D01*
X161825125Y-123469819D02*
X161967982Y-123517438D01*
X161967982Y-123517438D02*
X162063220Y-123612676D01*
X162063220Y-123612676D02*
X162110839Y-123707914D01*
X162110839Y-123707914D02*
X162158458Y-123898390D01*
X162158458Y-123898390D02*
X162158458Y-124041247D01*
X162158458Y-124041247D02*
X162110839Y-124231723D01*
X162110839Y-124231723D02*
X162063220Y-124326961D01*
X162063220Y-124326961D02*
X161967982Y-124422200D01*
X161967982Y-124422200D02*
X161825125Y-124469819D01*
X161825125Y-124469819D02*
X161729887Y-124469819D01*
X161729887Y-124469819D02*
X161587030Y-124422200D01*
X161587030Y-124422200D02*
X161539411Y-124374580D01*
X161539411Y-124374580D02*
X161539411Y-124041247D01*
X161539411Y-124041247D02*
X161729887Y-124041247D01*
X161110839Y-123946009D02*
X160777506Y-123946009D01*
X160634649Y-124469819D02*
X161110839Y-124469819D01*
X161110839Y-124469819D02*
X161110839Y-123469819D01*
X161110839Y-123469819D02*
X160634649Y-123469819D01*
X150330180Y-142863220D02*
X151330180Y-142863220D01*
X151330180Y-142863220D02*
X150615895Y-142529887D01*
X150615895Y-142529887D02*
X151330180Y-142196554D01*
X151330180Y-142196554D02*
X150330180Y-142196554D01*
X151330180Y-141529887D02*
X151330180Y-141339411D01*
X151330180Y-141339411D02*
X151282561Y-141244173D01*
X151282561Y-141244173D02*
X151187323Y-141148935D01*
X151187323Y-141148935D02*
X150996847Y-141101316D01*
X150996847Y-141101316D02*
X150663514Y-141101316D01*
X150663514Y-141101316D02*
X150473038Y-141148935D01*
X150473038Y-141148935D02*
X150377800Y-141244173D01*
X150377800Y-141244173D02*
X150330180Y-141339411D01*
X150330180Y-141339411D02*
X150330180Y-141529887D01*
X150330180Y-141529887D02*
X150377800Y-141625125D01*
X150377800Y-141625125D02*
X150473038Y-141720363D01*
X150473038Y-141720363D02*
X150663514Y-141767982D01*
X150663514Y-141767982D02*
X150996847Y-141767982D01*
X150996847Y-141767982D02*
X151187323Y-141720363D01*
X151187323Y-141720363D02*
X151282561Y-141625125D01*
X151282561Y-141625125D02*
X151330180Y-141529887D01*
X150330180Y-140672744D02*
X151330180Y-140672744D01*
X151330180Y-140672744D02*
X151330180Y-140434649D01*
X151330180Y-140434649D02*
X151282561Y-140291792D01*
X151282561Y-140291792D02*
X151187323Y-140196554D01*
X151187323Y-140196554D02*
X151092085Y-140148935D01*
X151092085Y-140148935D02*
X150901609Y-140101316D01*
X150901609Y-140101316D02*
X150758752Y-140101316D01*
X150758752Y-140101316D02*
X150568276Y-140148935D01*
X150568276Y-140148935D02*
X150473038Y-140196554D01*
X150473038Y-140196554D02*
X150377800Y-140291792D01*
X150377800Y-140291792D02*
X150330180Y-140434649D01*
X150330180Y-140434649D02*
X150330180Y-140672744D01*
X150853990Y-139672744D02*
X150853990Y-139339411D01*
X150330180Y-139196554D02*
X150330180Y-139672744D01*
X150330180Y-139672744D02*
X151330180Y-139672744D01*
X151330180Y-139672744D02*
X151330180Y-139196554D01*
X165729887Y-126546009D02*
X165587030Y-126593628D01*
X165587030Y-126593628D02*
X165539411Y-126641247D01*
X165539411Y-126641247D02*
X165491792Y-126736485D01*
X165491792Y-126736485D02*
X165491792Y-126879342D01*
X165491792Y-126879342D02*
X165539411Y-126974580D01*
X165539411Y-126974580D02*
X165587030Y-127022200D01*
X165587030Y-127022200D02*
X165682268Y-127069819D01*
X165682268Y-127069819D02*
X166063220Y-127069819D01*
X166063220Y-127069819D02*
X166063220Y-126069819D01*
X166063220Y-126069819D02*
X165729887Y-126069819D01*
X165729887Y-126069819D02*
X165634649Y-126117438D01*
X165634649Y-126117438D02*
X165587030Y-126165057D01*
X165587030Y-126165057D02*
X165539411Y-126260295D01*
X165539411Y-126260295D02*
X165539411Y-126355533D01*
X165539411Y-126355533D02*
X165587030Y-126450771D01*
X165587030Y-126450771D02*
X165634649Y-126498390D01*
X165634649Y-126498390D02*
X165729887Y-126546009D01*
X165729887Y-126546009D02*
X166063220Y-126546009D01*
X164587030Y-127069819D02*
X165063220Y-127069819D01*
X165063220Y-127069819D02*
X165063220Y-126069819D01*
X164253696Y-126069819D02*
X164253696Y-126879342D01*
X164253696Y-126879342D02*
X164206077Y-126974580D01*
X164206077Y-126974580D02*
X164158458Y-127022200D01*
X164158458Y-127022200D02*
X164063220Y-127069819D01*
X164063220Y-127069819D02*
X163872744Y-127069819D01*
X163872744Y-127069819D02*
X163777506Y-127022200D01*
X163777506Y-127022200D02*
X163729887Y-126974580D01*
X163729887Y-126974580D02*
X163682268Y-126879342D01*
X163682268Y-126879342D02*
X163682268Y-126069819D01*
X163206077Y-126546009D02*
X162872744Y-126546009D01*
X162729887Y-127069819D02*
X163206077Y-127069819D01*
X163206077Y-127069819D02*
X163206077Y-126069819D01*
X163206077Y-126069819D02*
X162729887Y-126069819D01*
X146269819Y-99041541D02*
X147269819Y-99279636D01*
X147269819Y-99279636D02*
X146555533Y-99470112D01*
X146555533Y-99470112D02*
X147269819Y-99660588D01*
X147269819Y-99660588D02*
X146269819Y-99898684D01*
X147269819Y-100279636D02*
X146269819Y-100279636D01*
X146746009Y-100279636D02*
X146746009Y-100851064D01*
X147269819Y-100851064D02*
X146269819Y-100851064D01*
X146984104Y-101279636D02*
X146984104Y-101755826D01*
X147269819Y-101184398D02*
X146269819Y-101517731D01*
X146269819Y-101517731D02*
X147269819Y-101851064D01*
X147269819Y-102184398D02*
X146269819Y-102184398D01*
X146269819Y-102184398D02*
X146984104Y-102517731D01*
X146984104Y-102517731D02*
X146269819Y-102851064D01*
X146269819Y-102851064D02*
X147269819Y-102851064D01*
X166730180Y-141263220D02*
X167730180Y-141263220D01*
X167730180Y-141263220D02*
X167730180Y-140882268D01*
X167730180Y-140882268D02*
X167682561Y-140787030D01*
X167682561Y-140787030D02*
X167634942Y-140739411D01*
X167634942Y-140739411D02*
X167539704Y-140691792D01*
X167539704Y-140691792D02*
X167396847Y-140691792D01*
X167396847Y-140691792D02*
X167301609Y-140739411D01*
X167301609Y-140739411D02*
X167253990Y-140787030D01*
X167253990Y-140787030D02*
X167206371Y-140882268D01*
X167206371Y-140882268D02*
X167206371Y-141263220D01*
X166730180Y-139739411D02*
X166730180Y-140310839D01*
X166730180Y-140025125D02*
X167730180Y-140025125D01*
X167730180Y-140025125D02*
X167587323Y-140120363D01*
X167587323Y-140120363D02*
X167492085Y-140215601D01*
X167492085Y-140215601D02*
X167444466Y-140310839D01*
X159330180Y-141263220D02*
X160330180Y-141263220D01*
X160330180Y-141263220D02*
X160330180Y-140882268D01*
X160330180Y-140882268D02*
X160282561Y-140787030D01*
X160282561Y-140787030D02*
X160234942Y-140739411D01*
X160234942Y-140739411D02*
X160139704Y-140691792D01*
X160139704Y-140691792D02*
X159996847Y-140691792D01*
X159996847Y-140691792D02*
X159901609Y-140739411D01*
X159901609Y-140739411D02*
X159853990Y-140787030D01*
X159853990Y-140787030D02*
X159806371Y-140882268D01*
X159806371Y-140882268D02*
X159806371Y-141263220D01*
X159996847Y-139834649D02*
X159330180Y-139834649D01*
X160377800Y-140072744D02*
X159663514Y-140310839D01*
X159663514Y-140310839D02*
X159663514Y-139691792D01*
X165491792Y-132069819D02*
X165825125Y-131593628D01*
X166063220Y-132069819D02*
X166063220Y-131069819D01*
X166063220Y-131069819D02*
X165682268Y-131069819D01*
X165682268Y-131069819D02*
X165587030Y-131117438D01*
X165587030Y-131117438D02*
X165539411Y-131165057D01*
X165539411Y-131165057D02*
X165491792Y-131260295D01*
X165491792Y-131260295D02*
X165491792Y-131403152D01*
X165491792Y-131403152D02*
X165539411Y-131498390D01*
X165539411Y-131498390D02*
X165587030Y-131546009D01*
X165587030Y-131546009D02*
X165682268Y-131593628D01*
X165682268Y-131593628D02*
X166063220Y-131593628D01*
X165063220Y-131546009D02*
X164729887Y-131546009D01*
X164587030Y-132069819D02*
X165063220Y-132069819D01*
X165063220Y-132069819D02*
X165063220Y-131069819D01*
X165063220Y-131069819D02*
X164587030Y-131069819D01*
X164158458Y-132069819D02*
X164158458Y-131069819D01*
X164158458Y-131069819D02*
X163920363Y-131069819D01*
X163920363Y-131069819D02*
X163777506Y-131117438D01*
X163777506Y-131117438D02*
X163682268Y-131212676D01*
X163682268Y-131212676D02*
X163634649Y-131307914D01*
X163634649Y-131307914D02*
X163587030Y-131498390D01*
X163587030Y-131498390D02*
X163587030Y-131641247D01*
X163587030Y-131641247D02*
X163634649Y-131831723D01*
X163634649Y-131831723D02*
X163682268Y-131926961D01*
X163682268Y-131926961D02*
X163777506Y-132022200D01*
X163777506Y-132022200D02*
X163920363Y-132069819D01*
X163920363Y-132069819D02*
X164158458Y-132069819D01*
X165872744Y-128993628D02*
X165872744Y-129469819D01*
X166206077Y-128469819D02*
X165872744Y-128993628D01*
X165872744Y-128993628D02*
X165539411Y-128469819D01*
X165206077Y-128946009D02*
X164872744Y-128946009D01*
X164729887Y-129469819D02*
X165206077Y-129469819D01*
X165206077Y-129469819D02*
X165206077Y-128469819D01*
X165206077Y-128469819D02*
X164729887Y-128469819D01*
X163825125Y-129469819D02*
X164301315Y-129469819D01*
X164301315Y-129469819D02*
X164301315Y-128469819D01*
X163015601Y-129469819D02*
X163491791Y-129469819D01*
X163491791Y-129469819D02*
X163491791Y-128469819D01*
X162491791Y-128469819D02*
X162301315Y-128469819D01*
X162301315Y-128469819D02*
X162206077Y-128517438D01*
X162206077Y-128517438D02*
X162110839Y-128612676D01*
X162110839Y-128612676D02*
X162063220Y-128803152D01*
X162063220Y-128803152D02*
X162063220Y-129136485D01*
X162063220Y-129136485D02*
X162110839Y-129326961D01*
X162110839Y-129326961D02*
X162206077Y-129422200D01*
X162206077Y-129422200D02*
X162301315Y-129469819D01*
X162301315Y-129469819D02*
X162491791Y-129469819D01*
X162491791Y-129469819D02*
X162587029Y-129422200D01*
X162587029Y-129422200D02*
X162682267Y-129326961D01*
X162682267Y-129326961D02*
X162729886Y-129136485D01*
X162729886Y-129136485D02*
X162729886Y-128803152D01*
X162729886Y-128803152D02*
X162682267Y-128612676D01*
X162682267Y-128612676D02*
X162587029Y-128517438D01*
X162587029Y-128517438D02*
X162491791Y-128469819D01*
X161729886Y-128469819D02*
X161491791Y-129469819D01*
X161491791Y-129469819D02*
X161301315Y-128755533D01*
X161301315Y-128755533D02*
X161110839Y-129469819D01*
X161110839Y-129469819D02*
X160872744Y-128469819D01*
X148917438Y-99660588D02*
X148869819Y-99565350D01*
X148869819Y-99565350D02*
X148869819Y-99422493D01*
X148869819Y-99422493D02*
X148917438Y-99279636D01*
X148917438Y-99279636D02*
X149012676Y-99184398D01*
X149012676Y-99184398D02*
X149107914Y-99136779D01*
X149107914Y-99136779D02*
X149298390Y-99089160D01*
X149298390Y-99089160D02*
X149441247Y-99089160D01*
X149441247Y-99089160D02*
X149631723Y-99136779D01*
X149631723Y-99136779D02*
X149726961Y-99184398D01*
X149726961Y-99184398D02*
X149822200Y-99279636D01*
X149822200Y-99279636D02*
X149869819Y-99422493D01*
X149869819Y-99422493D02*
X149869819Y-99517731D01*
X149869819Y-99517731D02*
X149822200Y-99660588D01*
X149822200Y-99660588D02*
X149774580Y-99708207D01*
X149774580Y-99708207D02*
X149441247Y-99708207D01*
X149441247Y-99708207D02*
X149441247Y-99517731D01*
X149869819Y-100136779D02*
X148869819Y-100136779D01*
X148869819Y-100136779D02*
X149869819Y-100708207D01*
X149869819Y-100708207D02*
X148869819Y-100708207D01*
X149869819Y-101184398D02*
X148869819Y-101184398D01*
X148869819Y-101184398D02*
X148869819Y-101422493D01*
X148869819Y-101422493D02*
X148917438Y-101565350D01*
X148917438Y-101565350D02*
X149012676Y-101660588D01*
X149012676Y-101660588D02*
X149107914Y-101708207D01*
X149107914Y-101708207D02*
X149298390Y-101755826D01*
X149298390Y-101755826D02*
X149441247Y-101755826D01*
X149441247Y-101755826D02*
X149631723Y-101708207D01*
X149631723Y-101708207D02*
X149726961Y-101660588D01*
X149726961Y-101660588D02*
X149822200Y-101565350D01*
X149822200Y-101565350D02*
X149869819Y-101422493D01*
X149869819Y-101422493D02*
X149869819Y-101184398D01*
X165539411Y-133517438D02*
X165634649Y-133469819D01*
X165634649Y-133469819D02*
X165777506Y-133469819D01*
X165777506Y-133469819D02*
X165920363Y-133517438D01*
X165920363Y-133517438D02*
X166015601Y-133612676D01*
X166015601Y-133612676D02*
X166063220Y-133707914D01*
X166063220Y-133707914D02*
X166110839Y-133898390D01*
X166110839Y-133898390D02*
X166110839Y-134041247D01*
X166110839Y-134041247D02*
X166063220Y-134231723D01*
X166063220Y-134231723D02*
X166015601Y-134326961D01*
X166015601Y-134326961D02*
X165920363Y-134422200D01*
X165920363Y-134422200D02*
X165777506Y-134469819D01*
X165777506Y-134469819D02*
X165682268Y-134469819D01*
X165682268Y-134469819D02*
X165539411Y-134422200D01*
X165539411Y-134422200D02*
X165491792Y-134374580D01*
X165491792Y-134374580D02*
X165491792Y-134041247D01*
X165491792Y-134041247D02*
X165682268Y-134041247D01*
X164491792Y-134469819D02*
X164825125Y-133993628D01*
X165063220Y-134469819D02*
X165063220Y-133469819D01*
X165063220Y-133469819D02*
X164682268Y-133469819D01*
X164682268Y-133469819D02*
X164587030Y-133517438D01*
X164587030Y-133517438D02*
X164539411Y-133565057D01*
X164539411Y-133565057D02*
X164491792Y-133660295D01*
X164491792Y-133660295D02*
X164491792Y-133803152D01*
X164491792Y-133803152D02*
X164539411Y-133898390D01*
X164539411Y-133898390D02*
X164587030Y-133946009D01*
X164587030Y-133946009D02*
X164682268Y-133993628D01*
X164682268Y-133993628D02*
X165063220Y-133993628D01*
X164063220Y-133946009D02*
X163729887Y-133946009D01*
X163587030Y-134469819D02*
X164063220Y-134469819D01*
X164063220Y-134469819D02*
X164063220Y-133469819D01*
X164063220Y-133469819D02*
X163587030Y-133469819D01*
X163158458Y-133946009D02*
X162825125Y-133946009D01*
X162682268Y-134469819D02*
X163158458Y-134469819D01*
X163158458Y-134469819D02*
X163158458Y-133469819D01*
X163158458Y-133469819D02*
X162682268Y-133469819D01*
X162253696Y-134469819D02*
X162253696Y-133469819D01*
X162253696Y-133469819D02*
X161682268Y-134469819D01*
X161682268Y-134469819D02*
X161682268Y-133469819D01*
X161930180Y-141263220D02*
X162930180Y-141263220D01*
X162930180Y-141263220D02*
X162930180Y-140882268D01*
X162930180Y-140882268D02*
X162882561Y-140787030D01*
X162882561Y-140787030D02*
X162834942Y-140739411D01*
X162834942Y-140739411D02*
X162739704Y-140691792D01*
X162739704Y-140691792D02*
X162596847Y-140691792D01*
X162596847Y-140691792D02*
X162501609Y-140739411D01*
X162501609Y-140739411D02*
X162453990Y-140787030D01*
X162453990Y-140787030D02*
X162406371Y-140882268D01*
X162406371Y-140882268D02*
X162406371Y-141263220D01*
X162930180Y-140358458D02*
X162930180Y-139739411D01*
X162930180Y-139739411D02*
X162549228Y-140072744D01*
X162549228Y-140072744D02*
X162549228Y-139929887D01*
X162549228Y-139929887D02*
X162501609Y-139834649D01*
X162501609Y-139834649D02*
X162453990Y-139787030D01*
X162453990Y-139787030D02*
X162358752Y-139739411D01*
X162358752Y-139739411D02*
X162120657Y-139739411D01*
X162120657Y-139739411D02*
X162025419Y-139787030D01*
X162025419Y-139787030D02*
X161977800Y-139834649D01*
X161977800Y-139834649D02*
X161930180Y-139929887D01*
X161930180Y-139929887D02*
X161930180Y-140215601D01*
X161930180Y-140215601D02*
X161977800Y-140310839D01*
X161977800Y-140310839D02*
X162025419Y-140358458D01*
X109882561Y-136939411D02*
X109930180Y-137034649D01*
X109930180Y-137034649D02*
X109930180Y-137177506D01*
X109930180Y-137177506D02*
X109882561Y-137320363D01*
X109882561Y-137320363D02*
X109787323Y-137415601D01*
X109787323Y-137415601D02*
X109692085Y-137463220D01*
X109692085Y-137463220D02*
X109501609Y-137510839D01*
X109501609Y-137510839D02*
X109358752Y-137510839D01*
X109358752Y-137510839D02*
X109168276Y-137463220D01*
X109168276Y-137463220D02*
X109073038Y-137415601D01*
X109073038Y-137415601D02*
X108977800Y-137320363D01*
X108977800Y-137320363D02*
X108930180Y-137177506D01*
X108930180Y-137177506D02*
X108930180Y-137082268D01*
X108930180Y-137082268D02*
X108977800Y-136939411D01*
X108977800Y-136939411D02*
X109025419Y-136891792D01*
X109025419Y-136891792D02*
X109358752Y-136891792D01*
X109358752Y-136891792D02*
X109358752Y-137082268D01*
X108930180Y-136463220D02*
X109930180Y-136463220D01*
X109930180Y-136463220D02*
X108930180Y-135891792D01*
X108930180Y-135891792D02*
X109930180Y-135891792D01*
X108930180Y-135415601D02*
X109930180Y-135415601D01*
X109930180Y-135415601D02*
X109930180Y-135177506D01*
X109930180Y-135177506D02*
X109882561Y-135034649D01*
X109882561Y-135034649D02*
X109787323Y-134939411D01*
X109787323Y-134939411D02*
X109692085Y-134891792D01*
X109692085Y-134891792D02*
X109501609Y-134844173D01*
X109501609Y-134844173D02*
X109358752Y-134844173D01*
X109358752Y-134844173D02*
X109168276Y-134891792D01*
X109168276Y-134891792D02*
X109073038Y-134939411D01*
X109073038Y-134939411D02*
X108977800Y-135034649D01*
X108977800Y-135034649D02*
X108930180Y-135177506D01*
X108930180Y-135177506D02*
X108930180Y-135415601D01*
X165872744Y-116593628D02*
X165872744Y-117069819D01*
X166206077Y-116069819D02*
X165872744Y-116593628D01*
X165872744Y-116593628D02*
X165539411Y-116069819D01*
X165206077Y-116546009D02*
X164872744Y-116546009D01*
X164729887Y-117069819D02*
X165206077Y-117069819D01*
X165206077Y-117069819D02*
X165206077Y-116069819D01*
X165206077Y-116069819D02*
X164729887Y-116069819D01*
X163825125Y-117069819D02*
X164301315Y-117069819D01*
X164301315Y-117069819D02*
X164301315Y-116069819D01*
X163015601Y-117069819D02*
X163491791Y-117069819D01*
X163491791Y-117069819D02*
X163491791Y-116069819D01*
X162491791Y-116069819D02*
X162301315Y-116069819D01*
X162301315Y-116069819D02*
X162206077Y-116117438D01*
X162206077Y-116117438D02*
X162110839Y-116212676D01*
X162110839Y-116212676D02*
X162063220Y-116403152D01*
X162063220Y-116403152D02*
X162063220Y-116736485D01*
X162063220Y-116736485D02*
X162110839Y-116926961D01*
X162110839Y-116926961D02*
X162206077Y-117022200D01*
X162206077Y-117022200D02*
X162301315Y-117069819D01*
X162301315Y-117069819D02*
X162491791Y-117069819D01*
X162491791Y-117069819D02*
X162587029Y-117022200D01*
X162587029Y-117022200D02*
X162682267Y-116926961D01*
X162682267Y-116926961D02*
X162729886Y-116736485D01*
X162729886Y-116736485D02*
X162729886Y-116403152D01*
X162729886Y-116403152D02*
X162682267Y-116212676D01*
X162682267Y-116212676D02*
X162587029Y-116117438D01*
X162587029Y-116117438D02*
X162491791Y-116069819D01*
X161729886Y-116069819D02*
X161491791Y-117069819D01*
X161491791Y-117069819D02*
X161301315Y-116355533D01*
X161301315Y-116355533D02*
X161110839Y-117069819D01*
X161110839Y-117069819D02*
X160872744Y-116069819D01*
X160348934Y-116069819D02*
X160348934Y-116307914D01*
X160587029Y-116212676D02*
X160348934Y-116307914D01*
X160348934Y-116307914D02*
X160110839Y-116212676D01*
X160491791Y-116498390D02*
X160348934Y-116307914D01*
X160348934Y-116307914D02*
X160206077Y-116498390D01*
X107269819Y-99041541D02*
X107269819Y-99660588D01*
X107269819Y-99660588D02*
X107650771Y-99327255D01*
X107650771Y-99327255D02*
X107650771Y-99470112D01*
X107650771Y-99470112D02*
X107698390Y-99565350D01*
X107698390Y-99565350D02*
X107746009Y-99612969D01*
X107746009Y-99612969D02*
X107841247Y-99660588D01*
X107841247Y-99660588D02*
X108079342Y-99660588D01*
X108079342Y-99660588D02*
X108174580Y-99612969D01*
X108174580Y-99612969D02*
X108222200Y-99565350D01*
X108222200Y-99565350D02*
X108269819Y-99470112D01*
X108269819Y-99470112D02*
X108269819Y-99184398D01*
X108269819Y-99184398D02*
X108222200Y-99089160D01*
X108222200Y-99089160D02*
X108174580Y-99041541D01*
X107269819Y-99946303D02*
X108269819Y-100279636D01*
X108269819Y-100279636D02*
X107269819Y-100612969D01*
X107269819Y-100851065D02*
X107269819Y-101470112D01*
X107269819Y-101470112D02*
X107650771Y-101136779D01*
X107650771Y-101136779D02*
X107650771Y-101279636D01*
X107650771Y-101279636D02*
X107698390Y-101374874D01*
X107698390Y-101374874D02*
X107746009Y-101422493D01*
X107746009Y-101422493D02*
X107841247Y-101470112D01*
X107841247Y-101470112D02*
X108079342Y-101470112D01*
X108079342Y-101470112D02*
X108174580Y-101422493D01*
X108174580Y-101422493D02*
X108222200Y-101374874D01*
X108222200Y-101374874D02*
X108269819Y-101279636D01*
X108269819Y-101279636D02*
X108269819Y-100993922D01*
X108269819Y-100993922D02*
X108222200Y-100898684D01*
X108222200Y-100898684D02*
X108174580Y-100851065D01*
X157930180Y-141358458D02*
X157930180Y-140739411D01*
X157930180Y-140739411D02*
X157549228Y-141072744D01*
X157549228Y-141072744D02*
X157549228Y-140929887D01*
X157549228Y-140929887D02*
X157501609Y-140834649D01*
X157501609Y-140834649D02*
X157453990Y-140787030D01*
X157453990Y-140787030D02*
X157358752Y-140739411D01*
X157358752Y-140739411D02*
X157120657Y-140739411D01*
X157120657Y-140739411D02*
X157025419Y-140787030D01*
X157025419Y-140787030D02*
X156977800Y-140834649D01*
X156977800Y-140834649D02*
X156930180Y-140929887D01*
X156930180Y-140929887D02*
X156930180Y-141215601D01*
X156930180Y-141215601D02*
X156977800Y-141310839D01*
X156977800Y-141310839D02*
X157025419Y-141358458D01*
X157930180Y-140453696D02*
X156930180Y-140120363D01*
X156930180Y-140120363D02*
X157930180Y-139787030D01*
X157930180Y-139548934D02*
X157930180Y-138929887D01*
X157930180Y-138929887D02*
X157549228Y-139263220D01*
X157549228Y-139263220D02*
X157549228Y-139120363D01*
X157549228Y-139120363D02*
X157501609Y-139025125D01*
X157501609Y-139025125D02*
X157453990Y-138977506D01*
X157453990Y-138977506D02*
X157358752Y-138929887D01*
X157358752Y-138929887D02*
X157120657Y-138929887D01*
X157120657Y-138929887D02*
X157025419Y-138977506D01*
X157025419Y-138977506D02*
X156977800Y-139025125D01*
X156977800Y-139025125D02*
X156930180Y-139120363D01*
X156930180Y-139120363D02*
X156930180Y-139406077D01*
X156930180Y-139406077D02*
X156977800Y-139501315D01*
X156977800Y-139501315D02*
X157025419Y-139548934D01*
X147085714Y-141304819D02*
X147085714Y-142019104D01*
X147085714Y-142019104D02*
X147133333Y-142161961D01*
X147133333Y-142161961D02*
X147228571Y-142257200D01*
X147228571Y-142257200D02*
X147371428Y-142304819D01*
X147371428Y-142304819D02*
X147466666Y-142304819D01*
X146180952Y-141304819D02*
X146371428Y-141304819D01*
X146371428Y-141304819D02*
X146466666Y-141352438D01*
X146466666Y-141352438D02*
X146514285Y-141400057D01*
X146514285Y-141400057D02*
X146609523Y-141542914D01*
X146609523Y-141542914D02*
X146657142Y-141733390D01*
X146657142Y-141733390D02*
X146657142Y-142114342D01*
X146657142Y-142114342D02*
X146609523Y-142209580D01*
X146609523Y-142209580D02*
X146561904Y-142257200D01*
X146561904Y-142257200D02*
X146466666Y-142304819D01*
X146466666Y-142304819D02*
X146276190Y-142304819D01*
X146276190Y-142304819D02*
X146180952Y-142257200D01*
X146180952Y-142257200D02*
X146133333Y-142209580D01*
X146133333Y-142209580D02*
X146085714Y-142114342D01*
X146085714Y-142114342D02*
X146085714Y-141876247D01*
X146085714Y-141876247D02*
X146133333Y-141781009D01*
X146133333Y-141781009D02*
X146180952Y-141733390D01*
X146180952Y-141733390D02*
X146276190Y-141685771D01*
X146276190Y-141685771D02*
X146466666Y-141685771D01*
X146466666Y-141685771D02*
X146561904Y-141733390D01*
X146561904Y-141733390D02*
X146609523Y-141781009D01*
X146609523Y-141781009D02*
X146657142Y-141876247D01*
X145466666Y-141304819D02*
X145371428Y-141304819D01*
X145371428Y-141304819D02*
X145276190Y-141352438D01*
X145276190Y-141352438D02*
X145228571Y-141400057D01*
X145228571Y-141400057D02*
X145180952Y-141495295D01*
X145180952Y-141495295D02*
X145133333Y-141685771D01*
X145133333Y-141685771D02*
X145133333Y-141923866D01*
X145133333Y-141923866D02*
X145180952Y-142114342D01*
X145180952Y-142114342D02*
X145228571Y-142209580D01*
X145228571Y-142209580D02*
X145276190Y-142257200D01*
X145276190Y-142257200D02*
X145371428Y-142304819D01*
X145371428Y-142304819D02*
X145466666Y-142304819D01*
X145466666Y-142304819D02*
X145561904Y-142257200D01*
X145561904Y-142257200D02*
X145609523Y-142209580D01*
X145609523Y-142209580D02*
X145657142Y-142114342D01*
X145657142Y-142114342D02*
X145704761Y-141923866D01*
X145704761Y-141923866D02*
X145704761Y-141685771D01*
X145704761Y-141685771D02*
X145657142Y-141495295D01*
X145657142Y-141495295D02*
X145609523Y-141400057D01*
X145609523Y-141400057D02*
X145561904Y-141352438D01*
X145561904Y-141352438D02*
X145466666Y-141304819D01*
X144752380Y-141400057D02*
X144704761Y-141352438D01*
X144704761Y-141352438D02*
X144609523Y-141304819D01*
X144609523Y-141304819D02*
X144371428Y-141304819D01*
X144371428Y-141304819D02*
X144276190Y-141352438D01*
X144276190Y-141352438D02*
X144228571Y-141400057D01*
X144228571Y-141400057D02*
X144180952Y-141495295D01*
X144180952Y-141495295D02*
X144180952Y-141590533D01*
X144180952Y-141590533D02*
X144228571Y-141733390D01*
X144228571Y-141733390D02*
X144799999Y-142304819D01*
X144799999Y-142304819D02*
X144180952Y-142304819D01*
X174228571Y-137162295D02*
X174228571Y-137733723D01*
X174228571Y-137733723D02*
X174266666Y-137848009D01*
X174266666Y-137848009D02*
X174342857Y-137924200D01*
X174342857Y-137924200D02*
X174457142Y-137962295D01*
X174457142Y-137962295D02*
X174533333Y-137962295D01*
X173504761Y-137428961D02*
X173504761Y-137962295D01*
X173695237Y-137124200D02*
X173885714Y-137695628D01*
X173885714Y-137695628D02*
X173390475Y-137695628D01*
X172933332Y-137162295D02*
X172857142Y-137162295D01*
X172857142Y-137162295D02*
X172780951Y-137200390D01*
X172780951Y-137200390D02*
X172742856Y-137238485D01*
X172742856Y-137238485D02*
X172704761Y-137314676D01*
X172704761Y-137314676D02*
X172666666Y-137467057D01*
X172666666Y-137467057D02*
X172666666Y-137657533D01*
X172666666Y-137657533D02*
X172704761Y-137809914D01*
X172704761Y-137809914D02*
X172742856Y-137886104D01*
X172742856Y-137886104D02*
X172780951Y-137924200D01*
X172780951Y-137924200D02*
X172857142Y-137962295D01*
X172857142Y-137962295D02*
X172933332Y-137962295D01*
X172933332Y-137962295D02*
X173009523Y-137924200D01*
X173009523Y-137924200D02*
X173047618Y-137886104D01*
X173047618Y-137886104D02*
X173085713Y-137809914D01*
X173085713Y-137809914D02*
X173123809Y-137657533D01*
X173123809Y-137657533D02*
X173123809Y-137467057D01*
X173123809Y-137467057D02*
X173085713Y-137314676D01*
X173085713Y-137314676D02*
X173047618Y-137238485D01*
X173047618Y-137238485D02*
X173009523Y-137200390D01*
X173009523Y-137200390D02*
X172933332Y-137162295D01*
X171904761Y-137962295D02*
X172361904Y-137962295D01*
X172133332Y-137962295D02*
X172133332Y-137162295D01*
X172133332Y-137162295D02*
X172209523Y-137276580D01*
X172209523Y-137276580D02*
X172285713Y-137352771D01*
X172285713Y-137352771D02*
X172361904Y-137390866D01*
X100562295Y-136771428D02*
X101133723Y-136771428D01*
X101133723Y-136771428D02*
X101248009Y-136733333D01*
X101248009Y-136733333D02*
X101324200Y-136657142D01*
X101324200Y-136657142D02*
X101362295Y-136542857D01*
X101362295Y-136542857D02*
X101362295Y-136466666D01*
X100562295Y-137495238D02*
X100562295Y-137342857D01*
X100562295Y-137342857D02*
X100600390Y-137266666D01*
X100600390Y-137266666D02*
X100638485Y-137228571D01*
X100638485Y-137228571D02*
X100752771Y-137152381D01*
X100752771Y-137152381D02*
X100905152Y-137114285D01*
X100905152Y-137114285D02*
X101209914Y-137114285D01*
X101209914Y-137114285D02*
X101286104Y-137152381D01*
X101286104Y-137152381D02*
X101324200Y-137190476D01*
X101324200Y-137190476D02*
X101362295Y-137266666D01*
X101362295Y-137266666D02*
X101362295Y-137419047D01*
X101362295Y-137419047D02*
X101324200Y-137495238D01*
X101324200Y-137495238D02*
X101286104Y-137533333D01*
X101286104Y-137533333D02*
X101209914Y-137571428D01*
X101209914Y-137571428D02*
X101019438Y-137571428D01*
X101019438Y-137571428D02*
X100943247Y-137533333D01*
X100943247Y-137533333D02*
X100905152Y-137495238D01*
X100905152Y-137495238D02*
X100867057Y-137419047D01*
X100867057Y-137419047D02*
X100867057Y-137266666D01*
X100867057Y-137266666D02*
X100905152Y-137190476D01*
X100905152Y-137190476D02*
X100943247Y-137152381D01*
X100943247Y-137152381D02*
X101019438Y-137114285D01*
X100562295Y-138066667D02*
X100562295Y-138142857D01*
X100562295Y-138142857D02*
X100600390Y-138219048D01*
X100600390Y-138219048D02*
X100638485Y-138257143D01*
X100638485Y-138257143D02*
X100714676Y-138295238D01*
X100714676Y-138295238D02*
X100867057Y-138333333D01*
X100867057Y-138333333D02*
X101057533Y-138333333D01*
X101057533Y-138333333D02*
X101209914Y-138295238D01*
X101209914Y-138295238D02*
X101286104Y-138257143D01*
X101286104Y-138257143D02*
X101324200Y-138219048D01*
X101324200Y-138219048D02*
X101362295Y-138142857D01*
X101362295Y-138142857D02*
X101362295Y-138066667D01*
X101362295Y-138066667D02*
X101324200Y-137990476D01*
X101324200Y-137990476D02*
X101286104Y-137952381D01*
X101286104Y-137952381D02*
X101209914Y-137914286D01*
X101209914Y-137914286D02*
X101057533Y-137876190D01*
X101057533Y-137876190D02*
X100867057Y-137876190D01*
X100867057Y-137876190D02*
X100714676Y-137914286D01*
X100714676Y-137914286D02*
X100638485Y-137952381D01*
X100638485Y-137952381D02*
X100600390Y-137990476D01*
X100600390Y-137990476D02*
X100562295Y-138066667D01*
X101362295Y-139095238D02*
X101362295Y-138638095D01*
X101362295Y-138866667D02*
X100562295Y-138866667D01*
X100562295Y-138866667D02*
X100676580Y-138790476D01*
X100676580Y-138790476D02*
X100752771Y-138714286D01*
X100752771Y-138714286D02*
X100790866Y-138638095D01*
X140162295Y-97971428D02*
X140733723Y-97971428D01*
X140733723Y-97971428D02*
X140848009Y-97933333D01*
X140848009Y-97933333D02*
X140924200Y-97857142D01*
X140924200Y-97857142D02*
X140962295Y-97742857D01*
X140962295Y-97742857D02*
X140962295Y-97666666D01*
X140162295Y-98733333D02*
X140162295Y-98352381D01*
X140162295Y-98352381D02*
X140543247Y-98314285D01*
X140543247Y-98314285D02*
X140505152Y-98352381D01*
X140505152Y-98352381D02*
X140467057Y-98428571D01*
X140467057Y-98428571D02*
X140467057Y-98619047D01*
X140467057Y-98619047D02*
X140505152Y-98695238D01*
X140505152Y-98695238D02*
X140543247Y-98733333D01*
X140543247Y-98733333D02*
X140619438Y-98771428D01*
X140619438Y-98771428D02*
X140809914Y-98771428D01*
X140809914Y-98771428D02*
X140886104Y-98733333D01*
X140886104Y-98733333D02*
X140924200Y-98695238D01*
X140924200Y-98695238D02*
X140962295Y-98619047D01*
X140962295Y-98619047D02*
X140962295Y-98428571D01*
X140962295Y-98428571D02*
X140924200Y-98352381D01*
X140924200Y-98352381D02*
X140886104Y-98314285D01*
X140162295Y-99266667D02*
X140162295Y-99342857D01*
X140162295Y-99342857D02*
X140200390Y-99419048D01*
X140200390Y-99419048D02*
X140238485Y-99457143D01*
X140238485Y-99457143D02*
X140314676Y-99495238D01*
X140314676Y-99495238D02*
X140467057Y-99533333D01*
X140467057Y-99533333D02*
X140657533Y-99533333D01*
X140657533Y-99533333D02*
X140809914Y-99495238D01*
X140809914Y-99495238D02*
X140886104Y-99457143D01*
X140886104Y-99457143D02*
X140924200Y-99419048D01*
X140924200Y-99419048D02*
X140962295Y-99342857D01*
X140962295Y-99342857D02*
X140962295Y-99266667D01*
X140962295Y-99266667D02*
X140924200Y-99190476D01*
X140924200Y-99190476D02*
X140886104Y-99152381D01*
X140886104Y-99152381D02*
X140809914Y-99114286D01*
X140809914Y-99114286D02*
X140657533Y-99076190D01*
X140657533Y-99076190D02*
X140467057Y-99076190D01*
X140467057Y-99076190D02*
X140314676Y-99114286D01*
X140314676Y-99114286D02*
X140238485Y-99152381D01*
X140238485Y-99152381D02*
X140200390Y-99190476D01*
X140200390Y-99190476D02*
X140162295Y-99266667D01*
X140962295Y-100295238D02*
X140962295Y-99838095D01*
X140962295Y-100066667D02*
X140162295Y-100066667D01*
X140162295Y-100066667D02*
X140276580Y-99990476D01*
X140276580Y-99990476D02*
X140352771Y-99914286D01*
X140352771Y-99914286D02*
X140390866Y-99838095D01*
X129078572Y-124950200D02*
X128964286Y-124988295D01*
X128964286Y-124988295D02*
X128773810Y-124988295D01*
X128773810Y-124988295D02*
X128697619Y-124950200D01*
X128697619Y-124950200D02*
X128659524Y-124912104D01*
X128659524Y-124912104D02*
X128621429Y-124835914D01*
X128621429Y-124835914D02*
X128621429Y-124759723D01*
X128621429Y-124759723D02*
X128659524Y-124683533D01*
X128659524Y-124683533D02*
X128697619Y-124645438D01*
X128697619Y-124645438D02*
X128773810Y-124607342D01*
X128773810Y-124607342D02*
X128926191Y-124569247D01*
X128926191Y-124569247D02*
X129002381Y-124531152D01*
X129002381Y-124531152D02*
X129040476Y-124493057D01*
X129040476Y-124493057D02*
X129078572Y-124416866D01*
X129078572Y-124416866D02*
X129078572Y-124340676D01*
X129078572Y-124340676D02*
X129040476Y-124264485D01*
X129040476Y-124264485D02*
X129002381Y-124226390D01*
X129002381Y-124226390D02*
X128926191Y-124188295D01*
X128926191Y-124188295D02*
X128735714Y-124188295D01*
X128735714Y-124188295D02*
X128621429Y-124226390D01*
X128354762Y-124188295D02*
X128164286Y-124988295D01*
X128164286Y-124988295D02*
X128011905Y-124416866D01*
X128011905Y-124416866D02*
X127859524Y-124988295D01*
X127859524Y-124988295D02*
X127669048Y-124188295D01*
X127440476Y-124188295D02*
X126907142Y-124188295D01*
X126907142Y-124188295D02*
X127250000Y-124988295D01*
X126449999Y-124188295D02*
X126373809Y-124188295D01*
X126373809Y-124188295D02*
X126297618Y-124226390D01*
X126297618Y-124226390D02*
X126259523Y-124264485D01*
X126259523Y-124264485D02*
X126221428Y-124340676D01*
X126221428Y-124340676D02*
X126183333Y-124493057D01*
X126183333Y-124493057D02*
X126183333Y-124683533D01*
X126183333Y-124683533D02*
X126221428Y-124835914D01*
X126221428Y-124835914D02*
X126259523Y-124912104D01*
X126259523Y-124912104D02*
X126297618Y-124950200D01*
X126297618Y-124950200D02*
X126373809Y-124988295D01*
X126373809Y-124988295D02*
X126449999Y-124988295D01*
X126449999Y-124988295D02*
X126526190Y-124950200D01*
X126526190Y-124950200D02*
X126564285Y-124912104D01*
X126564285Y-124912104D02*
X126602380Y-124835914D01*
X126602380Y-124835914D02*
X126640476Y-124683533D01*
X126640476Y-124683533D02*
X126640476Y-124493057D01*
X126640476Y-124493057D02*
X126602380Y-124340676D01*
X126602380Y-124340676D02*
X126564285Y-124264485D01*
X126564285Y-124264485D02*
X126526190Y-124226390D01*
X126526190Y-124226390D02*
X126449999Y-124188295D01*
X125878571Y-124264485D02*
X125840475Y-124226390D01*
X125840475Y-124226390D02*
X125764285Y-124188295D01*
X125764285Y-124188295D02*
X125573809Y-124188295D01*
X125573809Y-124188295D02*
X125497618Y-124226390D01*
X125497618Y-124226390D02*
X125459523Y-124264485D01*
X125459523Y-124264485D02*
X125421428Y-124340676D01*
X125421428Y-124340676D02*
X125421428Y-124416866D01*
X125421428Y-124416866D02*
X125459523Y-124531152D01*
X125459523Y-124531152D02*
X125916666Y-124988295D01*
X125916666Y-124988295D02*
X125421428Y-124988295D01*
X129078572Y-99950200D02*
X128964286Y-99988295D01*
X128964286Y-99988295D02*
X128773810Y-99988295D01*
X128773810Y-99988295D02*
X128697619Y-99950200D01*
X128697619Y-99950200D02*
X128659524Y-99912104D01*
X128659524Y-99912104D02*
X128621429Y-99835914D01*
X128621429Y-99835914D02*
X128621429Y-99759723D01*
X128621429Y-99759723D02*
X128659524Y-99683533D01*
X128659524Y-99683533D02*
X128697619Y-99645438D01*
X128697619Y-99645438D02*
X128773810Y-99607342D01*
X128773810Y-99607342D02*
X128926191Y-99569247D01*
X128926191Y-99569247D02*
X129002381Y-99531152D01*
X129002381Y-99531152D02*
X129040476Y-99493057D01*
X129040476Y-99493057D02*
X129078572Y-99416866D01*
X129078572Y-99416866D02*
X129078572Y-99340676D01*
X129078572Y-99340676D02*
X129040476Y-99264485D01*
X129040476Y-99264485D02*
X129002381Y-99226390D01*
X129002381Y-99226390D02*
X128926191Y-99188295D01*
X128926191Y-99188295D02*
X128735714Y-99188295D01*
X128735714Y-99188295D02*
X128621429Y-99226390D01*
X128354762Y-99188295D02*
X128164286Y-99988295D01*
X128164286Y-99988295D02*
X128011905Y-99416866D01*
X128011905Y-99416866D02*
X127859524Y-99988295D01*
X127859524Y-99988295D02*
X127669048Y-99188295D01*
X127440476Y-99188295D02*
X126907142Y-99188295D01*
X126907142Y-99188295D02*
X127250000Y-99988295D01*
X126449999Y-99188295D02*
X126373809Y-99188295D01*
X126373809Y-99188295D02*
X126297618Y-99226390D01*
X126297618Y-99226390D02*
X126259523Y-99264485D01*
X126259523Y-99264485D02*
X126221428Y-99340676D01*
X126221428Y-99340676D02*
X126183333Y-99493057D01*
X126183333Y-99493057D02*
X126183333Y-99683533D01*
X126183333Y-99683533D02*
X126221428Y-99835914D01*
X126221428Y-99835914D02*
X126259523Y-99912104D01*
X126259523Y-99912104D02*
X126297618Y-99950200D01*
X126297618Y-99950200D02*
X126373809Y-99988295D01*
X126373809Y-99988295D02*
X126449999Y-99988295D01*
X126449999Y-99988295D02*
X126526190Y-99950200D01*
X126526190Y-99950200D02*
X126564285Y-99912104D01*
X126564285Y-99912104D02*
X126602380Y-99835914D01*
X126602380Y-99835914D02*
X126640476Y-99683533D01*
X126640476Y-99683533D02*
X126640476Y-99493057D01*
X126640476Y-99493057D02*
X126602380Y-99340676D01*
X126602380Y-99340676D02*
X126564285Y-99264485D01*
X126564285Y-99264485D02*
X126526190Y-99226390D01*
X126526190Y-99226390D02*
X126449999Y-99188295D01*
X125421428Y-99988295D02*
X125878571Y-99988295D01*
X125649999Y-99988295D02*
X125649999Y-99188295D01*
X125649999Y-99188295D02*
X125726190Y-99302580D01*
X125726190Y-99302580D02*
X125802380Y-99378771D01*
X125802380Y-99378771D02*
X125878571Y-99416866D01*
X153762295Y-140771428D02*
X154333723Y-140771428D01*
X154333723Y-140771428D02*
X154448009Y-140733333D01*
X154448009Y-140733333D02*
X154524200Y-140657142D01*
X154524200Y-140657142D02*
X154562295Y-140542857D01*
X154562295Y-140542857D02*
X154562295Y-140466666D01*
X154562295Y-141190476D02*
X154562295Y-141342857D01*
X154562295Y-141342857D02*
X154524200Y-141419047D01*
X154524200Y-141419047D02*
X154486104Y-141457143D01*
X154486104Y-141457143D02*
X154371819Y-141533333D01*
X154371819Y-141533333D02*
X154219438Y-141571428D01*
X154219438Y-141571428D02*
X153914676Y-141571428D01*
X153914676Y-141571428D02*
X153838485Y-141533333D01*
X153838485Y-141533333D02*
X153800390Y-141495238D01*
X153800390Y-141495238D02*
X153762295Y-141419047D01*
X153762295Y-141419047D02*
X153762295Y-141266666D01*
X153762295Y-141266666D02*
X153800390Y-141190476D01*
X153800390Y-141190476D02*
X153838485Y-141152381D01*
X153838485Y-141152381D02*
X153914676Y-141114285D01*
X153914676Y-141114285D02*
X154105152Y-141114285D01*
X154105152Y-141114285D02*
X154181342Y-141152381D01*
X154181342Y-141152381D02*
X154219438Y-141190476D01*
X154219438Y-141190476D02*
X154257533Y-141266666D01*
X154257533Y-141266666D02*
X154257533Y-141419047D01*
X154257533Y-141419047D02*
X154219438Y-141495238D01*
X154219438Y-141495238D02*
X154181342Y-141533333D01*
X154181342Y-141533333D02*
X154105152Y-141571428D01*
X153762295Y-142066667D02*
X153762295Y-142142857D01*
X153762295Y-142142857D02*
X153800390Y-142219048D01*
X153800390Y-142219048D02*
X153838485Y-142257143D01*
X153838485Y-142257143D02*
X153914676Y-142295238D01*
X153914676Y-142295238D02*
X154067057Y-142333333D01*
X154067057Y-142333333D02*
X154257533Y-142333333D01*
X154257533Y-142333333D02*
X154409914Y-142295238D01*
X154409914Y-142295238D02*
X154486104Y-142257143D01*
X154486104Y-142257143D02*
X154524200Y-142219048D01*
X154524200Y-142219048D02*
X154562295Y-142142857D01*
X154562295Y-142142857D02*
X154562295Y-142066667D01*
X154562295Y-142066667D02*
X154524200Y-141990476D01*
X154524200Y-141990476D02*
X154486104Y-141952381D01*
X154486104Y-141952381D02*
X154409914Y-141914286D01*
X154409914Y-141914286D02*
X154257533Y-141876190D01*
X154257533Y-141876190D02*
X154067057Y-141876190D01*
X154067057Y-141876190D02*
X153914676Y-141914286D01*
X153914676Y-141914286D02*
X153838485Y-141952381D01*
X153838485Y-141952381D02*
X153800390Y-141990476D01*
X153800390Y-141990476D02*
X153762295Y-142066667D01*
X154562295Y-143095238D02*
X154562295Y-142638095D01*
X154562295Y-142866667D02*
X153762295Y-142866667D01*
X153762295Y-142866667D02*
X153876580Y-142790476D01*
X153876580Y-142790476D02*
X153952771Y-142714286D01*
X153952771Y-142714286D02*
X153990866Y-142638095D01*
X110562295Y-97390475D02*
X111133723Y-97390475D01*
X111133723Y-97390475D02*
X111248009Y-97352380D01*
X111248009Y-97352380D02*
X111324200Y-97276189D01*
X111324200Y-97276189D02*
X111362295Y-97161904D01*
X111362295Y-97161904D02*
X111362295Y-97085713D01*
X111362295Y-98190475D02*
X111362295Y-97733332D01*
X111362295Y-97961904D02*
X110562295Y-97961904D01*
X110562295Y-97961904D02*
X110676580Y-97885713D01*
X110676580Y-97885713D02*
X110752771Y-97809523D01*
X110752771Y-97809523D02*
X110790866Y-97733332D01*
X111362295Y-98952380D02*
X111362295Y-98495237D01*
X111362295Y-98723809D02*
X110562295Y-98723809D01*
X110562295Y-98723809D02*
X110676580Y-98647618D01*
X110676580Y-98647618D02*
X110752771Y-98571428D01*
X110752771Y-98571428D02*
X110790866Y-98495237D01*
X110562295Y-99447619D02*
X110562295Y-99523809D01*
X110562295Y-99523809D02*
X110600390Y-99600000D01*
X110600390Y-99600000D02*
X110638485Y-99638095D01*
X110638485Y-99638095D02*
X110714676Y-99676190D01*
X110714676Y-99676190D02*
X110867057Y-99714285D01*
X110867057Y-99714285D02*
X111057533Y-99714285D01*
X111057533Y-99714285D02*
X111209914Y-99676190D01*
X111209914Y-99676190D02*
X111286104Y-99638095D01*
X111286104Y-99638095D02*
X111324200Y-99600000D01*
X111324200Y-99600000D02*
X111362295Y-99523809D01*
X111362295Y-99523809D02*
X111362295Y-99447619D01*
X111362295Y-99447619D02*
X111324200Y-99371428D01*
X111324200Y-99371428D02*
X111286104Y-99333333D01*
X111286104Y-99333333D02*
X111209914Y-99295238D01*
X111209914Y-99295238D02*
X111057533Y-99257142D01*
X111057533Y-99257142D02*
X110867057Y-99257142D01*
X110867057Y-99257142D02*
X110714676Y-99295238D01*
X110714676Y-99295238D02*
X110638485Y-99333333D01*
X110638485Y-99333333D02*
X110600390Y-99371428D01*
X110600390Y-99371428D02*
X110562295Y-99447619D01*
X111362295Y-100476190D02*
X111362295Y-100019047D01*
X111362295Y-100247619D02*
X110562295Y-100247619D01*
X110562295Y-100247619D02*
X110676580Y-100171428D01*
X110676580Y-100171428D02*
X110752771Y-100095238D01*
X110752771Y-100095238D02*
X110790866Y-100019047D01*
D12*
%TO.C,J602*%
X152860000Y-150760000D02*
X152860000Y-142940000D01*
X151940000Y-144540000D02*
X152860000Y-144540000D01*
X138740000Y-150760000D02*
X152860000Y-150760000D01*
X152100000Y-148500000D02*
X152100000Y-146900000D01*
X151100000Y-148500000D02*
X152100000Y-148500000D01*
X152860000Y-142940000D02*
X151940000Y-142940000D01*
X151940000Y-142940000D02*
X151940000Y-144540000D01*
X151940000Y-144540000D02*
X151660000Y-144540000D01*
X151660000Y-143325000D02*
X151660000Y-144540000D01*
X151600000Y-150760000D02*
X151600000Y-148500000D01*
X152100000Y-146900000D02*
X151100000Y-146900000D01*
X151100000Y-146900000D02*
X151100000Y-148500000D01*
X151100000Y-150760000D02*
X151100000Y-148500000D01*
X141300000Y-146400000D02*
X150300000Y-146400000D01*
X150300000Y-146400000D02*
X150300000Y-150760000D01*
X141300000Y-150760000D02*
X141300000Y-146400000D01*
X139500000Y-146900000D02*
X140500000Y-146900000D01*
X140500000Y-146900000D02*
X140500000Y-148500000D01*
X139660000Y-144540000D02*
X139660000Y-142940000D01*
X139940000Y-144540000D02*
X139660000Y-144540000D01*
X139500000Y-148500000D02*
X139500000Y-146900000D01*
X140500000Y-148500000D02*
X139500000Y-148500000D01*
X139660000Y-142940000D02*
X138740000Y-142940000D01*
X139660000Y-144540000D02*
X138740000Y-144540000D01*
X138740000Y-142940000D02*
X138740000Y-150760000D01*
%TO.C,J401*%
X164990000Y-106390000D02*
X164990000Y-107610000D01*
X164990000Y-107610000D02*
X167889999Y-107610000D01*
X164990000Y-135390000D02*
X164990000Y-136610000D01*
X164990000Y-136610000D02*
X177810000Y-136610000D01*
X166900000Y-108600000D02*
X167300000Y-109000000D01*
X166900000Y-109400000D02*
X166900000Y-108600000D01*
X167300000Y-109000000D02*
X166900000Y-109400000D01*
X167889999Y-107610000D02*
X167889999Y-107890000D01*
X167890000Y-135110000D02*
X167890000Y-135390000D01*
X167890000Y-135390000D02*
X164990000Y-135390000D01*
X170500000Y-106390000D02*
X170500000Y-108800000D01*
X170500000Y-108800000D02*
X175510000Y-108800000D01*
X170500000Y-116700000D02*
X170500000Y-117200000D01*
X170500000Y-117200000D02*
X173910000Y-117200000D01*
X170500000Y-118300001D02*
X170500000Y-118800000D01*
X170500000Y-118800000D02*
X175510000Y-118800000D01*
X170500000Y-124200001D02*
X175510000Y-124200001D01*
X170500000Y-124700000D02*
X170500000Y-124200001D01*
X170500000Y-125799999D02*
X173910000Y-125800000D01*
X170500000Y-126300000D02*
X170500000Y-125799999D01*
X170500000Y-134199999D02*
X175510000Y-134199999D01*
X170500000Y-136610000D02*
X170500000Y-134199999D01*
X171900000Y-120700000D02*
X173700000Y-120700000D01*
X171900000Y-122300000D02*
X171900000Y-120700000D01*
X173700000Y-120700000D02*
X173700000Y-122300000D01*
X173700000Y-122300000D02*
X171900000Y-122300000D01*
X173910000Y-117200000D02*
X173910000Y-118300000D01*
X173910000Y-118300000D02*
X170500000Y-118300001D01*
X173910000Y-124700000D02*
X170500000Y-124700000D01*
X173910000Y-125800000D02*
X173910000Y-124700000D01*
X175510000Y-107500000D02*
X177810000Y-107500000D01*
X175510000Y-116700000D02*
X170500000Y-116700000D01*
X175510000Y-119899999D02*
X175510000Y-107500000D01*
X175510000Y-126300000D02*
X170500000Y-126300000D01*
X175510000Y-135500000D02*
X175510000Y-123100000D01*
X177810000Y-106390000D02*
X164990000Y-106390000D01*
X177810000Y-135500000D02*
X175510000Y-135500000D01*
X177810000Y-136610000D02*
X177810000Y-106390000D01*
%TO.C,J601*%
X101890000Y-136490000D02*
X101890000Y-149310001D01*
X101890000Y-142000000D02*
X105199999Y-142000000D01*
X101890000Y-149310001D02*
X117110000Y-149310000D01*
X103000000Y-147010001D02*
X107900000Y-147010000D01*
X103000000Y-149310000D02*
X103000000Y-147010001D01*
X103110000Y-136490000D02*
X101890000Y-136490000D01*
X103110000Y-139390000D02*
X103110000Y-136490000D01*
X103390000Y-139390000D02*
X103110000Y-139390000D01*
X105199999Y-142000000D02*
X105200000Y-145410000D01*
X105200000Y-145410000D02*
X106300000Y-145410000D01*
X106300000Y-142000000D02*
X106800000Y-142000000D01*
X106300000Y-145410000D02*
X106300000Y-142000000D01*
X106800000Y-142000000D02*
X106800000Y-147010000D01*
X108700000Y-143400000D02*
X110300000Y-143400001D01*
X108700000Y-145200000D02*
X108700000Y-143400000D01*
X110300000Y-143400001D02*
X110300000Y-145200000D01*
X110300000Y-145200000D02*
X108700000Y-145200000D01*
X111099999Y-147010000D02*
X116000000Y-147010000D01*
X112200000Y-142000000D02*
X112200000Y-147010000D01*
X112700000Y-142000000D02*
X112200000Y-142000000D01*
X112700000Y-145410000D02*
X112700000Y-142000000D01*
X113800000Y-142000000D02*
X113800000Y-145410000D01*
X113800000Y-145410000D02*
X112700000Y-145410000D01*
X114100000Y-138400000D02*
X114900000Y-138400000D01*
X114500000Y-138800000D02*
X114100000Y-138400000D01*
X114900000Y-138400000D02*
X114500000Y-138800000D01*
X115890000Y-136490000D02*
X115890000Y-139389999D01*
X115890000Y-139389999D02*
X115610000Y-139389999D01*
X116000000Y-147010000D02*
X116000000Y-149310000D01*
X117110000Y-136490000D02*
X115890000Y-136490000D01*
X117110000Y-142000000D02*
X113800000Y-142000000D01*
X117110000Y-149310000D02*
X117110000Y-136490000D01*
%TO.C,J501*%
X141640000Y-87590000D02*
X141640000Y-100410000D01*
X141640000Y-94900000D02*
X142750000Y-94900000D01*
X141640000Y-100410000D02*
X142860000Y-100410000D01*
X142750000Y-89890000D02*
X142750000Y-87590000D01*
X142750000Y-91490000D02*
X143850000Y-91490000D01*
X142750000Y-94900000D02*
X142750000Y-91490000D01*
X142860000Y-97510001D02*
X143140000Y-97510001D01*
X142860000Y-100410000D02*
X142860000Y-97510001D01*
X143850000Y-91490000D02*
X143850000Y-94900000D01*
X143850000Y-94900000D02*
X144350000Y-94900000D01*
X143850000Y-98500000D02*
X144250000Y-98100000D01*
X144250000Y-98100000D02*
X144650000Y-98500000D01*
X144350000Y-94900000D02*
X144350000Y-89890000D01*
X144650000Y-98500000D02*
X143850000Y-98500000D01*
X145150001Y-89890000D02*
X142750000Y-89890000D01*
X145950000Y-91700000D02*
X147550000Y-91700000D01*
X145950000Y-93499999D02*
X145950000Y-91700000D01*
X147549999Y-93500000D02*
X145950000Y-93499999D01*
X147550000Y-91700000D02*
X147549999Y-93500000D01*
X149150000Y-94900000D02*
X149150000Y-89890000D01*
X149650000Y-91490000D02*
X149650000Y-94900000D01*
X149650000Y-94900000D02*
X149150000Y-94900000D01*
X150360000Y-97510001D02*
X150640000Y-97510000D01*
X150640000Y-97510000D02*
X150640000Y-100410000D01*
X150640000Y-100410000D02*
X151860000Y-100410000D01*
X150750000Y-87590000D02*
X150750001Y-89890000D01*
X150750000Y-91490000D02*
X149650000Y-91490000D01*
X150750001Y-89890000D02*
X148350000Y-89890000D01*
X150750001Y-94900000D02*
X150750000Y-91490000D01*
X151860000Y-87589999D02*
X141640000Y-87590000D01*
X151860000Y-94900000D02*
X150750001Y-94900000D01*
X151860000Y-100410000D02*
X151860000Y-87589999D01*
D13*
%TO.C,kibuzzard-66C9E07F*%
G36*
X167134733Y-137795800D02*
G01*
X167169628Y-137800646D01*
X167169628Y-138607108D01*
X167148304Y-138609047D01*
X167126979Y-138609047D01*
X166990307Y-138578029D01*
X166901131Y-138492729D01*
X166852666Y-138363813D01*
X166841762Y-138285541D01*
X166838126Y-138200000D01*
X166849758Y-138048788D01*
X166890468Y-137918901D01*
X166969951Y-137828756D01*
X167099839Y-137794830D01*
X167134733Y-137795800D01*
G37*
G36*
X169871286Y-137427414D02*
G01*
X170019057Y-137472240D01*
X170155244Y-137545033D01*
X170274613Y-137642996D01*
X170372576Y-137762365D01*
X170445369Y-137898552D01*
X170490196Y-138046323D01*
X170505331Y-138200000D01*
X170490196Y-138353677D01*
X170445369Y-138501448D01*
X170372576Y-138637635D01*
X170274613Y-138757004D01*
X170155244Y-138854967D01*
X170019057Y-138927760D01*
X169871286Y-138972586D01*
X169717609Y-138987722D01*
X169313732Y-138987722D01*
X168559612Y-138987722D01*
X168359935Y-138987722D01*
X167152181Y-138987722D01*
X166093699Y-138987722D01*
X164951857Y-138987722D01*
X164686268Y-138987722D01*
X164282391Y-138987722D01*
X164128714Y-138972586D01*
X163980943Y-138927760D01*
X163844756Y-138854967D01*
X163725387Y-138757004D01*
X163627424Y-138637635D01*
X163554631Y-138501448D01*
X163546105Y-138473343D01*
X165651696Y-138473343D01*
X165679079Y-138622859D01*
X165761227Y-138734087D01*
X165846850Y-138785245D01*
X165957674Y-138815940D01*
X166093699Y-138826171D01*
X166227948Y-138818174D01*
X166332149Y-138794185D01*
X166465913Y-138735057D01*
X166396123Y-138541195D01*
X166271082Y-138599354D01*
X166190388Y-138619709D01*
X166093699Y-138626494D01*
X165993861Y-138613893D01*
X165930856Y-138578998D01*
X165898869Y-138528595D01*
X165890145Y-138471405D01*
X165911471Y-138405493D01*
X165965751Y-138354120D01*
X166039418Y-138313409D01*
X166120840Y-138279483D01*
X166233279Y-138234895D01*
X166290909Y-138200000D01*
X166595799Y-138200000D01*
X166606220Y-138354362D01*
X166637480Y-138484006D01*
X166687158Y-138590388D01*
X166752827Y-138674960D01*
X166833522Y-138738691D01*
X166928271Y-138782553D01*
X167035137Y-138807997D01*
X167152181Y-138816478D01*
X167277221Y-138809693D01*
X167408077Y-138787399D01*
X167408077Y-138603230D01*
X167590307Y-138603230D01*
X167590307Y-138800969D01*
X168359935Y-138800969D01*
X168359935Y-138603231D01*
X168559612Y-138603231D01*
X168559612Y-138800969D01*
X169313732Y-138800969D01*
X169313732Y-137600970D01*
X169073344Y-137600970D01*
X169073344Y-138603231D01*
X168559612Y-138603231D01*
X168359935Y-138603231D01*
X168359935Y-137600969D01*
X167632956Y-137600970D01*
X167632956Y-137798708D01*
X168121486Y-137798708D01*
X168121485Y-138068174D01*
X167696930Y-138068174D01*
X167696929Y-138265913D01*
X168121486Y-138265913D01*
X168121486Y-138603231D01*
X167590307Y-138603230D01*
X167408077Y-138603230D01*
X167408077Y-137616479D01*
X167254927Y-137593215D01*
X167121163Y-137587399D01*
X167007997Y-137596123D01*
X166905008Y-137622294D01*
X166814620Y-137667124D01*
X166739257Y-137731826D01*
X166678918Y-137816640D01*
X166633603Y-137921809D01*
X166605250Y-138049031D01*
X166595799Y-138200000D01*
X166290909Y-138200000D01*
X166338934Y-138170921D01*
X166417447Y-138074960D01*
X166448465Y-137932472D01*
X166421082Y-137782229D01*
X166338934Y-137668821D01*
X166256758Y-137616046D01*
X166156275Y-137584383D01*
X166037480Y-137573829D01*
X165934005Y-137580129D01*
X165844588Y-137599031D01*
X165705977Y-137655250D01*
X165775768Y-137839418D01*
X165883360Y-137792892D01*
X166020032Y-137773506D01*
X166125579Y-137788799D01*
X166188907Y-137834680D01*
X166210016Y-137911147D01*
X166190630Y-137972213D01*
X166141195Y-138018740D01*
X166073344Y-138054604D01*
X165998708Y-138083683D01*
X165881422Y-138131179D01*
X165768982Y-138200969D01*
X165684653Y-138309532D01*
X165659935Y-138382955D01*
X165651696Y-138473343D01*
X163546105Y-138473343D01*
X163509804Y-138353677D01*
X163494669Y-138200000D01*
X163509804Y-138046323D01*
X163531403Y-137975121D01*
X164686268Y-137975121D01*
X164744426Y-137992569D01*
X164800645Y-138004200D01*
X164868498Y-138010985D01*
X164937318Y-138013893D01*
X164996446Y-138013893D01*
X164947981Y-138047819D01*
X164893699Y-138090468D01*
X164843296Y-138136027D01*
X164806461Y-138178675D01*
X164769628Y-138227141D01*
X164951858Y-138358966D01*
X164986752Y-138310501D01*
X165014863Y-138262036D01*
X165042972Y-138199031D01*
X165067205Y-138133118D01*
X165085622Y-138075929D01*
X165103069Y-138132149D01*
X165127302Y-138198060D01*
X165154443Y-138260097D01*
X165182552Y-138308562D01*
X165219386Y-138357027D01*
X165401616Y-138227141D01*
X165364782Y-138178675D01*
X165326979Y-138136026D01*
X165276575Y-138089498D01*
X165223263Y-138045880D01*
X165176736Y-138011955D01*
X165235864Y-138011956D01*
X165304685Y-138009047D01*
X165372536Y-138000323D01*
X165426817Y-137986753D01*
X165484976Y-137967367D01*
X165413247Y-137756058D01*
X165355089Y-137773506D01*
X165304685Y-137797738D01*
X165246527Y-137833603D01*
X165189338Y-137872376D01*
X165141842Y-137907271D01*
X165159289Y-137852019D01*
X165177706Y-137785137D01*
X165192246Y-137717286D01*
X165198061Y-137661066D01*
X165198061Y-137600969D01*
X164973183Y-137600969D01*
X164973183Y-137661066D01*
X164978998Y-137717286D01*
X164993539Y-137785137D01*
X165012924Y-137852019D01*
X165031341Y-137907271D01*
X164982875Y-137874313D01*
X164923749Y-137836511D01*
X164864620Y-137802585D01*
X164812278Y-137779321D01*
X164756057Y-137759935D01*
X164686268Y-137975121D01*
X163531403Y-137975121D01*
X163554631Y-137898552D01*
X163627424Y-137762365D01*
X163725387Y-137642996D01*
X163844756Y-137545033D01*
X163980943Y-137472240D01*
X164128714Y-137427414D01*
X164282391Y-137412278D01*
X164686268Y-137412278D01*
X169313732Y-137412278D01*
X169717609Y-137412278D01*
X169871286Y-137427414D01*
G37*
D12*
%TO.C,SW702*%
X120265000Y-125515000D02*
X134235000Y-125515000D01*
X120265000Y-139485000D02*
X120265000Y-125515000D01*
X134235000Y-125515000D02*
X134235000Y-139485000D01*
X134235000Y-139485000D02*
X120265000Y-139485000D01*
%TO.C,SW701*%
X120265000Y-100515000D02*
X134235000Y-100515000D01*
X120265000Y-114485000D02*
X120265000Y-100515000D01*
X134235000Y-100515000D02*
X134235000Y-114485000D01*
X134235000Y-114485000D02*
X120265000Y-114485000D01*
D13*
%TO.C,kibuzzard-66C9DFEC*%
G36*
X135434249Y-132494346D02*
G01*
X135422375Y-132599515D01*
X135386753Y-132670759D01*
X135252019Y-132725040D01*
X135169628Y-132710501D01*
X135112439Y-132666882D01*
X135078998Y-132599515D01*
X135067851Y-132513732D01*
X135068821Y-132480775D01*
X135073667Y-132442003D01*
X135434249Y-132442003D01*
X135434249Y-132494346D01*
G37*
G36*
X136915347Y-132538934D02*
G01*
X136903958Y-132639256D01*
X136869790Y-132711470D01*
X136807997Y-132755089D01*
X136713731Y-132769628D01*
X136624313Y-132755331D01*
X136565428Y-132712439D01*
X136532714Y-132645800D01*
X136521809Y-132560258D01*
X136522779Y-132501131D01*
X136527625Y-132442003D01*
X136915347Y-132442003D01*
X136915347Y-132538934D01*
G37*
G36*
X137714701Y-131610339D02*
G01*
X137714701Y-132442003D01*
X137714701Y-133046850D01*
X137714701Y-133548950D01*
X137714701Y-134962197D01*
X137714701Y-135366074D01*
X137707407Y-135514541D01*
X137685597Y-135661578D01*
X137649478Y-135805769D01*
X137599401Y-135945725D01*
X137535847Y-136080099D01*
X137459428Y-136207597D01*
X137370880Y-136326991D01*
X137271055Y-136437130D01*
X137160916Y-136536954D01*
X137041523Y-136625502D01*
X136914025Y-136701921D01*
X136779651Y-136765476D01*
X136639695Y-136815553D01*
X136495503Y-136851671D01*
X136348467Y-136873482D01*
X136200000Y-136880775D01*
X136051533Y-136873482D01*
X135904497Y-136851671D01*
X135760305Y-136815553D01*
X135620349Y-136765476D01*
X135485975Y-136701921D01*
X135358477Y-136625502D01*
X135239084Y-136536954D01*
X135128945Y-136437130D01*
X135029120Y-136326991D01*
X134940572Y-136207597D01*
X134864153Y-136080099D01*
X134800599Y-135945725D01*
X134750522Y-135805769D01*
X134714403Y-135661578D01*
X134692593Y-135514541D01*
X134685299Y-135366074D01*
X134685299Y-134962197D01*
X134685299Y-134151858D01*
X134873990Y-134151858D01*
X134873990Y-134349596D01*
X134978675Y-134383522D01*
X135116317Y-134427141D01*
X135265590Y-134473667D01*
X135405170Y-134518255D01*
X135256866Y-134566721D01*
X135109532Y-134615186D01*
X134976737Y-134657836D01*
X134873990Y-134692730D01*
X134873990Y-134890468D01*
X135029079Y-134903796D01*
X135180291Y-134916640D01*
X135328837Y-134928271D01*
X135475929Y-134937964D01*
X135622779Y-134945961D01*
X135770597Y-134952504D01*
X135920598Y-134957835D01*
X136073990Y-134962197D01*
X136073990Y-134743134D01*
X135141519Y-134754766D01*
X135649435Y-134607431D01*
X135649435Y-134432956D01*
X135141519Y-134291438D01*
X136073990Y-134301131D01*
X136073990Y-134082068D01*
X135923748Y-134088126D01*
X135767690Y-134094669D01*
X135609208Y-134101695D01*
X135451696Y-134109208D01*
X135297093Y-134117690D01*
X135147334Y-134127625D01*
X135005331Y-134139014D01*
X134873990Y-134151858D01*
X134685299Y-134151858D01*
X134685299Y-133143780D01*
X134873990Y-133143780D01*
X134873990Y-133384168D01*
X135624233Y-133384168D01*
X135751212Y-133391921D01*
X135833603Y-133418094D01*
X135878191Y-133469467D01*
X135891762Y-133552827D01*
X135878191Y-133636187D01*
X135832633Y-133688530D01*
X135749273Y-133715670D01*
X135622294Y-133723425D01*
X134873990Y-133723425D01*
X134873990Y-133961874D01*
X135639742Y-133961874D01*
X135739580Y-133957027D01*
X135829725Y-133942487D01*
X135908724Y-133915832D01*
X135975121Y-133874637D01*
X136028191Y-133818417D01*
X136067205Y-133746688D01*
X136091195Y-133657512D01*
X136099192Y-133548950D01*
X136091195Y-133442084D01*
X136067205Y-133354120D01*
X135975122Y-133229079D01*
X135908724Y-133189338D01*
X135829726Y-133163166D01*
X135739580Y-133148627D01*
X135639742Y-133143780D01*
X134873990Y-133143780D01*
X134685299Y-133143780D01*
X134685299Y-132513732D01*
X134860420Y-132513732D01*
X134866235Y-132611632D01*
X134883683Y-132699838D01*
X134913247Y-132777383D01*
X134955412Y-132843296D01*
X135078514Y-132935380D01*
X135159693Y-132959370D01*
X135253958Y-132967367D01*
X135353796Y-132956704D01*
X135443942Y-132924717D01*
X135519063Y-132868013D01*
X135573829Y-132783199D01*
X135685299Y-132852989D01*
X135813247Y-132924717D01*
X135947011Y-132991599D01*
X136073990Y-133046850D01*
X136073990Y-132796769D01*
X135959855Y-132748546D01*
X135850080Y-132693053D01*
X135741761Y-132631745D01*
X135631987Y-132566074D01*
X135631987Y-132533118D01*
X136314378Y-132533118D01*
X136324825Y-132674206D01*
X136356167Y-132792461D01*
X136408401Y-132887884D01*
X136484330Y-132957889D01*
X136586753Y-132999892D01*
X136715670Y-133013893D01*
X136845880Y-132999785D01*
X136949595Y-132957458D01*
X137026817Y-132886914D01*
X137080129Y-132790522D01*
X137112116Y-132670652D01*
X137122779Y-132527302D01*
X137122779Y-132442003D01*
X137527948Y-132442003D01*
X137527948Y-132203554D01*
X136343457Y-132203554D01*
X136329887Y-132282068D01*
X136321163Y-132370275D01*
X136316317Y-132457512D01*
X136314378Y-132533118D01*
X135631987Y-132533118D01*
X135631987Y-132442003D01*
X136073990Y-132442003D01*
X136073990Y-132203554D01*
X134891438Y-132203554D01*
X134876899Y-132280129D01*
X134867205Y-132364459D01*
X134862359Y-132445880D01*
X134860420Y-132513732D01*
X134685299Y-132513732D01*
X134685299Y-131178029D01*
X134873990Y-131178029D01*
X134873990Y-132050404D01*
X135071729Y-132050404D01*
X135071728Y-131784814D01*
X136327947Y-131784814D01*
X136327948Y-132023262D01*
X137093700Y-132023263D01*
X137193538Y-132018417D01*
X137283683Y-132003877D01*
X137362682Y-131977221D01*
X137429080Y-131936026D01*
X137482149Y-131879806D01*
X137521163Y-131808078D01*
X137545153Y-131718901D01*
X137553151Y-131610339D01*
X137545153Y-131503473D01*
X137521163Y-131415509D01*
X137429079Y-131290468D01*
X137362682Y-131250727D01*
X137283683Y-131224556D01*
X137193538Y-131210015D01*
X137093700Y-131205170D01*
X136327948Y-131205170D01*
X136327947Y-131445557D01*
X137078191Y-131445557D01*
X137205170Y-131453313D01*
X137287561Y-131479483D01*
X137332149Y-131530856D01*
X137345719Y-131614216D01*
X137332149Y-131697577D01*
X137300091Y-131734410D01*
X137286591Y-131749919D01*
X137203231Y-131777060D01*
X137076252Y-131784814D01*
X136327947Y-131784814D01*
X135071728Y-131784814D01*
X135071728Y-131734410D01*
X136073990Y-131734410D01*
X136073990Y-131494023D01*
X135071729Y-131494023D01*
X135071729Y-131178029D01*
X134873990Y-131178029D01*
X134685299Y-131178029D01*
X134685299Y-130666236D01*
X134846850Y-130666236D01*
X134853150Y-130769709D01*
X134872052Y-130859129D01*
X134928271Y-130997738D01*
X135112439Y-130927948D01*
X135065912Y-130820355D01*
X135046527Y-130683683D01*
X135061820Y-130578137D01*
X135107701Y-130514809D01*
X135184168Y-130493700D01*
X135245234Y-130513085D01*
X135291761Y-130562520D01*
X135327625Y-130630372D01*
X135356704Y-130705008D01*
X135404199Y-130822294D01*
X135473990Y-130934733D01*
X135582553Y-131019063D01*
X135655977Y-131043780D01*
X135746365Y-131052020D01*
X135895880Y-131024637D01*
X136007108Y-130942488D01*
X136058266Y-130856866D01*
X136088961Y-130746042D01*
X136099192Y-130610016D01*
X136091195Y-130475767D01*
X136067205Y-130371567D01*
X136008078Y-130237803D01*
X135814216Y-130307593D01*
X135872375Y-130432633D01*
X135892730Y-130513328D01*
X135899515Y-130610016D01*
X135886914Y-130709855D01*
X135852019Y-130772859D01*
X135801616Y-130804847D01*
X135744426Y-130813570D01*
X135678514Y-130792246D01*
X135627141Y-130737964D01*
X135586430Y-130664297D01*
X135552504Y-130582876D01*
X135507916Y-130470436D01*
X135443942Y-130364782D01*
X135347981Y-130286268D01*
X135205493Y-130255250D01*
X135055250Y-130282634D01*
X134941842Y-130364782D01*
X134889068Y-130446957D01*
X134857404Y-130547442D01*
X134846850Y-130666236D01*
X134685299Y-130666236D01*
X134685299Y-130237803D01*
X134685299Y-129833926D01*
X134692593Y-129685459D01*
X134714403Y-129538422D01*
X134750522Y-129394231D01*
X134800599Y-129254275D01*
X134864153Y-129119901D01*
X134940572Y-128992403D01*
X135029120Y-128873009D01*
X135128945Y-128762870D01*
X135239084Y-128663046D01*
X135358477Y-128574498D01*
X135485975Y-128498079D01*
X135620349Y-128434524D01*
X135760305Y-128384447D01*
X135904497Y-128348329D01*
X136051533Y-128326518D01*
X136200000Y-128319225D01*
X136348467Y-128326518D01*
X136495503Y-128348329D01*
X136639695Y-128384447D01*
X136779651Y-128434524D01*
X136914025Y-128498079D01*
X137041523Y-128574498D01*
X137160916Y-128663046D01*
X137271055Y-128762870D01*
X137370880Y-128873009D01*
X137459428Y-128992403D01*
X137535847Y-129119901D01*
X137599401Y-129254275D01*
X137649478Y-129394231D01*
X137685597Y-129538422D01*
X137707407Y-129685459D01*
X137714701Y-129833926D01*
X137714701Y-130237803D01*
X137714701Y-130610016D01*
X137714701Y-131610339D01*
G37*
%TO.C,kibuzzard-66C9E0B9*%
G36*
X110607108Y-130479160D02*
G01*
X110638126Y-130599354D01*
X110665267Y-130718577D01*
X110689500Y-130842649D01*
X110454927Y-130842649D01*
X110478191Y-130718578D01*
X110504362Y-130599354D01*
X110535380Y-130479159D01*
X110571244Y-130350242D01*
X110607108Y-130479160D01*
G37*
G36*
X113318902Y-129800969D02*
G01*
X113416824Y-129805780D01*
X113513804Y-129820165D01*
X113608905Y-129843987D01*
X113701214Y-129877016D01*
X113789841Y-129918934D01*
X113873933Y-129969336D01*
X113952681Y-130027739D01*
X114025323Y-130093579D01*
X114091163Y-130166222D01*
X114149565Y-130244968D01*
X114199968Y-130329061D01*
X114241885Y-130417688D01*
X114274913Y-130509997D01*
X114298736Y-130605099D01*
X114313122Y-130702078D01*
X114317932Y-130800000D01*
X114313122Y-130897922D01*
X114298736Y-130994901D01*
X114274913Y-131090003D01*
X114241885Y-131182312D01*
X114199968Y-131270939D01*
X114149565Y-131355032D01*
X114091163Y-131433778D01*
X114025323Y-131506421D01*
X113952681Y-131572261D01*
X113873933Y-131630664D01*
X113789841Y-131681066D01*
X113701214Y-131722984D01*
X113608905Y-131756013D01*
X113513804Y-131779835D01*
X113416824Y-131794220D01*
X113318902Y-131799031D01*
X112915024Y-131799032D01*
X112542811Y-131799031D01*
X111418417Y-131799032D01*
X110357997Y-131799031D01*
X109745396Y-131799031D01*
X108665590Y-131799031D01*
X108023910Y-131799032D01*
X106284976Y-131799032D01*
X105881098Y-131799031D01*
X105783176Y-131794220D01*
X105686196Y-131779835D01*
X105591095Y-131756013D01*
X105498786Y-131722984D01*
X105410159Y-131681066D01*
X105326067Y-131630664D01*
X105247319Y-131572261D01*
X105174677Y-131506421D01*
X105108837Y-131433778D01*
X105050435Y-131355032D01*
X105000032Y-131270939D01*
X104958115Y-131182312D01*
X104935774Y-131119871D01*
X106284976Y-131119871D01*
X106284976Y-131317609D01*
X107039095Y-131317609D01*
X107039095Y-131119871D01*
X107254281Y-131119871D01*
X107254281Y-131317609D01*
X108023910Y-131317609D01*
X108023910Y-130989984D01*
X108223586Y-130989984D01*
X108250969Y-131139499D01*
X108333118Y-131250727D01*
X108418740Y-131301885D01*
X108529564Y-131332579D01*
X108665590Y-131342811D01*
X108799838Y-131334815D01*
X108904039Y-131310824D01*
X109037803Y-131251696D01*
X108968013Y-131057835D01*
X108842974Y-131115994D01*
X108762278Y-131136349D01*
X108665590Y-131143134D01*
X108565751Y-131130534D01*
X108502746Y-131095638D01*
X108470759Y-131045235D01*
X108462036Y-130988045D01*
X108483360Y-130922132D01*
X108537641Y-130870759D01*
X108611309Y-130830048D01*
X108692730Y-130796123D01*
X108805170Y-130751535D01*
X108910824Y-130687562D01*
X108989338Y-130591599D01*
X109020355Y-130449111D01*
X108992973Y-130298869D01*
X108910824Y-130185461D01*
X108828648Y-130132687D01*
X108728164Y-130101023D01*
X108609370Y-130090468D01*
X108505897Y-130096769D01*
X108416478Y-130115670D01*
X108277868Y-130171890D01*
X108347658Y-130356058D01*
X108455250Y-130309532D01*
X108591922Y-130290145D01*
X108697469Y-130305439D01*
X108760796Y-130351319D01*
X108781906Y-130427787D01*
X108762520Y-130488853D01*
X108713086Y-130535379D01*
X108645234Y-130571245D01*
X108570598Y-130600323D01*
X108453312Y-130647819D01*
X108340872Y-130717609D01*
X108256543Y-130826171D01*
X108231826Y-130899596D01*
X108223586Y-130989984D01*
X108023910Y-130989984D01*
X108023910Y-130117609D01*
X107296931Y-130117609D01*
X107296931Y-130315347D01*
X107785460Y-130315347D01*
X107785460Y-130584814D01*
X107360905Y-130584814D01*
X107360905Y-130782553D01*
X107785460Y-130782554D01*
X107785460Y-131119870D01*
X107254281Y-131119871D01*
X107039095Y-131119871D01*
X107039095Y-130117609D01*
X106798708Y-130117609D01*
X106798707Y-131119871D01*
X106284976Y-131119871D01*
X104935774Y-131119871D01*
X104925087Y-131090003D01*
X104901264Y-130994901D01*
X104886878Y-130897922D01*
X104882068Y-130800000D01*
X104886878Y-130702078D01*
X104901264Y-130605099D01*
X104925087Y-130509997D01*
X104958115Y-130417688D01*
X105000032Y-130329061D01*
X105050435Y-130244968D01*
X105108837Y-130166222D01*
X105174677Y-130093579D01*
X105247319Y-130027739D01*
X105326067Y-129969336D01*
X105337439Y-129962520D01*
X109206462Y-129962520D01*
X109745396Y-131637480D01*
X109993538Y-131637480D01*
X109889876Y-131317609D01*
X110102100Y-131317609D01*
X110357997Y-131317609D01*
X110414216Y-131040388D01*
X110734088Y-131040388D01*
X110788368Y-131317609D01*
X111036511Y-131317609D01*
X111002313Y-131178223D01*
X110967961Y-131043878D01*
X110933454Y-130914572D01*
X110898793Y-130790307D01*
X110863974Y-130671082D01*
X110820719Y-130527080D01*
X110778191Y-130386834D01*
X110756297Y-130315347D01*
X111102423Y-130315347D01*
X111418417Y-130315348D01*
X111418417Y-131317609D01*
X111658805Y-131317609D01*
X111658805Y-130989984D01*
X112100808Y-130989984D01*
X112128191Y-131139499D01*
X112210339Y-131250728D01*
X112295961Y-131301885D01*
X112406785Y-131332579D01*
X112542811Y-131342811D01*
X112677060Y-131334815D01*
X112781260Y-131310825D01*
X112915024Y-131251696D01*
X112845234Y-131057835D01*
X112720194Y-131115994D01*
X112639499Y-131136349D01*
X112542811Y-131143134D01*
X112442973Y-131130534D01*
X112379968Y-131095638D01*
X112347981Y-131045235D01*
X112339257Y-130988045D01*
X112360582Y-130922132D01*
X112414863Y-130870759D01*
X112488530Y-130830048D01*
X112569952Y-130796123D01*
X112682392Y-130751535D01*
X112788045Y-130687561D01*
X112866559Y-130591599D01*
X112897577Y-130449111D01*
X112870194Y-130298869D01*
X112788045Y-130185460D01*
X112705870Y-130132687D01*
X112605385Y-130101024D01*
X112486591Y-130090468D01*
X112383118Y-130096769D01*
X112293700Y-130115670D01*
X112155089Y-130171890D01*
X112224879Y-130356058D01*
X112332472Y-130309532D01*
X112469144Y-130290145D01*
X112574690Y-130305439D01*
X112638019Y-130351319D01*
X112659128Y-130427787D01*
X112639742Y-130488853D01*
X112590307Y-130535380D01*
X112522456Y-130571245D01*
X112447819Y-130600323D01*
X112330533Y-130647819D01*
X112218094Y-130717609D01*
X112133764Y-130826171D01*
X112109047Y-130899596D01*
X112100808Y-130989984D01*
X111658805Y-130989984D01*
X111658805Y-130315348D01*
X111974798Y-130315347D01*
X111974798Y-130117609D01*
X111102423Y-130117609D01*
X111102423Y-130315347D01*
X110756297Y-130315347D01*
X110736389Y-130250343D01*
X110695315Y-130117609D01*
X110435541Y-130117609D01*
X110392952Y-130251434D01*
X110350485Y-130389257D01*
X110308138Y-130531078D01*
X110265913Y-130676898D01*
X110232375Y-130797131D01*
X110199225Y-130921318D01*
X110166462Y-131049460D01*
X110134087Y-131181557D01*
X110102100Y-131317609D01*
X109889876Y-131317609D01*
X109450727Y-129962520D01*
X109206462Y-129962520D01*
X105337439Y-129962520D01*
X105410159Y-129918934D01*
X105498786Y-129877016D01*
X105591095Y-129843987D01*
X105686196Y-129820165D01*
X105783176Y-129805780D01*
X105881098Y-129800969D01*
X106284976Y-129800968D01*
X112915024Y-129800968D01*
X113318902Y-129800969D01*
G37*
%TO.C,kibuzzard-66C9E01B*%
G36*
X135234249Y-107494346D02*
G01*
X135222375Y-107599515D01*
X135186753Y-107670759D01*
X135052019Y-107725040D01*
X134969628Y-107710501D01*
X134912439Y-107666882D01*
X134878998Y-107599515D01*
X134867851Y-107513732D01*
X134868821Y-107480775D01*
X134873667Y-107442003D01*
X135234249Y-107442003D01*
X135234249Y-107494346D01*
G37*
G36*
X137136026Y-105524717D02*
G01*
X137136026Y-105546042D01*
X137105008Y-105682714D01*
X137019709Y-105771890D01*
X136890792Y-105820355D01*
X136812519Y-105831260D01*
X136726979Y-105834895D01*
X136575767Y-105823263D01*
X136445880Y-105782553D01*
X136355735Y-105703069D01*
X136321809Y-105573183D01*
X136322779Y-105538288D01*
X136327625Y-105503393D01*
X137134088Y-105503393D01*
X137136026Y-105524717D01*
G37*
G36*
X136811551Y-106425929D02*
G01*
X136890792Y-106431018D01*
X137023586Y-106458158D01*
X137112763Y-106515347D01*
X137145719Y-106614216D01*
X137112763Y-106712116D01*
X137022617Y-106770275D01*
X136889822Y-106797415D01*
X136811309Y-106802504D01*
X136726979Y-106804200D01*
X136642407Y-106802504D01*
X136563166Y-106797415D01*
X136430372Y-106770275D01*
X136341195Y-106713086D01*
X136308238Y-106614216D01*
X136341195Y-106515347D01*
X136431341Y-106458158D01*
X136564135Y-106431018D01*
X136642649Y-106425929D01*
X136726979Y-106424233D01*
X136811551Y-106425929D01*
G37*
G36*
X137514701Y-107955735D02*
G01*
X137514701Y-108046850D01*
X137514701Y-108756381D01*
X137514701Y-109962197D01*
X137514701Y-110366074D01*
X137507407Y-110514541D01*
X137485597Y-110661578D01*
X137449478Y-110805769D01*
X137399401Y-110945725D01*
X137335847Y-111080099D01*
X137259428Y-111207597D01*
X137170880Y-111326991D01*
X137071055Y-111437130D01*
X136960916Y-111536954D01*
X136841523Y-111625502D01*
X136714025Y-111701921D01*
X136579651Y-111765476D01*
X136439695Y-111815553D01*
X136295503Y-111851671D01*
X136148467Y-111873482D01*
X136000000Y-111880775D01*
X135851533Y-111873482D01*
X135704497Y-111851671D01*
X135560305Y-111815553D01*
X135420349Y-111765476D01*
X135285975Y-111701921D01*
X135158477Y-111625502D01*
X135039084Y-111536954D01*
X134928945Y-111437130D01*
X134829120Y-111326991D01*
X134740572Y-111207597D01*
X134664153Y-111080099D01*
X134600599Y-110945725D01*
X134550522Y-110805769D01*
X134514403Y-110661578D01*
X134492593Y-110514541D01*
X134485299Y-110366074D01*
X134485299Y-109962197D01*
X134485299Y-109151858D01*
X134673990Y-109151858D01*
X134673990Y-109349596D01*
X134778675Y-109383522D01*
X134916317Y-109427141D01*
X135065590Y-109473667D01*
X135205170Y-109518255D01*
X135056866Y-109566721D01*
X134909532Y-109615186D01*
X134776737Y-109657836D01*
X134673990Y-109692730D01*
X134673990Y-109890468D01*
X134829079Y-109903796D01*
X134980291Y-109916640D01*
X135128837Y-109928271D01*
X135275929Y-109937964D01*
X135422779Y-109945961D01*
X135570597Y-109952504D01*
X135720598Y-109957835D01*
X135873990Y-109962197D01*
X135873990Y-109743134D01*
X134941519Y-109754766D01*
X135449435Y-109607431D01*
X135449435Y-109432956D01*
X134941519Y-109291438D01*
X135873990Y-109301131D01*
X135873990Y-109082068D01*
X135723748Y-109088126D01*
X135567690Y-109094669D01*
X135409208Y-109101695D01*
X135251696Y-109109208D01*
X135097093Y-109117690D01*
X134947334Y-109127625D01*
X134805331Y-109139014D01*
X134673990Y-109151858D01*
X134485299Y-109151858D01*
X134485299Y-108143780D01*
X134673990Y-108143780D01*
X134673990Y-108384168D01*
X135424233Y-108384168D01*
X135551212Y-108391921D01*
X135633603Y-108418094D01*
X135678191Y-108469467D01*
X135691762Y-108552827D01*
X135678191Y-108636187D01*
X135632633Y-108688530D01*
X135549273Y-108715670D01*
X135422294Y-108723425D01*
X134673990Y-108723425D01*
X134673990Y-108961874D01*
X135439742Y-108961874D01*
X135539580Y-108957027D01*
X135629725Y-108942487D01*
X135708724Y-108915832D01*
X135775121Y-108874637D01*
X135828191Y-108818417D01*
X135867205Y-108746688D01*
X135870856Y-108733118D01*
X136127947Y-108733118D01*
X136127948Y-108948304D01*
X137327948Y-108948304D01*
X137327948Y-108756381D01*
X137194938Y-108700485D01*
X137062143Y-108641357D01*
X136929564Y-108578998D01*
X136796984Y-108513409D01*
X136664190Y-108444588D01*
X136531179Y-108372536D01*
X137327948Y-108372535D01*
X137327948Y-108157351D01*
X136127948Y-108157351D01*
X136127948Y-108349273D01*
X136216882Y-108403554D01*
X136313086Y-108457835D01*
X136412682Y-108511389D01*
X136484133Y-108548950D01*
X136511793Y-108563489D01*
X136609209Y-108612924D01*
X136703715Y-108658481D01*
X136790953Y-108698950D01*
X136866559Y-108733118D01*
X136127947Y-108733118D01*
X135870856Y-108733118D01*
X135891195Y-108657512D01*
X135899192Y-108548950D01*
X135891195Y-108442084D01*
X135867205Y-108354120D01*
X135775122Y-108229079D01*
X135708724Y-108189338D01*
X135629726Y-108163166D01*
X135539580Y-108148627D01*
X135439742Y-108143780D01*
X134673990Y-108143780D01*
X134485299Y-108143780D01*
X134485299Y-107513732D01*
X134660420Y-107513732D01*
X134666235Y-107611632D01*
X134683683Y-107699838D01*
X134713247Y-107777383D01*
X134755412Y-107843296D01*
X134878514Y-107935380D01*
X134959693Y-107959370D01*
X135053958Y-107967367D01*
X135153796Y-107956704D01*
X135243942Y-107924717D01*
X135319063Y-107868013D01*
X135373829Y-107783199D01*
X135485299Y-107852989D01*
X135613247Y-107924717D01*
X135747011Y-107991599D01*
X135873990Y-108046850D01*
X135873990Y-108023586D01*
X136127947Y-108023586D01*
X136277464Y-108017771D01*
X136431341Y-108011955D01*
X136586914Y-108005654D01*
X136741519Y-107998384D01*
X136894426Y-107989903D01*
X137044911Y-107979968D01*
X137190307Y-107968578D01*
X137327948Y-107955736D01*
X137327948Y-107757997D01*
X137201212Y-107715347D01*
X137065267Y-107672698D01*
X136927868Y-107630048D01*
X136796769Y-107587399D01*
X136924233Y-107543780D01*
X137062359Y-107498223D01*
X137200485Y-107453635D01*
X137327948Y-107412924D01*
X137327948Y-107215185D01*
X137190065Y-107200646D01*
X137043942Y-107188045D01*
X136892730Y-107177141D01*
X136739580Y-107167690D01*
X136584976Y-107159692D01*
X136429402Y-107153150D01*
X136276010Y-107147819D01*
X136127948Y-107143457D01*
X136127948Y-107364458D01*
X136244265Y-107362520D01*
X136364459Y-107360581D01*
X136486349Y-107358643D01*
X136607754Y-107356704D01*
X136727464Y-107354766D01*
X136844265Y-107352827D01*
X136955977Y-107351373D01*
X137060420Y-107350889D01*
X136924717Y-107390630D01*
X136779321Y-107433279D01*
X136647496Y-107471082D01*
X136552504Y-107498223D01*
X136552504Y-107672698D01*
X136643619Y-107695961D01*
X136763813Y-107729887D01*
X136905331Y-107770598D01*
X137060420Y-107814216D01*
X136955977Y-107813732D01*
X136844265Y-107812278D01*
X136727706Y-107810339D01*
X136608724Y-107808401D01*
X136487803Y-107806462D01*
X136365428Y-107804523D01*
X136244507Y-107803069D01*
X136127948Y-107802585D01*
X136127947Y-108023586D01*
X135873990Y-108023586D01*
X135873990Y-107796769D01*
X135759855Y-107748546D01*
X135650080Y-107693053D01*
X135541761Y-107631745D01*
X135431987Y-107566074D01*
X135431987Y-107442003D01*
X135873990Y-107442003D01*
X135873990Y-107203554D01*
X134691438Y-107203554D01*
X134676899Y-107280129D01*
X134667205Y-107364459D01*
X134662359Y-107445880D01*
X134660420Y-107513732D01*
X134485299Y-107513732D01*
X134485299Y-106178029D01*
X134673990Y-106178029D01*
X134673990Y-107050404D01*
X134871729Y-107050404D01*
X134871728Y-106734410D01*
X135873990Y-106734410D01*
X135873990Y-106614215D01*
X136100808Y-106614215D01*
X136117081Y-106734410D01*
X136118363Y-106743888D01*
X136171029Y-106851158D01*
X136258805Y-106936026D01*
X136347314Y-106984370D01*
X136454846Y-107018901D01*
X136581401Y-107039620D01*
X136726979Y-107046527D01*
X136872557Y-107039499D01*
X136999111Y-107018417D01*
X137106644Y-106983279D01*
X137195153Y-106934087D01*
X137282929Y-106848788D01*
X137335595Y-106742811D01*
X137353150Y-106616155D01*
X137335595Y-106486376D01*
X137282929Y-106378783D01*
X137195153Y-106293376D01*
X137106644Y-106244609D01*
X136999111Y-106209774D01*
X136872557Y-106188874D01*
X136726979Y-106181906D01*
X136581401Y-106189055D01*
X136454847Y-106210501D01*
X136347314Y-106246244D01*
X136258805Y-106296284D01*
X136171029Y-106382445D01*
X136118363Y-106488422D01*
X136100808Y-106614215D01*
X135873990Y-106614215D01*
X135873990Y-106494023D01*
X134871729Y-106494023D01*
X134871729Y-106178029D01*
X134673990Y-106178029D01*
X134485299Y-106178029D01*
X134485299Y-105666236D01*
X134646850Y-105666236D01*
X134653150Y-105769709D01*
X134672052Y-105859129D01*
X134728271Y-105997738D01*
X134912439Y-105927948D01*
X134865912Y-105820355D01*
X134846527Y-105683683D01*
X134861820Y-105578137D01*
X134907701Y-105514809D01*
X134984168Y-105493700D01*
X135045234Y-105513085D01*
X135091761Y-105562520D01*
X135127625Y-105630372D01*
X135156704Y-105705008D01*
X135204199Y-105822294D01*
X135273990Y-105934733D01*
X135382553Y-106019063D01*
X135455977Y-106043780D01*
X135546365Y-106052020D01*
X135695880Y-106024637D01*
X135807108Y-105942488D01*
X135858266Y-105856866D01*
X135888961Y-105746042D01*
X135899192Y-105610016D01*
X135895728Y-105551857D01*
X136114378Y-105551857D01*
X136118861Y-105610016D01*
X136123102Y-105665024D01*
X136149273Y-105768014D01*
X136194103Y-105858401D01*
X136258805Y-105933764D01*
X136343619Y-105994103D01*
X136448788Y-106039418D01*
X136576010Y-106067771D01*
X136726979Y-106077221D01*
X136881341Y-106066801D01*
X137010985Y-106035541D01*
X137117367Y-105985864D01*
X137201939Y-105920194D01*
X137265670Y-105839499D01*
X137309532Y-105744750D01*
X137334976Y-105637884D01*
X137343457Y-105520839D01*
X137336672Y-105395800D01*
X137314378Y-105264943D01*
X136143457Y-105264943D01*
X136120194Y-105418093D01*
X136114378Y-105551857D01*
X135895728Y-105551857D01*
X135891195Y-105475767D01*
X135867205Y-105371567D01*
X135808078Y-105237803D01*
X135614216Y-105307593D01*
X135672375Y-105432633D01*
X135692730Y-105513328D01*
X135699515Y-105610016D01*
X135686914Y-105709855D01*
X135652019Y-105772859D01*
X135601616Y-105804847D01*
X135544426Y-105813570D01*
X135478514Y-105792246D01*
X135427141Y-105737964D01*
X135386430Y-105664297D01*
X135352504Y-105582876D01*
X135307916Y-105470436D01*
X135243942Y-105364782D01*
X135147981Y-105286268D01*
X135005493Y-105255250D01*
X134855250Y-105282634D01*
X134741842Y-105364782D01*
X134689068Y-105446957D01*
X134657404Y-105547442D01*
X134646850Y-105666236D01*
X134485299Y-105666236D01*
X134485299Y-105237803D01*
X134485299Y-104833926D01*
X134492593Y-104685459D01*
X134514403Y-104538422D01*
X134550522Y-104394231D01*
X134600599Y-104254275D01*
X134664153Y-104119901D01*
X134740572Y-103992403D01*
X134829120Y-103873009D01*
X134928945Y-103762870D01*
X135039084Y-103663046D01*
X135158477Y-103574498D01*
X135285975Y-103498079D01*
X135420349Y-103434524D01*
X135560305Y-103384447D01*
X135704497Y-103348329D01*
X135851533Y-103326518D01*
X136000000Y-103319225D01*
X136148467Y-103326518D01*
X136295503Y-103348329D01*
X136439695Y-103384447D01*
X136579651Y-103434524D01*
X136714025Y-103498079D01*
X136841523Y-103574498D01*
X136960916Y-103663046D01*
X137071055Y-103762870D01*
X137170880Y-103873009D01*
X137259428Y-103992403D01*
X137335847Y-104119901D01*
X137399401Y-104254275D01*
X137449478Y-104394231D01*
X137485597Y-104538422D01*
X137507407Y-104685459D01*
X137514701Y-104833926D01*
X137514701Y-105237803D01*
X137514701Y-105520840D01*
X137514701Y-106616155D01*
X137514701Y-107955735D01*
G37*
%TO.C,kibuzzard-66C9E09D*%
G36*
X145320840Y-137195799D02*
G01*
X145359612Y-137200646D01*
X145359612Y-137561228D01*
X145307271Y-137561228D01*
X145202100Y-137549354D01*
X145130856Y-137513732D01*
X145076576Y-137378998D01*
X145091115Y-137296607D01*
X145134733Y-137239419D01*
X145202100Y-137205977D01*
X145287884Y-137194830D01*
X145320840Y-137195799D01*
G37*
G36*
X144347658Y-137214216D02*
G01*
X144404848Y-137304362D01*
X144431987Y-137437158D01*
X144437076Y-137515670D01*
X144438772Y-137600000D01*
X144437076Y-137684572D01*
X144431987Y-137763813D01*
X144404847Y-137896607D01*
X144347658Y-137985784D01*
X144248788Y-138018740D01*
X144150889Y-137985784D01*
X144092730Y-137895639D01*
X144065590Y-137762843D01*
X144060501Y-137684330D01*
X144058804Y-137600000D01*
X144060501Y-137515428D01*
X144065590Y-137436187D01*
X144092730Y-137303393D01*
X144149919Y-137214216D01*
X144248788Y-137181260D01*
X144347658Y-137214216D01*
G37*
G36*
X148224879Y-137214216D02*
G01*
X148282068Y-137304362D01*
X148309208Y-137437157D01*
X148314297Y-137515670D01*
X148315994Y-137600000D01*
X148314297Y-137684572D01*
X148309208Y-137763813D01*
X148282068Y-137896607D01*
X148224879Y-137985784D01*
X148126010Y-138018740D01*
X148028109Y-137985784D01*
X147969952Y-137895639D01*
X147942811Y-137762843D01*
X147937722Y-137684330D01*
X147936026Y-137600000D01*
X147937722Y-137515429D01*
X147942811Y-137436187D01*
X147969952Y-137303393D01*
X148027141Y-137214216D01*
X148126010Y-137181260D01*
X148224879Y-137214216D01*
G37*
G36*
X150085179Y-136827414D02*
G01*
X150232951Y-136872240D01*
X150369137Y-136945032D01*
X150488506Y-137042996D01*
X150586469Y-137162365D01*
X150659263Y-137298552D01*
X150704089Y-137446323D01*
X150719226Y-137600000D01*
X150704089Y-137753677D01*
X150659263Y-137901448D01*
X150586469Y-138037635D01*
X150488506Y-138157004D01*
X150369137Y-138254968D01*
X150232951Y-138327760D01*
X150085179Y-138372586D01*
X149931502Y-138387722D01*
X149527625Y-138387722D01*
X149006138Y-138387722D01*
X148124071Y-138387722D01*
X146953150Y-138387722D01*
X146067205Y-138387722D01*
X144754766Y-138387722D01*
X144246850Y-138387722D01*
X142872375Y-138387722D01*
X142468498Y-138387722D01*
X142314821Y-138372586D01*
X142167049Y-138327760D01*
X142030863Y-138254968D01*
X141911494Y-138157004D01*
X141813531Y-138037635D01*
X141795142Y-138003231D01*
X142872375Y-138003231D01*
X142872375Y-138200969D01*
X143626494Y-138200969D01*
X143626494Y-137600000D01*
X143816477Y-137600000D01*
X143823506Y-137745578D01*
X143844588Y-137872132D01*
X143879725Y-137979665D01*
X143928919Y-138068174D01*
X144014216Y-138155950D01*
X144120195Y-138208616D01*
X144246850Y-138226171D01*
X144376630Y-138208616D01*
X144392252Y-138200969D01*
X144754766Y-138200969D01*
X145004847Y-138200969D01*
X145053069Y-138086834D01*
X145108562Y-137977060D01*
X145169871Y-137868740D01*
X145235541Y-137758965D01*
X145359612Y-137758966D01*
X145359612Y-138200969D01*
X145598061Y-138200969D01*
X145598061Y-137198708D01*
X145751212Y-137198708D01*
X146067205Y-137198708D01*
X146067205Y-138200969D01*
X146307593Y-138200969D01*
X146307593Y-137198708D01*
X146623586Y-137198708D01*
X146623586Y-137000970D01*
X145751212Y-137000969D01*
X146761228Y-137000969D01*
X146761228Y-138200969D01*
X146953150Y-138200969D01*
X147009048Y-138067959D01*
X147068174Y-137935164D01*
X147130533Y-137802585D01*
X147196123Y-137670005D01*
X147264943Y-137537211D01*
X147336994Y-137404200D01*
X147336995Y-138200969D01*
X147552181Y-138200969D01*
X147552180Y-137600000D01*
X147693699Y-137600000D01*
X147700727Y-137745578D01*
X147721809Y-137872132D01*
X147756947Y-137979665D01*
X147806139Y-138068174D01*
X147891438Y-138155950D01*
X147997415Y-138208616D01*
X148124071Y-138226171D01*
X148253850Y-138208616D01*
X148361443Y-138155950D01*
X148374227Y-138142811D01*
X148670759Y-138142811D01*
X148807431Y-138200000D01*
X148900242Y-138219628D01*
X149006139Y-138226171D01*
X149162089Y-138208078D01*
X149291329Y-138153796D01*
X149393861Y-138063328D01*
X149452383Y-137973304D01*
X149494184Y-137866074D01*
X149519265Y-137741640D01*
X149527625Y-137600000D01*
X149517447Y-137458966D01*
X149486914Y-137334410D01*
X149438208Y-137227060D01*
X149373506Y-137137641D01*
X149294023Y-137066882D01*
X149200969Y-137015509D01*
X149096527Y-136984249D01*
X148982876Y-136973829D01*
X148867529Y-136984491D01*
X148777383Y-137008724D01*
X148712439Y-137037803D01*
X148672698Y-137061067D01*
X148734733Y-137251050D01*
X148842327Y-137201616D01*
X148986753Y-137181260D01*
X149096284Y-137201616D01*
X149191276Y-137269466D01*
X149259128Y-137396446D01*
X149278756Y-137485622D01*
X149285299Y-137594184D01*
X149277437Y-137720517D01*
X149253850Y-137825525D01*
X149214540Y-137909208D01*
X149121244Y-137991357D01*
X148982876Y-138018739D01*
X148828756Y-137997415D01*
X148730856Y-137954766D01*
X148670759Y-138142811D01*
X148374227Y-138142811D01*
X148446850Y-138068174D01*
X148495618Y-137979665D01*
X148530452Y-137872132D01*
X148551353Y-137745578D01*
X148558320Y-137600000D01*
X148551171Y-137454422D01*
X148529725Y-137327868D01*
X148493982Y-137220335D01*
X148443943Y-137131826D01*
X148357782Y-137044050D01*
X148251804Y-136991384D01*
X148126010Y-136973829D01*
X147996338Y-136991384D01*
X147889067Y-137044050D01*
X147804200Y-137131826D01*
X147755856Y-137220335D01*
X147721325Y-137327868D01*
X147700606Y-137454422D01*
X147693699Y-137600000D01*
X147552180Y-137600000D01*
X147552180Y-137000969D01*
X147360258Y-137000969D01*
X147305977Y-137089903D01*
X147251696Y-137186107D01*
X147198142Y-137285702D01*
X147146042Y-137384814D01*
X147096607Y-137482229D01*
X147051050Y-137576737D01*
X147010582Y-137663973D01*
X146976415Y-137739580D01*
X146976414Y-137000970D01*
X146761228Y-137000969D01*
X145751212Y-137000969D01*
X145751212Y-137198708D01*
X145598061Y-137198708D01*
X145598061Y-137018417D01*
X145521486Y-137003877D01*
X145437157Y-136994184D01*
X145355735Y-136989338D01*
X145287884Y-136987399D01*
X145189984Y-136993215D01*
X145101777Y-137010662D01*
X145024233Y-137040226D01*
X144958320Y-137082391D01*
X144866236Y-137205493D01*
X144842246Y-137286672D01*
X144834249Y-137380937D01*
X144844911Y-137480775D01*
X144876899Y-137570921D01*
X144933603Y-137646043D01*
X145018417Y-137700808D01*
X144948627Y-137812278D01*
X144876898Y-137940227D01*
X144810015Y-138073990D01*
X144754766Y-138200969D01*
X144392252Y-138200969D01*
X144484222Y-138155950D01*
X144569628Y-138068174D01*
X144618397Y-137979665D01*
X144653231Y-137872132D01*
X144674132Y-137745578D01*
X144681099Y-137600000D01*
X144673950Y-137454422D01*
X144652504Y-137327869D01*
X144616761Y-137220335D01*
X144566721Y-137131826D01*
X144480560Y-137044050D01*
X144374583Y-136991384D01*
X144248788Y-136973829D01*
X144119117Y-136991384D01*
X144011847Y-137044050D01*
X143926978Y-137131826D01*
X143878635Y-137220335D01*
X143844103Y-137327868D01*
X143823384Y-137454422D01*
X143816477Y-137600000D01*
X143626494Y-137600000D01*
X143626494Y-137000970D01*
X143386107Y-137000969D01*
X143386107Y-138003231D01*
X142872375Y-138003231D01*
X141795142Y-138003231D01*
X141740737Y-137901448D01*
X141695911Y-137753677D01*
X141680774Y-137600000D01*
X141695911Y-137446323D01*
X141740737Y-137298552D01*
X141813531Y-137162365D01*
X141911494Y-137042996D01*
X142030863Y-136945032D01*
X142167049Y-136872240D01*
X142314821Y-136827414D01*
X142468498Y-136812278D01*
X142872375Y-136812278D01*
X149527625Y-136812278D01*
X149931502Y-136812278D01*
X150085179Y-136827414D01*
G37*
%TO.C,kibuzzard-66C9E05B*%
G36*
X158684572Y-124836591D02*
G01*
X158763813Y-124841680D01*
X158896607Y-124868821D01*
X158985784Y-124926010D01*
X159018740Y-125024879D01*
X158985784Y-125122780D01*
X158895639Y-125180937D01*
X158762843Y-125208078D01*
X158684330Y-125213166D01*
X158600000Y-125214863D01*
X158515428Y-125213166D01*
X158436187Y-125208078D01*
X158303393Y-125180937D01*
X158214216Y-125123748D01*
X158181260Y-125024879D01*
X158214216Y-124926010D01*
X158304362Y-124868821D01*
X158437158Y-124841680D01*
X158515670Y-124836591D01*
X158600000Y-124834894D01*
X158684572Y-124836591D01*
G37*
G36*
X159387722Y-125026817D02*
G01*
X159387722Y-126114378D01*
X159387722Y-126600969D01*
X159387723Y-127897900D01*
X159387722Y-128339903D01*
X159387722Y-128743780D01*
X159372586Y-128897457D01*
X159327760Y-129045229D01*
X159254967Y-129181416D01*
X159157004Y-129300784D01*
X159037635Y-129398747D01*
X158901448Y-129471541D01*
X158753677Y-129516367D01*
X158600000Y-129531502D01*
X158446323Y-129516367D01*
X158298552Y-129471541D01*
X158162365Y-129398747D01*
X158042996Y-129300784D01*
X157945033Y-129181416D01*
X157872240Y-129045229D01*
X157827414Y-128897457D01*
X157812278Y-128743780D01*
X157812278Y-128339903D01*
X157812278Y-127954120D01*
X157973829Y-127954120D01*
X157980129Y-128057593D01*
X157999031Y-128147011D01*
X158055250Y-128285622D01*
X158239418Y-128215832D01*
X158192892Y-128108239D01*
X158173506Y-127971567D01*
X158188799Y-127866021D01*
X158234680Y-127802693D01*
X158311148Y-127781583D01*
X158372213Y-127800969D01*
X158418740Y-127850404D01*
X158454604Y-127918256D01*
X158483683Y-127992892D01*
X158531179Y-128110178D01*
X158600969Y-128222617D01*
X158709532Y-128306947D01*
X158782956Y-128331664D01*
X158873344Y-128339903D01*
X159022859Y-128312520D01*
X159134087Y-128230372D01*
X159185245Y-128144750D01*
X159215940Y-128033926D01*
X159226171Y-127897900D01*
X159218174Y-127763652D01*
X159194184Y-127659452D01*
X159135057Y-127525687D01*
X158941195Y-127595477D01*
X158999354Y-127720517D01*
X159019709Y-127801212D01*
X159026494Y-127897900D01*
X159013893Y-127997739D01*
X158978998Y-128060743D01*
X158928595Y-128092730D01*
X158871405Y-128101454D01*
X158805493Y-128080129D01*
X158754120Y-128025848D01*
X158713409Y-127952181D01*
X158679483Y-127870758D01*
X158634894Y-127758320D01*
X158570921Y-127652666D01*
X158474960Y-127574152D01*
X158332473Y-127543134D01*
X158182229Y-127570517D01*
X158068821Y-127652666D01*
X158016047Y-127734841D01*
X157984384Y-127835326D01*
X157973829Y-127954120D01*
X157812278Y-127954120D01*
X157812278Y-126600969D01*
X158000969Y-126600969D01*
X158000969Y-127327948D01*
X158198708Y-127327948D01*
X158198708Y-126839418D01*
X158468174Y-126839418D01*
X158468174Y-127263975D01*
X158665913Y-127263974D01*
X158665913Y-126839418D01*
X159003231Y-126839418D01*
X159003231Y-127370599D01*
X159200969Y-127370598D01*
X159200969Y-126600969D01*
X158000969Y-126600969D01*
X157812278Y-126600969D01*
X157812278Y-125557997D01*
X158000969Y-125557997D01*
X158000969Y-126430372D01*
X158198708Y-126430372D01*
X158198708Y-126114378D01*
X159200969Y-126114378D01*
X159200969Y-125873990D01*
X158198708Y-125873990D01*
X158198708Y-125557997D01*
X158000969Y-125557997D01*
X157812278Y-125557997D01*
X157812278Y-125024879D01*
X157973829Y-125024879D01*
X157991384Y-125154550D01*
X158044050Y-125261820D01*
X158131826Y-125346688D01*
X158220335Y-125395032D01*
X158327868Y-125429564D01*
X158454422Y-125450283D01*
X158600000Y-125457189D01*
X158745578Y-125450162D01*
X158872131Y-125429079D01*
X158979665Y-125393942D01*
X159068174Y-125344750D01*
X159155950Y-125259451D01*
X159208616Y-125153474D01*
X159226171Y-125026817D01*
X159208616Y-124897039D01*
X159155950Y-124789445D01*
X159068174Y-124704039D01*
X158979665Y-124655271D01*
X158872131Y-124620436D01*
X158745578Y-124599536D01*
X158600000Y-124592569D01*
X158454422Y-124599717D01*
X158327869Y-124621163D01*
X158220335Y-124656906D01*
X158131826Y-124706946D01*
X158044050Y-124793107D01*
X157991384Y-124899085D01*
X157973829Y-125024879D01*
X157812278Y-125024879D01*
X157812278Y-123660097D01*
X158000969Y-123660097D01*
X158000969Y-123852019D01*
X158089903Y-123906301D01*
X158186107Y-123960582D01*
X158285703Y-124014137D01*
X158384814Y-124066236D01*
X158482229Y-124115670D01*
X158576737Y-124161228D01*
X158663973Y-124201696D01*
X158739579Y-124235864D01*
X158000970Y-124235864D01*
X158000969Y-124451050D01*
X159200969Y-124451050D01*
X159200969Y-124259128D01*
X159067959Y-124203230D01*
X158935164Y-124144103D01*
X158802585Y-124081745D01*
X158670005Y-124016155D01*
X158537211Y-123947333D01*
X158404200Y-123875283D01*
X159200969Y-123875283D01*
X159200969Y-123660097D01*
X158000969Y-123660097D01*
X157812278Y-123660097D01*
X157812278Y-123256220D01*
X157827414Y-123102543D01*
X157872240Y-122954773D01*
X157945033Y-122818584D01*
X158042996Y-122699216D01*
X158162365Y-122601253D01*
X158298552Y-122528459D01*
X158446323Y-122483633D01*
X158600000Y-122468498D01*
X158753677Y-122483633D01*
X158901448Y-122528459D01*
X159037635Y-122601253D01*
X159157004Y-122699216D01*
X159254967Y-122818584D01*
X159327760Y-122954773D01*
X159372586Y-123102543D01*
X159387722Y-123256220D01*
X159387722Y-123660097D01*
X159387722Y-124259128D01*
X159387722Y-125026817D01*
G37*
D12*
%TO.C,J901*%
X154790000Y-140290000D02*
X154790000Y-153110000D01*
X154790000Y-145800000D02*
X158100000Y-145800000D01*
X154790000Y-153110000D02*
X170010000Y-153110000D01*
X155900000Y-150810000D02*
X160800000Y-150810000D01*
X155900000Y-153110000D02*
X155900000Y-150810000D01*
X156010000Y-140290000D02*
X154790000Y-140290000D01*
X156010000Y-143190000D02*
X156010000Y-140290000D01*
X156290000Y-143190000D02*
X156010000Y-143190000D01*
X158100000Y-145800000D02*
X158100000Y-149210000D01*
X158100000Y-149210000D02*
X159200000Y-149210000D01*
X159200000Y-145800000D02*
X159700000Y-145800000D01*
X159200000Y-149210000D02*
X159200000Y-145800000D01*
X159700000Y-145800000D02*
X159700000Y-150810000D01*
X161600000Y-147200000D02*
X163200000Y-147200000D01*
X161600000Y-149000000D02*
X161600000Y-147200000D01*
X163200000Y-147200000D02*
X163200000Y-149000000D01*
X163200000Y-149000000D02*
X161600000Y-149000000D01*
X164000000Y-150810000D02*
X168900000Y-150810000D01*
X165100000Y-145800000D02*
X165100000Y-150810000D01*
X165600000Y-145800000D02*
X165100000Y-145800000D01*
X165600000Y-149210000D02*
X165600000Y-145800000D01*
X166700000Y-145800000D02*
X166700000Y-149210000D01*
X166700000Y-149210000D02*
X165600000Y-149210000D01*
X167000000Y-142200000D02*
X167800000Y-142200000D01*
X167400000Y-142600000D02*
X167000000Y-142200000D01*
X167800000Y-142200000D02*
X167400000Y-142600000D01*
X168790000Y-140290000D02*
X168790000Y-143190000D01*
X168790000Y-143190000D02*
X168510000Y-143190000D01*
X168900000Y-150810000D02*
X168900000Y-153110000D01*
X170010000Y-140290000D02*
X168790000Y-140290000D01*
X170010000Y-145800000D02*
X166700000Y-145800000D01*
X170010000Y-153110000D02*
X170010000Y-140290000D01*
%TO.C,J1101*%
X102540000Y-87590000D02*
X102540000Y-100410000D01*
X102540000Y-94900000D02*
X103200000Y-94900000D01*
X102540000Y-100410000D02*
X103760000Y-100410000D01*
X103200000Y-91490000D02*
X104300000Y-91490000D01*
X103200000Y-94900000D02*
X103200000Y-91490000D01*
X103650000Y-89890000D02*
X103650000Y-87590000D01*
X103760000Y-97510001D02*
X104040000Y-97510001D01*
X103760000Y-100410000D02*
X103760000Y-97510001D01*
X104300000Y-91490000D02*
X104300000Y-94900000D01*
X104300000Y-94900000D02*
X104800000Y-94900000D01*
X104750000Y-98500000D02*
X105150000Y-98100000D01*
X104800000Y-89890000D02*
X103650000Y-89890000D01*
X104800000Y-94900000D02*
X104800000Y-89890000D01*
X105150000Y-98100000D02*
X105550000Y-98500000D01*
X105550000Y-98500000D02*
X104750000Y-98500000D01*
X106000000Y-91700000D02*
X106800000Y-91700000D01*
X106000000Y-93500000D02*
X106000000Y-91700000D01*
X106800000Y-91700000D02*
X106800000Y-93500000D01*
X106800000Y-93500000D02*
X106000000Y-93500000D01*
X108000000Y-94900000D02*
X108000000Y-89890000D01*
X108500000Y-91490000D02*
X108500000Y-94900000D01*
X108500000Y-94900000D02*
X108000000Y-94900000D01*
X108760000Y-97510001D02*
X109040000Y-97510001D01*
X109040000Y-97510001D02*
X109040000Y-100410000D01*
X109040000Y-100410000D02*
X110260000Y-100410000D01*
X109150000Y-87590000D02*
X109150001Y-89890000D01*
X109150001Y-89890000D02*
X108000000Y-89890000D01*
X109600000Y-91490000D02*
X108500000Y-91490000D01*
X109600000Y-94900000D02*
X109600000Y-91490000D01*
X110260000Y-87590000D02*
X102540000Y-87590000D01*
X110260000Y-94900000D02*
X109600000Y-94900000D01*
X110260000Y-100410000D02*
X110260000Y-87590000D01*
D13*
%TO.C,kibuzzard-66C9E0F4*%
G36*
X104405816Y-102595800D02*
G01*
X104444588Y-102600646D01*
X104444588Y-102961228D01*
X104392246Y-102961228D01*
X104287076Y-102949354D01*
X104215832Y-102913732D01*
X104161551Y-102778998D01*
X104176090Y-102696607D01*
X104219709Y-102639418D01*
X104287076Y-102605977D01*
X104372859Y-102594830D01*
X104405816Y-102595800D01*
G37*
G36*
X108262682Y-102595800D02*
G01*
X108321809Y-102600646D01*
X108321809Y-102988368D01*
X108224879Y-102988368D01*
X108124556Y-102976979D01*
X108052342Y-102942811D01*
X108008724Y-102881018D01*
X107994184Y-102786753D01*
X108008481Y-102697334D01*
X108051373Y-102638449D01*
X108118013Y-102605735D01*
X108203554Y-102594830D01*
X108262682Y-102595800D01*
G37*
G36*
X107309855Y-102614216D02*
G01*
X107367044Y-102704362D01*
X107394184Y-102837157D01*
X107399273Y-102915670D01*
X107400969Y-103000000D01*
X107399273Y-103084572D01*
X107394184Y-103163813D01*
X107367044Y-103296607D01*
X107309855Y-103385784D01*
X107210985Y-103418740D01*
X107113086Y-103385784D01*
X107054927Y-103295638D01*
X107027787Y-103162843D01*
X107022698Y-103084330D01*
X107021002Y-103000000D01*
X107022698Y-102915428D01*
X107027787Y-102836187D01*
X107054927Y-102703393D01*
X107112116Y-102614216D01*
X107210985Y-102581260D01*
X107309855Y-102614216D01*
G37*
G36*
X109117813Y-102227414D02*
G01*
X109265584Y-102272240D01*
X109401771Y-102345033D01*
X109521139Y-102442996D01*
X109619103Y-102562365D01*
X109691896Y-102698552D01*
X109736722Y-102846323D01*
X109751858Y-103000000D01*
X109736722Y-103153677D01*
X109691896Y-103301448D01*
X109619103Y-103437635D01*
X109521139Y-103557004D01*
X109401771Y-103654967D01*
X109265584Y-103727760D01*
X109117813Y-103772586D01*
X108964136Y-103787722D01*
X108560258Y-103787722D01*
X108321809Y-103787722D01*
X107209047Y-103787722D01*
X105869467Y-103787722D01*
X105634895Y-103787722D01*
X103839742Y-103787722D01*
X103435864Y-103787722D01*
X103282187Y-103772586D01*
X103134416Y-103727760D01*
X102998229Y-103654967D01*
X102932432Y-103600969D01*
X103839742Y-103600969D01*
X104089822Y-103600969D01*
X104138045Y-103486834D01*
X104193538Y-103377060D01*
X104254847Y-103268740D01*
X104320517Y-103158966D01*
X104444588Y-103158966D01*
X104444588Y-103600969D01*
X104683037Y-103600969D01*
X104683037Y-103403231D01*
X104865267Y-103403231D01*
X104865267Y-103600969D01*
X105634895Y-103600969D01*
X105634895Y-102400969D01*
X105801616Y-102400969D01*
X105807431Y-102550485D01*
X105813247Y-102704362D01*
X105819548Y-102859935D01*
X105826817Y-103014540D01*
X105835299Y-103167447D01*
X105845234Y-103317932D01*
X105856624Y-103463328D01*
X105869467Y-103600969D01*
X106067205Y-103600969D01*
X106109855Y-103474233D01*
X106152504Y-103338288D01*
X106195153Y-103200889D01*
X106237803Y-103069790D01*
X106281422Y-103197254D01*
X106326979Y-103335380D01*
X106371567Y-103473506D01*
X106412278Y-103600969D01*
X106610016Y-103600969D01*
X106624556Y-103463086D01*
X106637157Y-103316963D01*
X106648061Y-103165751D01*
X106657512Y-103012601D01*
X106658164Y-103000000D01*
X106778675Y-103000000D01*
X106785703Y-103145578D01*
X106806785Y-103272132D01*
X106841922Y-103379665D01*
X106891115Y-103468174D01*
X106976414Y-103555950D01*
X107082391Y-103608616D01*
X107209047Y-103626171D01*
X107338826Y-103608616D01*
X107446419Y-103555950D01*
X107531826Y-103468174D01*
X107580594Y-103379665D01*
X107615428Y-103272132D01*
X107636329Y-103145578D01*
X107643296Y-103000000D01*
X107636147Y-102854422D01*
X107625008Y-102788691D01*
X107749919Y-102788691D01*
X107764028Y-102918901D01*
X107806354Y-103022617D01*
X107876898Y-103099838D01*
X107973290Y-103153150D01*
X108093161Y-103185137D01*
X108236511Y-103195800D01*
X108321809Y-103195800D01*
X108321809Y-103600969D01*
X108560258Y-103600969D01*
X108560258Y-102416478D01*
X108481745Y-102402908D01*
X108393538Y-102394184D01*
X108306300Y-102389338D01*
X108230695Y-102387399D01*
X108089607Y-102397846D01*
X107971352Y-102429187D01*
X107875929Y-102481422D01*
X107805924Y-102557351D01*
X107763920Y-102659774D01*
X107749919Y-102788691D01*
X107625008Y-102788691D01*
X107614701Y-102727868D01*
X107578958Y-102620335D01*
X107528918Y-102531826D01*
X107442757Y-102444050D01*
X107336780Y-102391384D01*
X107210985Y-102373829D01*
X107081314Y-102391384D01*
X106974044Y-102444050D01*
X106889176Y-102531826D01*
X106840832Y-102620335D01*
X106806300Y-102727868D01*
X106785582Y-102854422D01*
X106778675Y-103000000D01*
X106658164Y-103000000D01*
X106665509Y-102857997D01*
X106672052Y-102702423D01*
X106677383Y-102549031D01*
X106681745Y-102400969D01*
X106460743Y-102400969D01*
X106462682Y-102517286D01*
X106464620Y-102637480D01*
X106466559Y-102759370D01*
X106468498Y-102880775D01*
X106470436Y-103000485D01*
X106472375Y-103117286D01*
X106473829Y-103228998D01*
X106474313Y-103333441D01*
X106434572Y-103197738D01*
X106391922Y-103052342D01*
X106354120Y-102920517D01*
X106326979Y-102825525D01*
X106152504Y-102825525D01*
X106129241Y-102916640D01*
X106095315Y-103036834D01*
X106054604Y-103178352D01*
X106010985Y-103333441D01*
X106011470Y-103228998D01*
X106012924Y-103117286D01*
X106014863Y-103000727D01*
X106016801Y-102881745D01*
X106018740Y-102760824D01*
X106020679Y-102638449D01*
X106022132Y-102517528D01*
X106022617Y-102400969D01*
X105801616Y-102400969D01*
X105634895Y-102400969D01*
X104907916Y-102400969D01*
X104907916Y-102598708D01*
X105396446Y-102598708D01*
X105396446Y-102868174D01*
X104971890Y-102868174D01*
X104971890Y-103065913D01*
X105396446Y-103065913D01*
X105396446Y-103403231D01*
X104865267Y-103403231D01*
X104683037Y-103403231D01*
X104683037Y-102418417D01*
X104606462Y-102403877D01*
X104522132Y-102394184D01*
X104440711Y-102389338D01*
X104372859Y-102387399D01*
X104274960Y-102393215D01*
X104186753Y-102410662D01*
X104109208Y-102440226D01*
X104043296Y-102482391D01*
X103951212Y-102605493D01*
X103927221Y-102686672D01*
X103919225Y-102780937D01*
X103929887Y-102880775D01*
X103961874Y-102970921D01*
X104018578Y-103046042D01*
X104103393Y-103100808D01*
X104033603Y-103212278D01*
X103961874Y-103340226D01*
X103894992Y-103473990D01*
X103839742Y-103600969D01*
X102932432Y-103600969D01*
X102878861Y-103557004D01*
X102780897Y-103437635D01*
X102708104Y-103301448D01*
X102663278Y-103153677D01*
X102648142Y-103000000D01*
X102663278Y-102846323D01*
X102708104Y-102698552D01*
X102780897Y-102562365D01*
X102878861Y-102442996D01*
X102998229Y-102345033D01*
X103134416Y-102272240D01*
X103282187Y-102227414D01*
X103435864Y-102212278D01*
X103839742Y-102212278D01*
X108560258Y-102212278D01*
X108964136Y-102212278D01*
X109117813Y-102227414D01*
G37*
%TO.C,kibuzzard-66C9E100*%
G36*
X147333118Y-103961551D02*
G01*
X147364136Y-104081745D01*
X147391276Y-104200969D01*
X147415509Y-104325040D01*
X147180937Y-104325040D01*
X147204200Y-104200969D01*
X147230372Y-104081745D01*
X147261389Y-103961551D01*
X147297254Y-103832633D01*
X147333118Y-103961551D01*
G37*
G36*
X150226439Y-103453082D02*
G01*
X150369300Y-103496419D01*
X150500962Y-103566794D01*
X150616365Y-103661502D01*
X150711074Y-103776905D01*
X150781449Y-103908567D01*
X150824785Y-104051429D01*
X150839418Y-104200000D01*
X150824785Y-104348571D01*
X150781449Y-104491433D01*
X150711074Y-104623095D01*
X150616365Y-104738498D01*
X150500962Y-104833206D01*
X150369300Y-104903581D01*
X150226439Y-104946918D01*
X150077867Y-104961551D01*
X149673990Y-104961551D01*
X148861712Y-104961551D01*
X147867205Y-104961551D01*
X147084006Y-104961551D01*
X145885945Y-104961551D01*
X144916640Y-104961551D01*
X144265266Y-104961551D01*
X143926010Y-104961551D01*
X143522132Y-104961551D01*
X143373561Y-104946918D01*
X143230700Y-104903581D01*
X143099037Y-104833206D01*
X142983635Y-104738498D01*
X142888926Y-104623095D01*
X142818551Y-104491433D01*
X142775215Y-104348571D01*
X142760582Y-104200000D01*
X142775215Y-104051429D01*
X142818551Y-103908567D01*
X142888926Y-103776905D01*
X142983635Y-103661502D01*
X143058575Y-103600000D01*
X143926010Y-103600000D01*
X143962843Y-103697415D01*
X143999677Y-103791922D01*
X144037480Y-103884491D01*
X144077221Y-103976090D01*
X144119386Y-104066963D01*
X144164459Y-104157351D01*
X144212924Y-104248708D01*
X144265266Y-104342488D01*
X144265266Y-104800000D01*
X144505654Y-104800000D01*
X144916640Y-104800000D01*
X145135703Y-104800000D01*
X145124071Y-103867528D01*
X145271405Y-104375444D01*
X145445880Y-104375444D01*
X145587399Y-103867528D01*
X145577706Y-104800000D01*
X145796769Y-104800000D01*
X145885945Y-104800000D01*
X146105008Y-104800000D01*
X146093376Y-103867528D01*
X146240711Y-104375444D01*
X146415186Y-104375444D01*
X146556704Y-103867528D01*
X146547011Y-104800000D01*
X146766074Y-104800000D01*
X146828110Y-104800000D01*
X147084006Y-104800000D01*
X147140226Y-104522779D01*
X147460097Y-104522779D01*
X147514378Y-104800000D01*
X147762520Y-104800000D01*
X147867205Y-104800000D01*
X148105654Y-104800000D01*
X148105654Y-104270759D01*
X148423586Y-104270759D01*
X148423586Y-104800000D01*
X148662035Y-104800000D01*
X148662035Y-103600000D01*
X148793861Y-103600000D01*
X148799677Y-103749515D01*
X148805493Y-103903393D01*
X148811793Y-104058966D01*
X148819063Y-104213570D01*
X148827544Y-104366478D01*
X148837480Y-104516963D01*
X148848869Y-104662359D01*
X148861712Y-104800000D01*
X149059451Y-104800000D01*
X149102100Y-104673263D01*
X149144750Y-104537318D01*
X149187399Y-104399919D01*
X149230048Y-104268821D01*
X149273667Y-104396284D01*
X149319224Y-104534410D01*
X149363813Y-104672536D01*
X149404523Y-104800000D01*
X149602262Y-104800000D01*
X149616801Y-104662116D01*
X149629402Y-104515994D01*
X149640307Y-104364782D01*
X149649758Y-104211632D01*
X149657754Y-104057027D01*
X149664297Y-103901454D01*
X149669628Y-103748061D01*
X149673990Y-103600000D01*
X149452989Y-103600000D01*
X149454927Y-103716317D01*
X149456866Y-103836511D01*
X149458804Y-103958401D01*
X149460743Y-104079806D01*
X149462682Y-104199515D01*
X149464620Y-104316317D01*
X149466074Y-104428029D01*
X149466559Y-104532472D01*
X149426817Y-104396769D01*
X149384168Y-104251373D01*
X149346365Y-104119548D01*
X149319224Y-104024556D01*
X149144750Y-104024556D01*
X149121486Y-104115670D01*
X149087561Y-104235864D01*
X149046850Y-104377383D01*
X149003231Y-104532472D01*
X149003716Y-104428029D01*
X149005170Y-104316317D01*
X149007108Y-104199758D01*
X149009047Y-104080775D01*
X149010985Y-103959855D01*
X149012924Y-103837480D01*
X149014378Y-103716559D01*
X149014863Y-103600000D01*
X148793861Y-103600000D01*
X148662035Y-103600000D01*
X148423586Y-103600000D01*
X148423586Y-104073021D01*
X148105654Y-104073021D01*
X148105654Y-103600000D01*
X147867205Y-103600000D01*
X147867205Y-104800000D01*
X147762520Y-104800000D01*
X147728323Y-104660614D01*
X147693971Y-104526268D01*
X147659464Y-104396963D01*
X147624801Y-104272698D01*
X147589984Y-104153473D01*
X147546729Y-104009471D01*
X147504200Y-103869225D01*
X147462399Y-103732734D01*
X147421325Y-103600000D01*
X147161551Y-103600000D01*
X147118962Y-103733825D01*
X147076494Y-103871648D01*
X147034148Y-104013469D01*
X146991922Y-104159289D01*
X146958384Y-104279522D01*
X146925234Y-104403709D01*
X146892472Y-104531851D01*
X146860097Y-104663948D01*
X146828110Y-104800000D01*
X146766074Y-104800000D01*
X146760016Y-104649758D01*
X146753473Y-104493700D01*
X146746446Y-104335218D01*
X146738934Y-104177706D01*
X146730452Y-104023102D01*
X146720517Y-103873344D01*
X146709128Y-103731341D01*
X146696284Y-103600000D01*
X146498546Y-103600000D01*
X146464620Y-103704685D01*
X146421002Y-103842326D01*
X146374475Y-103991599D01*
X146329887Y-104131179D01*
X146281422Y-103982876D01*
X146232956Y-103835541D01*
X146190307Y-103702746D01*
X146155412Y-103600000D01*
X145957674Y-103600000D01*
X145944346Y-103755089D01*
X145931502Y-103906300D01*
X145919871Y-104054847D01*
X145910178Y-104201939D01*
X145902181Y-104348788D01*
X145895638Y-104496607D01*
X145890307Y-104646607D01*
X145885945Y-104800000D01*
X145796769Y-104800000D01*
X145790711Y-104649758D01*
X145784168Y-104493700D01*
X145777140Y-104335218D01*
X145769628Y-104177706D01*
X145761147Y-104023102D01*
X145751212Y-103873344D01*
X145739822Y-103731341D01*
X145726979Y-103600000D01*
X145529241Y-103600000D01*
X145495315Y-103704685D01*
X145451696Y-103842326D01*
X145405170Y-103991599D01*
X145360582Y-104131179D01*
X145312116Y-103982876D01*
X145263651Y-103835541D01*
X145221002Y-103702746D01*
X145186107Y-103600000D01*
X144988368Y-103600000D01*
X144975040Y-103755089D01*
X144962197Y-103906300D01*
X144950565Y-104054847D01*
X144940872Y-104201939D01*
X144932876Y-104348788D01*
X144926333Y-104496607D01*
X144921002Y-104646607D01*
X144916640Y-104800000D01*
X144505654Y-104800000D01*
X144505654Y-104344426D01*
X144573829Y-104220032D01*
X144636187Y-104097577D01*
X144692730Y-103977060D01*
X144745611Y-103855466D01*
X144796984Y-103729779D01*
X144846850Y-103600000D01*
X144590953Y-103600000D01*
X144543942Y-103740792D01*
X144492084Y-103884006D01*
X144436834Y-104022375D01*
X144379645Y-104148627D01*
X144330210Y-104036187D01*
X144273990Y-103892730D01*
X144246365Y-103816640D01*
X144219709Y-103739580D01*
X144172213Y-103600000D01*
X143926010Y-103600000D01*
X143058575Y-103600000D01*
X143099037Y-103566794D01*
X143230700Y-103496419D01*
X143373561Y-103453082D01*
X143522132Y-103438449D01*
X143926010Y-103438449D01*
X149673990Y-103438449D01*
X150077867Y-103438449D01*
X150226439Y-103453082D01*
G37*
%TD*%
M02*
