M48
; DRILL file {KiCad 8.0.4-8.0.4-0~ubuntu22.04.1} date 2024-08-26T11:26:45-0300
; FORMAT={-:-/ absolute / inch / decimal}
; #@! TF.CreationDate,2024-08-26T11:26:45-03:00
; #@! TF.GenerationSoftware,Kicad,Pcbnew,8.0.4-8.0.4-0~ubuntu22.04.1
; #@! TF.FileFunction,Plated,1,2,PTH
FMAT,2
INCH
; #@! TA.AperFunction,Plated,PTH,ComponentDrill
T1C0.0079
; #@! TA.AperFunction,Plated,PTH,ViaDrill
T2C0.0118
; #@! TA.AperFunction,Plated,PTH,ViaDrill
T3C0.0157
; #@! TA.AperFunction,Plated,PTH,ComponentDrill
T4C0.0157
; #@! TA.AperFunction,Plated,PTH,ViaDrill
T5C0.0197
; #@! TA.AperFunction,Plated,PTH,ComponentDrill
T6C0.0295
; #@! TA.AperFunction,Plated,PTH,ComponentDrill
T7C0.0374
; #@! TA.AperFunction,Plated,PTH,ComponentDrill
T8C0.0394
; #@! TA.AperFunction,Plated,PTH,ComponentDrill
T9C0.0591
%
G90
G05
T1
X4.3099Y-4.3343
X4.3656Y-4.2786
X4.3656Y-4.3899
X4.4213Y-4.3343
T2
X3.6929Y-4.937
X3.6929Y-4.9764
X3.6929Y-5.0157
X3.6929Y-5.0472
X3.6929Y-5.0866
X3.7244Y-4.9764
X3.7323Y-4.937
X3.7323Y-5.0157
X3.7323Y-5.0472
X3.7323Y-5.0866
X3.748Y-4.811
X3.748Y-4.8661
X3.7638Y-4.9055
X3.7638Y-4.937
X3.7638Y-4.9764
X3.7638Y-5.0157
X3.7638Y-5.0472
X3.7638Y-5.0866
X3.7717Y-4.874
X3.7874Y-4.8031
X3.7953Y-5.0157
X3.7953Y-5.0472
X3.7953Y-5.0866
X3.8268Y-4.8031
X3.8268Y-5.0157
X3.8268Y-5.0472
X3.8268Y-5.0866
X3.8583Y-5.0157
X3.8583Y-5.0472
X3.8583Y-5.0866
X3.8661Y-4.8031
X3.8819Y-4.7717
X3.8898Y-5.0157
X3.8898Y-5.0472
X3.8898Y-5.0866
X3.8976Y-4.7323
X3.8976Y-4.8031
X3.9213Y-4.6299
X3.9213Y-4.7087
X3.9213Y-4.8819
X3.9213Y-4.9134
X3.9213Y-4.9449
X3.9213Y-4.9764
X3.9213Y-5.0157
X3.9213Y-5.0472
X3.9213Y-5.0866
X3.9449Y-4.5669
X3.9449Y-4.6693
X3.9606Y-4.6063
X3.9606Y-4.7087
X3.9606Y-4.8819
X3.9606Y-4.9134
X3.9606Y-4.9449
X3.9606Y-4.9764
X3.9606Y-5.0157
X3.9606Y-5.0472
X3.9606Y-5.0866
X3.9685Y-4.7402
X3.9764Y-4.5276
X3.9764Y-4.6693
X3.9843Y-4.4646
X3.9843Y-4.5748
X3.9843Y-4.6378
X3.9921Y-4.7087
X4.0Y-4.8819
X4.0Y-4.9134
X4.0Y-5.0157
X4.0Y-5.0472
X4.0Y-5.0866
X4.0079Y-4.5039
X4.0157Y-4.5512
X4.0157Y-4.6614
X4.0236Y-4.4331
X4.0315Y-4.4724
X4.0315Y-4.7087
X4.0315Y-4.7402
X4.0394Y-4.5197
X4.0394Y-4.8819
X4.0394Y-4.9134
X4.0394Y-5.0157
X4.0394Y-5.0472
X4.0394Y-5.0866
X4.0551Y-4.2677
X4.0551Y-4.3937
X4.063Y-4.2205
X4.063Y-4.4331
X4.0709Y-4.6063
X4.0709Y-5.0157
X4.0709Y-5.0472
X4.0709Y-5.0866
X4.0787Y-4.2992
X4.0787Y-4.5197
X4.0787Y-4.8819
X4.0787Y-4.9134
X4.0866Y-4.189
X4.0866Y-4.3701
X4.0866Y-4.4016
X4.0945Y-4.7087
X4.1024Y-4.1654
X4.1102Y-4.3307
X4.1102Y-4.7402
X4.1102Y-4.7795
X4.1102Y-4.8189
X4.1102Y-4.8504
X4.1102Y-4.8819
X4.1102Y-4.9134
X4.1181Y-4.1417
X4.1181Y-4.5669
X4.1181Y-4.6772
X4.126Y-4.3858
X4.126Y-4.4803
X4.1417Y-4.1181
X4.1417Y-4.7087
X4.1417Y-4.7402
X4.1417Y-4.7795
X4.1417Y-4.8189
X4.1417Y-4.8504
X4.1417Y-4.8819
X4.1496Y-4.3386
X4.1575Y-4.4094
X4.1654Y-4.0945
X4.1654Y-4.3622
X4.1654Y-4.622
X4.1654Y-5.3386
X4.1732Y-4.7402
X4.1811Y-4.315
X4.1811Y-4.5118
X4.1969Y-4.0709
X4.1969Y-4.3858
X4.1969Y-4.7638
X4.2047Y-4.2913
X4.2047Y-4.3386
X4.2126Y-4.5669
X4.2126Y-4.6614
X4.2126Y-5.2835
X4.2205Y-4.0472
X4.2283Y-4.3071
X4.2283Y-4.4646
X4.2283Y-4.748
X4.2362Y-4.3701
X4.2441Y-4.0236
X4.2441Y-4.5591
X4.2441Y-4.5906
X4.252Y-4.3307
X4.2598Y-4.7244
X4.2598Y-5.3386
X4.2632Y-4.2634
X4.2756Y-4.0236
X4.2756Y-4.5433
X4.2756Y-4.6142
X4.2835Y-4.5118
X4.2835Y-4.5827
X4.2913Y-4.2205
X4.2913Y-4.685
X4.2992Y-4.6457
X4.3071Y-4.0315
X4.3071Y-5.4409
X4.315Y-4.4488
X4.315Y-4.5039
X4.315Y-5.5827
X4.3228Y-4.5433
X4.3307Y-4.0551
X4.3386Y-4.1575
X4.3386Y-4.4803
X4.3577Y-4.5547
X4.362Y-4.2375
X4.3622Y-4.0787
X4.3701Y-4.1181
X4.3858Y-4.4488
X4.3858Y-4.5827
X4.3937Y-4.2126
X4.4173Y-4.6063
X4.4488Y-4.6063
X4.4567Y-5.2047
X4.4803Y-4.0945
X4.4882Y-4.315
X4.4882Y-4.5827
X4.4961Y-4.1181
X4.5039Y-5.1575
X4.5079Y-4.3661
X4.5118Y-4.5512
X4.5276Y-4.4094
X4.5354Y-4.1024
X4.5354Y-4.2451
X4.5354Y-4.5197
X4.5467Y-4.1925
X4.5669Y-4.4409
X4.5669Y-4.4961
X4.5748Y-4.126
X4.5827Y-4.3701
X4.5984Y-4.0945
X4.5984Y-4.1417
X4.5984Y-4.4567
X4.6142Y-4.3543
X4.622Y-3.8898
X4.6299Y-4.8268
X4.6378Y-4.0551
X4.6378Y-4.378
X4.6614Y-4.8494
X4.6693Y-4.5984
X4.714Y-5.0916
X4.7244Y-4.8189
X4.748Y-4.8346
X4.7559Y-4.7087
X4.7638Y-4.6378
X4.7795Y-4.8346
X4.7795Y-4.9606
X4.7869Y-4.779
X4.7953Y-4.6693
X4.7953Y-4.9843
X4.8268Y-4.8976
X4.8504Y-4.311
X4.8849Y-4.9498
X4.8898Y-4.8583
X4.9055Y-4.311
X4.9055Y-4.685
X4.9134Y-4.7165
X4.9213Y-4.3858
X4.9213Y-4.6535
X4.9528Y-4.7638
X4.9606Y-4.3858
X4.9606Y-4.6142
X4.9685Y-4.7087
X4.9921Y-4.9449
X5.0Y-4.7638
X5.0079Y-4.3858
X5.0079Y-4.8268
X5.0236Y-4.4173
X5.0236Y-4.5433
X5.0787Y-4.4016
X5.0787Y-4.5906
X5.0833Y-4.7289
X5.0945Y-4.9449
X5.1102Y-4.6378
X5.1181Y-4.7008
X5.126Y-4.3701
X5.126Y-4.4252
X5.1496Y-4.3071
X5.1654Y-4.3701
X5.1811Y-4.4567
X5.1811Y-4.5276
X5.2126Y-3.9843
X5.2126Y-5.063
X5.2195Y-4.8189
X5.2362Y-4.5512
X5.2362Y-5.0157
X5.2441Y-4.7795
X5.252Y-4.3071
X5.2598Y-4.0315
X5.2598Y-4.7165
X5.2763Y-4.8107
X5.2835Y-4.5276
X5.2913Y-4.4173
X5.2913Y-4.6063
X5.3071Y-4.3858
X5.3071Y-4.6772
X5.3071Y-4.7717
X5.3071Y-4.8031
X5.315Y-4.311
X5.3386Y-4.3543
X5.3543Y-4.2362
X5.3858Y-4.9537
X5.3997Y-4.9304
X5.4306Y-4.5012
X5.4331Y-4.1575
X5.4567Y-4.4724
X5.4803Y-5.685
X5.4859Y-4.9013
X5.4882Y-4.3465
X5.4882Y-4.4409
X5.5056Y-4.8802
X5.5118Y-4.5039
X5.5118Y-4.8425
X5.5354Y-4.2677
X5.5433Y-5.6063
X5.5433Y-5.7559
X5.5748Y-4.315
X5.5906Y-4.6142
X5.6142Y-4.6772
X5.622Y-4.7874
X5.6614Y-4.3858
X5.7008Y-4.3228
X5.7008Y-4.7087
X5.7402Y-5.0472
X5.748Y-4.5118
X5.748Y-4.6142
X5.748Y-4.7087
X5.7953Y-4.7244
X5.7953Y-4.8189
X5.811Y-5.0787
X5.811Y-5.1181
X5.8346Y-5.1417
X5.8583Y-4.9528
X5.874Y-3.7402
X5.874Y-3.8898
X5.9449Y-3.811
X5.9449Y-5.0236
X6.0068Y-5.0017
X6.1024Y-4.7795
X6.1102Y-5.0787
X6.1181Y-5.1339
X6.126Y-4.3622
X6.1339Y-5.1024
X6.1417Y-4.7874
X6.1467Y-4.3356
X6.1496Y-4.9055
X6.1496Y-4.937
X6.1496Y-4.9665
X6.1496Y-4.9921
X6.1575Y-5.0472
X6.2047Y-5.126
X6.2126Y-4.5512
X6.2756Y-4.3465
X6.2756Y-4.5118
X6.2756Y-4.937
X6.2756Y-5.0079
X6.2835Y-4.8425
X6.3071Y-5.126
X6.3228Y-5.0472
X6.3386Y-4.2756
X6.3386Y-4.937
X6.3465Y-4.8425
X6.3543Y-4.5669
X6.3622Y-5.0945
X6.3701Y-4.9921
X6.378Y-4.3937
X6.378Y-4.4646
X6.378Y-4.9449
X6.378Y-5.0236
X6.3858Y-4.1969
X6.3937Y-4.3307
X6.4252Y-4.2283
X6.4724Y-4.7559
X6.4803Y-4.8031
X6.4882Y-5.0787
X6.5118Y-4.5118
X6.5433Y-4.3543
X6.5433Y-4.5276
X6.5669Y-4.2913
X6.6299Y-4.2283
X6.7087Y-4.2913
T3
X3.5118Y-3.5906
X3.5118Y-3.685
X3.5118Y-3.7795
X3.5118Y-3.8819
X3.5118Y-4.0
X3.5748Y-4.0236
X3.5906Y-3.811
X3.6142Y-3.5906
X3.6693Y-4.0236
X3.7165Y-5.1654
X3.7165Y-5.2677
X3.7165Y-5.4803
X3.7165Y-5.5827
X3.7165Y-5.7008
X3.7323Y-3.5906
X3.7638Y-4.0079
X3.7638Y-4.2283
X3.7638Y-4.3228
X3.7638Y-4.4252
X3.7638Y-4.5433
X3.7795Y-5.7323
X3.8268Y-3.5906
X3.8268Y-3.8661
X3.8346Y-4.0
X3.8504Y-4.1654
X3.8583Y-4.3228
X3.874Y-5.5591
X3.874Y-5.7323
X3.8819Y-3.7402
X3.8976Y-4.0787
X3.8976Y-4.4724
X3.9291Y-3.5906
X3.9528Y-4.2047
X3.9685Y-5.2283
X3.9764Y-4.0236
X3.9764Y-5.7323
X4.0Y-4.3228
X4.0236Y-4.126
X4.0394Y-5.6378
X4.0472Y-3.5906
X4.0945Y-5.7323
X4.189Y-3.6378
X4.2126Y-5.7323
X4.2283Y-4.9528
X4.2362Y-4.8189
X4.2598Y-5.2362
X4.2913Y-3.5906
X4.2913Y-5.0945
X4.315Y-5.6929
X4.3465Y-4.8583
X4.3858Y-4.6772
X4.3937Y-3.5906
X4.3937Y-4.0
X4.4331Y-4.9449
X4.4331Y-5.7323
X4.4409Y-4.7795
X4.5118Y-3.5906
X4.5118Y-5.6457
X4.5276Y-5.0709
X4.5276Y-5.7323
X4.6063Y-3.5906
X4.6296Y-4.9534
X4.6299Y-5.7323
X4.6929Y-5.3307
X4.7087Y-3.5906
X4.748Y-5.6535
X4.748Y-5.7323
X4.811Y-3.874
X4.8189Y-3.7165
X4.8268Y-3.5906
X4.8661Y-5.7323
X4.874Y-5.2756
X4.9134Y-5.811
X4.9134Y-5.8898
X4.937Y-3.5906
X4.9685Y-4.1181
X4.9921Y-3.8819
X5.0157Y-5.8898
X5.0551Y-3.5906
X5.1339Y-5.252
X5.1339Y-5.8898
X5.1575Y-3.5906
X5.1969Y-5.811
X5.2205Y-3.7953
X5.2283Y-5.8898
X5.252Y-3.5906
X5.2756Y-5.6535
X5.2913Y-3.7165
X5.2992Y-3.8819
X5.315Y-4.1811
X5.3307Y-5.8898
X5.3701Y-3.5906
X5.378Y-5.0079
X5.3858Y-4.0315
X5.4488Y-5.8898
X5.4567Y-3.7953
X5.4724Y-3.5906
X5.5197Y-3.8819
X5.5591Y-4.2126
X5.5669Y-5.8898
X5.5748Y-3.5906
X5.5827Y-3.7165
X5.6063Y-5.315
X5.6693Y-5.8898
X5.6929Y-3.5906
X5.7008Y-4.9213
X5.7795Y-3.6378
X5.7874Y-5.8898
X5.864Y-5.1578
X5.8819Y-5.8898
X5.8898Y-3.5906
X5.9764Y-5.3228
X5.9843Y-5.8898
X6.0Y-3.622
X6.0374Y-5.1535
X6.0472Y-5.6299
X6.0472Y-5.7874
X6.0787Y-3.8661
X6.0835Y-3.7056
X6.0945Y-4.811
X6.1024Y-5.8898
X6.1181Y-4.1339
X6.126Y-5.3858
X6.1417Y-4.5669
X6.1559Y-3.7779
X6.1575Y-3.9764
X6.2205Y-5.8898
X6.2227Y-3.8448
X6.3062Y-3.9283
X6.315Y-5.8583
X6.3858Y-3.9528
X6.3937Y-5.1732
X6.4488Y-5.8504
X6.4724Y-4.2047
X6.5039Y-3.9528
X6.5354Y-5.8898
X6.5984Y-4.1024
X6.6063Y-3.9528
X6.6378Y-5.8898
X6.685Y-5.4173
X6.7008Y-3.9528
X6.7087Y-5.7559
X6.7402Y-4.063
X6.7559Y-5.8898
X6.7953Y-3.9528
X6.8031Y-4.7795
X6.8425Y-4.0157
X6.8425Y-4.1339
X6.8425Y-4.2362
X6.8425Y-4.3307
X6.8425Y-4.4488
X6.8425Y-4.5512
X6.8425Y-4.6535
X6.8425Y-4.874
X6.8425Y-4.9685
X6.8425Y-5.0866
X6.8425Y-5.189
X6.8425Y-5.3228
X6.8425Y-5.4409
X6.8425Y-5.5433
X6.8425Y-5.6378
X6.8425Y-5.7559
X6.8425Y-5.8583
T4
X3.2717Y-4.1339
X3.2717Y-4.2126
X3.2717Y-4.2913
X3.2717Y-4.3701
X3.2717Y-4.4488
X3.2717Y-4.5276
X3.2717Y-4.6063
X3.2717Y-4.685
X3.2717Y-4.7638
X3.2717Y-4.8425
X3.4685Y-4.2126
X3.4685Y-4.2913
X3.4685Y-4.3701
X3.4685Y-4.4488
X3.4685Y-4.5276
X3.4685Y-4.6063
X3.4685Y-4.685
X3.4685Y-4.7638
X3.4685Y-4.1339
T5
X4.0709Y-3.811
X4.0709Y-3.874
X4.0866Y-3.748
X4.189Y-3.748
X4.1969Y-3.8819
X4.4724Y-3.6378
X4.4724Y-3.7244
X4.6063Y-3.6378
X4.6063Y-3.7244
T6
X5.5433Y-5.685
X5.622Y-5.685
X5.7008Y-5.685
X5.7795Y-5.685
X5.8583Y-5.685
X5.937Y-5.685
T7
X4.1142Y-5.5118
X4.1398Y-3.815
X4.2126Y-5.5118
X4.2382Y-3.815
X4.311Y-5.5118
X4.4094Y-5.5118
X4.5079Y-5.5118
X5.6791Y-3.815
X5.7776Y-3.815
X5.876Y-3.815
X6.1969Y-5.6614
X6.2953Y-5.6614
X6.3937Y-5.6614
X6.4921Y-5.6614
X6.5906Y-5.6614
X6.6339Y-4.2913
X6.6339Y-4.3898
X6.6339Y-4.4882
X6.6339Y-4.5866
X6.6339Y-4.685
X6.6339Y-4.7835
X6.6339Y-4.8819
X6.6339Y-4.9803
X6.6339Y-5.0787
X6.6339Y-5.1772
X6.6339Y-5.2756
T8
X5.9419Y-4.3555
X5.9419Y-4.4555
X5.9419Y-4.5555
X5.9419Y-4.6555
X5.9419Y-4.7555
X5.9419Y-4.8555
X5.9419Y-4.9555
T9
X4.9098Y-4.0323
X4.9098Y-5.0165
X5.1598Y-4.1323
X5.1598Y-5.1165
M30
