%TF.GenerationSoftware,KiCad,Pcbnew,8.0.4-8.0.4-0~ubuntu22.04.1*%
%TF.CreationDate,2024-08-24T11:34:41-03:00*%
%TF.ProjectId,Antares-Transmitter,416e7461-7265-4732-9d54-72616e736d69,1.0.0*%
%TF.SameCoordinates,Original*%
%TF.FileFunction,Other,User*%
%FSLAX46Y46*%
G04 Gerber Fmt 4.6, Leading zero omitted, Abs format (unit mm)*
G04 Created by KiCad (PCBNEW 8.0.4-8.0.4-0~ubuntu22.04.1) date 2024-08-24 11:34:41*
%MOMM*%
%LPD*%
G01*
G04 APERTURE LIST*
%ADD10C,0.150000*%
%ADD11C,0.100000*%
G04 APERTURE END LIST*
D10*
X113333334Y-64942991D02*
X114000000Y-64942991D01*
X114000000Y-64942991D02*
X113571429Y-65942991D01*
X114809524Y-65276324D02*
X114809524Y-65942991D01*
X114571429Y-64895372D02*
X114333334Y-65609657D01*
X114333334Y-65609657D02*
X114952381Y-65609657D01*
X115333334Y-65847752D02*
X115380953Y-65895372D01*
X115380953Y-65895372D02*
X115333334Y-65942991D01*
X115333334Y-65942991D02*
X115285715Y-65895372D01*
X115285715Y-65895372D02*
X115333334Y-65847752D01*
X115333334Y-65847752D02*
X115333334Y-65942991D01*
X116000000Y-64942991D02*
X116095238Y-64942991D01*
X116095238Y-64942991D02*
X116190476Y-64990610D01*
X116190476Y-64990610D02*
X116238095Y-65038229D01*
X116238095Y-65038229D02*
X116285714Y-65133467D01*
X116285714Y-65133467D02*
X116333333Y-65323943D01*
X116333333Y-65323943D02*
X116333333Y-65562038D01*
X116333333Y-65562038D02*
X116285714Y-65752514D01*
X116285714Y-65752514D02*
X116238095Y-65847752D01*
X116238095Y-65847752D02*
X116190476Y-65895372D01*
X116190476Y-65895372D02*
X116095238Y-65942991D01*
X116095238Y-65942991D02*
X116000000Y-65942991D01*
X116000000Y-65942991D02*
X115904762Y-65895372D01*
X115904762Y-65895372D02*
X115857143Y-65847752D01*
X115857143Y-65847752D02*
X115809524Y-65752514D01*
X115809524Y-65752514D02*
X115761905Y-65562038D01*
X115761905Y-65562038D02*
X115761905Y-65323943D01*
X115761905Y-65323943D02*
X115809524Y-65133467D01*
X115809524Y-65133467D02*
X115857143Y-65038229D01*
X115857143Y-65038229D02*
X115904762Y-64990610D01*
X115904762Y-64990610D02*
X116000000Y-64942991D01*
X116952381Y-64942991D02*
X117047619Y-64942991D01*
X117047619Y-64942991D02*
X117142857Y-64990610D01*
X117142857Y-64990610D02*
X117190476Y-65038229D01*
X117190476Y-65038229D02*
X117238095Y-65133467D01*
X117238095Y-65133467D02*
X117285714Y-65323943D01*
X117285714Y-65323943D02*
X117285714Y-65562038D01*
X117285714Y-65562038D02*
X117238095Y-65752514D01*
X117238095Y-65752514D02*
X117190476Y-65847752D01*
X117190476Y-65847752D02*
X117142857Y-65895372D01*
X117142857Y-65895372D02*
X117047619Y-65942991D01*
X117047619Y-65942991D02*
X116952381Y-65942991D01*
X116952381Y-65942991D02*
X116857143Y-65895372D01*
X116857143Y-65895372D02*
X116809524Y-65847752D01*
X116809524Y-65847752D02*
X116761905Y-65752514D01*
X116761905Y-65752514D02*
X116714286Y-65562038D01*
X116714286Y-65562038D02*
X116714286Y-65323943D01*
X116714286Y-65323943D02*
X116761905Y-65133467D01*
X116761905Y-65133467D02*
X116809524Y-65038229D01*
X116809524Y-65038229D02*
X116857143Y-64990610D01*
X116857143Y-64990610D02*
X116952381Y-64942991D01*
X117904762Y-64942991D02*
X118000000Y-64942991D01*
X118000000Y-64942991D02*
X118095238Y-64990610D01*
X118095238Y-64990610D02*
X118142857Y-65038229D01*
X118142857Y-65038229D02*
X118190476Y-65133467D01*
X118190476Y-65133467D02*
X118238095Y-65323943D01*
X118238095Y-65323943D02*
X118238095Y-65562038D01*
X118238095Y-65562038D02*
X118190476Y-65752514D01*
X118190476Y-65752514D02*
X118142857Y-65847752D01*
X118142857Y-65847752D02*
X118095238Y-65895372D01*
X118095238Y-65895372D02*
X118000000Y-65942991D01*
X118000000Y-65942991D02*
X117904762Y-65942991D01*
X117904762Y-65942991D02*
X117809524Y-65895372D01*
X117809524Y-65895372D02*
X117761905Y-65847752D01*
X117761905Y-65847752D02*
X117714286Y-65752514D01*
X117714286Y-65752514D02*
X117666667Y-65562038D01*
X117666667Y-65562038D02*
X117666667Y-65323943D01*
X117666667Y-65323943D02*
X117714286Y-65133467D01*
X117714286Y-65133467D02*
X117761905Y-65038229D01*
X117761905Y-65038229D02*
X117809524Y-64990610D01*
X117809524Y-64990610D02*
X117904762Y-64942991D01*
X118857143Y-64942991D02*
X118952381Y-64942991D01*
X118952381Y-64942991D02*
X119047619Y-64990610D01*
X119047619Y-64990610D02*
X119095238Y-65038229D01*
X119095238Y-65038229D02*
X119142857Y-65133467D01*
X119142857Y-65133467D02*
X119190476Y-65323943D01*
X119190476Y-65323943D02*
X119190476Y-65562038D01*
X119190476Y-65562038D02*
X119142857Y-65752514D01*
X119142857Y-65752514D02*
X119095238Y-65847752D01*
X119095238Y-65847752D02*
X119047619Y-65895372D01*
X119047619Y-65895372D02*
X118952381Y-65942991D01*
X118952381Y-65942991D02*
X118857143Y-65942991D01*
X118857143Y-65942991D02*
X118761905Y-65895372D01*
X118761905Y-65895372D02*
X118714286Y-65847752D01*
X118714286Y-65847752D02*
X118666667Y-65752514D01*
X118666667Y-65752514D02*
X118619048Y-65562038D01*
X118619048Y-65562038D02*
X118619048Y-65323943D01*
X118619048Y-65323943D02*
X118666667Y-65133467D01*
X118666667Y-65133467D02*
X118714286Y-65038229D01*
X118714286Y-65038229D02*
X118761905Y-64990610D01*
X118761905Y-64990610D02*
X118857143Y-64942991D01*
X120380953Y-65942991D02*
X120380953Y-65276324D01*
X120380953Y-65371562D02*
X120428572Y-65323943D01*
X120428572Y-65323943D02*
X120523810Y-65276324D01*
X120523810Y-65276324D02*
X120666667Y-65276324D01*
X120666667Y-65276324D02*
X120761905Y-65323943D01*
X120761905Y-65323943D02*
X120809524Y-65419181D01*
X120809524Y-65419181D02*
X120809524Y-65942991D01*
X120809524Y-65419181D02*
X120857143Y-65323943D01*
X120857143Y-65323943D02*
X120952381Y-65276324D01*
X120952381Y-65276324D02*
X121095238Y-65276324D01*
X121095238Y-65276324D02*
X121190477Y-65323943D01*
X121190477Y-65323943D02*
X121238096Y-65419181D01*
X121238096Y-65419181D02*
X121238096Y-65942991D01*
X121714286Y-65942991D02*
X121714286Y-65276324D01*
X121714286Y-65371562D02*
X121761905Y-65323943D01*
X121761905Y-65323943D02*
X121857143Y-65276324D01*
X121857143Y-65276324D02*
X122000000Y-65276324D01*
X122000000Y-65276324D02*
X122095238Y-65323943D01*
X122095238Y-65323943D02*
X122142857Y-65419181D01*
X122142857Y-65419181D02*
X122142857Y-65942991D01*
X122142857Y-65419181D02*
X122190476Y-65323943D01*
X122190476Y-65323943D02*
X122285714Y-65276324D01*
X122285714Y-65276324D02*
X122428571Y-65276324D01*
X122428571Y-65276324D02*
X122523810Y-65323943D01*
X122523810Y-65323943D02*
X122571429Y-65419181D01*
X122571429Y-65419181D02*
X122571429Y-65942991D01*
D11*
X155000000Y-77138172D02*
X155000000Y-66051752D01*
X81000000Y-77138172D02*
X81000000Y-66051752D01*
X155000000Y-66638172D02*
X81000000Y-66638172D01*
X155000000Y-66638172D02*
X81000000Y-66638172D01*
X155000000Y-66638172D02*
X153873496Y-67224593D01*
X155000000Y-66638172D02*
X153873496Y-66051751D01*
X81000000Y-66638172D02*
X82126504Y-66051751D01*
X81000000Y-66638172D02*
X82126504Y-67224593D01*
D10*
X135333334Y-68942992D02*
X135952381Y-68942992D01*
X135952381Y-68942992D02*
X135619048Y-69323944D01*
X135619048Y-69323944D02*
X135761905Y-69323944D01*
X135761905Y-69323944D02*
X135857143Y-69371563D01*
X135857143Y-69371563D02*
X135904762Y-69419182D01*
X135904762Y-69419182D02*
X135952381Y-69514420D01*
X135952381Y-69514420D02*
X135952381Y-69752515D01*
X135952381Y-69752515D02*
X135904762Y-69847753D01*
X135904762Y-69847753D02*
X135857143Y-69895373D01*
X135857143Y-69895373D02*
X135761905Y-69942992D01*
X135761905Y-69942992D02*
X135476191Y-69942992D01*
X135476191Y-69942992D02*
X135380953Y-69895373D01*
X135380953Y-69895373D02*
X135333334Y-69847753D01*
X136571429Y-68942992D02*
X136666667Y-68942992D01*
X136666667Y-68942992D02*
X136761905Y-68990611D01*
X136761905Y-68990611D02*
X136809524Y-69038230D01*
X136809524Y-69038230D02*
X136857143Y-69133468D01*
X136857143Y-69133468D02*
X136904762Y-69323944D01*
X136904762Y-69323944D02*
X136904762Y-69562039D01*
X136904762Y-69562039D02*
X136857143Y-69752515D01*
X136857143Y-69752515D02*
X136809524Y-69847753D01*
X136809524Y-69847753D02*
X136761905Y-69895373D01*
X136761905Y-69895373D02*
X136666667Y-69942992D01*
X136666667Y-69942992D02*
X136571429Y-69942992D01*
X136571429Y-69942992D02*
X136476191Y-69895373D01*
X136476191Y-69895373D02*
X136428572Y-69847753D01*
X136428572Y-69847753D02*
X136380953Y-69752515D01*
X136380953Y-69752515D02*
X136333334Y-69562039D01*
X136333334Y-69562039D02*
X136333334Y-69323944D01*
X136333334Y-69323944D02*
X136380953Y-69133468D01*
X136380953Y-69133468D02*
X136428572Y-69038230D01*
X136428572Y-69038230D02*
X136476191Y-68990611D01*
X136476191Y-68990611D02*
X136571429Y-68942992D01*
X137333334Y-69847753D02*
X137380953Y-69895373D01*
X137380953Y-69895373D02*
X137333334Y-69942992D01*
X137333334Y-69942992D02*
X137285715Y-69895373D01*
X137285715Y-69895373D02*
X137333334Y-69847753D01*
X137333334Y-69847753D02*
X137333334Y-69942992D01*
X138000000Y-68942992D02*
X138095238Y-68942992D01*
X138095238Y-68942992D02*
X138190476Y-68990611D01*
X138190476Y-68990611D02*
X138238095Y-69038230D01*
X138238095Y-69038230D02*
X138285714Y-69133468D01*
X138285714Y-69133468D02*
X138333333Y-69323944D01*
X138333333Y-69323944D02*
X138333333Y-69562039D01*
X138333333Y-69562039D02*
X138285714Y-69752515D01*
X138285714Y-69752515D02*
X138238095Y-69847753D01*
X138238095Y-69847753D02*
X138190476Y-69895373D01*
X138190476Y-69895373D02*
X138095238Y-69942992D01*
X138095238Y-69942992D02*
X138000000Y-69942992D01*
X138000000Y-69942992D02*
X137904762Y-69895373D01*
X137904762Y-69895373D02*
X137857143Y-69847753D01*
X137857143Y-69847753D02*
X137809524Y-69752515D01*
X137809524Y-69752515D02*
X137761905Y-69562039D01*
X137761905Y-69562039D02*
X137761905Y-69323944D01*
X137761905Y-69323944D02*
X137809524Y-69133468D01*
X137809524Y-69133468D02*
X137857143Y-69038230D01*
X137857143Y-69038230D02*
X137904762Y-68990611D01*
X137904762Y-68990611D02*
X138000000Y-68942992D01*
X138952381Y-68942992D02*
X139047619Y-68942992D01*
X139047619Y-68942992D02*
X139142857Y-68990611D01*
X139142857Y-68990611D02*
X139190476Y-69038230D01*
X139190476Y-69038230D02*
X139238095Y-69133468D01*
X139238095Y-69133468D02*
X139285714Y-69323944D01*
X139285714Y-69323944D02*
X139285714Y-69562039D01*
X139285714Y-69562039D02*
X139238095Y-69752515D01*
X139238095Y-69752515D02*
X139190476Y-69847753D01*
X139190476Y-69847753D02*
X139142857Y-69895373D01*
X139142857Y-69895373D02*
X139047619Y-69942992D01*
X139047619Y-69942992D02*
X138952381Y-69942992D01*
X138952381Y-69942992D02*
X138857143Y-69895373D01*
X138857143Y-69895373D02*
X138809524Y-69847753D01*
X138809524Y-69847753D02*
X138761905Y-69752515D01*
X138761905Y-69752515D02*
X138714286Y-69562039D01*
X138714286Y-69562039D02*
X138714286Y-69323944D01*
X138714286Y-69323944D02*
X138761905Y-69133468D01*
X138761905Y-69133468D02*
X138809524Y-69038230D01*
X138809524Y-69038230D02*
X138857143Y-68990611D01*
X138857143Y-68990611D02*
X138952381Y-68942992D01*
X139904762Y-68942992D02*
X140000000Y-68942992D01*
X140000000Y-68942992D02*
X140095238Y-68990611D01*
X140095238Y-68990611D02*
X140142857Y-69038230D01*
X140142857Y-69038230D02*
X140190476Y-69133468D01*
X140190476Y-69133468D02*
X140238095Y-69323944D01*
X140238095Y-69323944D02*
X140238095Y-69562039D01*
X140238095Y-69562039D02*
X140190476Y-69752515D01*
X140190476Y-69752515D02*
X140142857Y-69847753D01*
X140142857Y-69847753D02*
X140095238Y-69895373D01*
X140095238Y-69895373D02*
X140000000Y-69942992D01*
X140000000Y-69942992D02*
X139904762Y-69942992D01*
X139904762Y-69942992D02*
X139809524Y-69895373D01*
X139809524Y-69895373D02*
X139761905Y-69847753D01*
X139761905Y-69847753D02*
X139714286Y-69752515D01*
X139714286Y-69752515D02*
X139666667Y-69562039D01*
X139666667Y-69562039D02*
X139666667Y-69323944D01*
X139666667Y-69323944D02*
X139714286Y-69133468D01*
X139714286Y-69133468D02*
X139761905Y-69038230D01*
X139761905Y-69038230D02*
X139809524Y-68990611D01*
X139809524Y-68990611D02*
X139904762Y-68942992D01*
X140857143Y-68942992D02*
X140952381Y-68942992D01*
X140952381Y-68942992D02*
X141047619Y-68990611D01*
X141047619Y-68990611D02*
X141095238Y-69038230D01*
X141095238Y-69038230D02*
X141142857Y-69133468D01*
X141142857Y-69133468D02*
X141190476Y-69323944D01*
X141190476Y-69323944D02*
X141190476Y-69562039D01*
X141190476Y-69562039D02*
X141142857Y-69752515D01*
X141142857Y-69752515D02*
X141095238Y-69847753D01*
X141095238Y-69847753D02*
X141047619Y-69895373D01*
X141047619Y-69895373D02*
X140952381Y-69942992D01*
X140952381Y-69942992D02*
X140857143Y-69942992D01*
X140857143Y-69942992D02*
X140761905Y-69895373D01*
X140761905Y-69895373D02*
X140714286Y-69847753D01*
X140714286Y-69847753D02*
X140666667Y-69752515D01*
X140666667Y-69752515D02*
X140619048Y-69562039D01*
X140619048Y-69562039D02*
X140619048Y-69323944D01*
X140619048Y-69323944D02*
X140666667Y-69133468D01*
X140666667Y-69133468D02*
X140714286Y-69038230D01*
X140714286Y-69038230D02*
X140761905Y-68990611D01*
X140761905Y-68990611D02*
X140857143Y-68942992D01*
X142380953Y-69942992D02*
X142380953Y-69276325D01*
X142380953Y-69371563D02*
X142428572Y-69323944D01*
X142428572Y-69323944D02*
X142523810Y-69276325D01*
X142523810Y-69276325D02*
X142666667Y-69276325D01*
X142666667Y-69276325D02*
X142761905Y-69323944D01*
X142761905Y-69323944D02*
X142809524Y-69419182D01*
X142809524Y-69419182D02*
X142809524Y-69942992D01*
X142809524Y-69419182D02*
X142857143Y-69323944D01*
X142857143Y-69323944D02*
X142952381Y-69276325D01*
X142952381Y-69276325D02*
X143095238Y-69276325D01*
X143095238Y-69276325D02*
X143190477Y-69323944D01*
X143190477Y-69323944D02*
X143238096Y-69419182D01*
X143238096Y-69419182D02*
X143238096Y-69942992D01*
X143714286Y-69942992D02*
X143714286Y-69276325D01*
X143714286Y-69371563D02*
X143761905Y-69323944D01*
X143761905Y-69323944D02*
X143857143Y-69276325D01*
X143857143Y-69276325D02*
X144000000Y-69276325D01*
X144000000Y-69276325D02*
X144095238Y-69323944D01*
X144095238Y-69323944D02*
X144142857Y-69419182D01*
X144142857Y-69419182D02*
X144142857Y-69942992D01*
X144142857Y-69419182D02*
X144190476Y-69323944D01*
X144190476Y-69323944D02*
X144285714Y-69276325D01*
X144285714Y-69276325D02*
X144428571Y-69276325D01*
X144428571Y-69276325D02*
X144523810Y-69323944D01*
X144523810Y-69323944D02*
X144571429Y-69419182D01*
X144571429Y-69419182D02*
X144571429Y-69942992D01*
D11*
X125000000Y-74138172D02*
X125000000Y-70051753D01*
X155000000Y-74138172D02*
X155000000Y-70051753D01*
X125000000Y-70638173D02*
X155000000Y-70638173D01*
X125000000Y-70638173D02*
X155000000Y-70638173D01*
X125000000Y-70638173D02*
X126126504Y-70051752D01*
X125000000Y-70638173D02*
X126126504Y-71224594D01*
X155000000Y-70638173D02*
X153873496Y-71224594D01*
X155000000Y-70638173D02*
X153873496Y-70051752D01*
D10*
X98857143Y-69276324D02*
X98857143Y-69942991D01*
X98619048Y-68895372D02*
X98380953Y-69609657D01*
X98380953Y-69609657D02*
X99000000Y-69609657D01*
X99809524Y-69276324D02*
X99809524Y-69942991D01*
X99571429Y-68895372D02*
X99333334Y-69609657D01*
X99333334Y-69609657D02*
X99952381Y-69609657D01*
X100333334Y-69847752D02*
X100380953Y-69895372D01*
X100380953Y-69895372D02*
X100333334Y-69942991D01*
X100333334Y-69942991D02*
X100285715Y-69895372D01*
X100285715Y-69895372D02*
X100333334Y-69847752D01*
X100333334Y-69847752D02*
X100333334Y-69942991D01*
X101000000Y-68942991D02*
X101095238Y-68942991D01*
X101095238Y-68942991D02*
X101190476Y-68990610D01*
X101190476Y-68990610D02*
X101238095Y-69038229D01*
X101238095Y-69038229D02*
X101285714Y-69133467D01*
X101285714Y-69133467D02*
X101333333Y-69323943D01*
X101333333Y-69323943D02*
X101333333Y-69562038D01*
X101333333Y-69562038D02*
X101285714Y-69752514D01*
X101285714Y-69752514D02*
X101238095Y-69847752D01*
X101238095Y-69847752D02*
X101190476Y-69895372D01*
X101190476Y-69895372D02*
X101095238Y-69942991D01*
X101095238Y-69942991D02*
X101000000Y-69942991D01*
X101000000Y-69942991D02*
X100904762Y-69895372D01*
X100904762Y-69895372D02*
X100857143Y-69847752D01*
X100857143Y-69847752D02*
X100809524Y-69752514D01*
X100809524Y-69752514D02*
X100761905Y-69562038D01*
X100761905Y-69562038D02*
X100761905Y-69323943D01*
X100761905Y-69323943D02*
X100809524Y-69133467D01*
X100809524Y-69133467D02*
X100857143Y-69038229D01*
X100857143Y-69038229D02*
X100904762Y-68990610D01*
X100904762Y-68990610D02*
X101000000Y-68942991D01*
X101952381Y-68942991D02*
X102047619Y-68942991D01*
X102047619Y-68942991D02*
X102142857Y-68990610D01*
X102142857Y-68990610D02*
X102190476Y-69038229D01*
X102190476Y-69038229D02*
X102238095Y-69133467D01*
X102238095Y-69133467D02*
X102285714Y-69323943D01*
X102285714Y-69323943D02*
X102285714Y-69562038D01*
X102285714Y-69562038D02*
X102238095Y-69752514D01*
X102238095Y-69752514D02*
X102190476Y-69847752D01*
X102190476Y-69847752D02*
X102142857Y-69895372D01*
X102142857Y-69895372D02*
X102047619Y-69942991D01*
X102047619Y-69942991D02*
X101952381Y-69942991D01*
X101952381Y-69942991D02*
X101857143Y-69895372D01*
X101857143Y-69895372D02*
X101809524Y-69847752D01*
X101809524Y-69847752D02*
X101761905Y-69752514D01*
X101761905Y-69752514D02*
X101714286Y-69562038D01*
X101714286Y-69562038D02*
X101714286Y-69323943D01*
X101714286Y-69323943D02*
X101761905Y-69133467D01*
X101761905Y-69133467D02*
X101809524Y-69038229D01*
X101809524Y-69038229D02*
X101857143Y-68990610D01*
X101857143Y-68990610D02*
X101952381Y-68942991D01*
X102904762Y-68942991D02*
X103000000Y-68942991D01*
X103000000Y-68942991D02*
X103095238Y-68990610D01*
X103095238Y-68990610D02*
X103142857Y-69038229D01*
X103142857Y-69038229D02*
X103190476Y-69133467D01*
X103190476Y-69133467D02*
X103238095Y-69323943D01*
X103238095Y-69323943D02*
X103238095Y-69562038D01*
X103238095Y-69562038D02*
X103190476Y-69752514D01*
X103190476Y-69752514D02*
X103142857Y-69847752D01*
X103142857Y-69847752D02*
X103095238Y-69895372D01*
X103095238Y-69895372D02*
X103000000Y-69942991D01*
X103000000Y-69942991D02*
X102904762Y-69942991D01*
X102904762Y-69942991D02*
X102809524Y-69895372D01*
X102809524Y-69895372D02*
X102761905Y-69847752D01*
X102761905Y-69847752D02*
X102714286Y-69752514D01*
X102714286Y-69752514D02*
X102666667Y-69562038D01*
X102666667Y-69562038D02*
X102666667Y-69323943D01*
X102666667Y-69323943D02*
X102714286Y-69133467D01*
X102714286Y-69133467D02*
X102761905Y-69038229D01*
X102761905Y-69038229D02*
X102809524Y-68990610D01*
X102809524Y-68990610D02*
X102904762Y-68942991D01*
X103857143Y-68942991D02*
X103952381Y-68942991D01*
X103952381Y-68942991D02*
X104047619Y-68990610D01*
X104047619Y-68990610D02*
X104095238Y-69038229D01*
X104095238Y-69038229D02*
X104142857Y-69133467D01*
X104142857Y-69133467D02*
X104190476Y-69323943D01*
X104190476Y-69323943D02*
X104190476Y-69562038D01*
X104190476Y-69562038D02*
X104142857Y-69752514D01*
X104142857Y-69752514D02*
X104095238Y-69847752D01*
X104095238Y-69847752D02*
X104047619Y-69895372D01*
X104047619Y-69895372D02*
X103952381Y-69942991D01*
X103952381Y-69942991D02*
X103857143Y-69942991D01*
X103857143Y-69942991D02*
X103761905Y-69895372D01*
X103761905Y-69895372D02*
X103714286Y-69847752D01*
X103714286Y-69847752D02*
X103666667Y-69752514D01*
X103666667Y-69752514D02*
X103619048Y-69562038D01*
X103619048Y-69562038D02*
X103619048Y-69323943D01*
X103619048Y-69323943D02*
X103666667Y-69133467D01*
X103666667Y-69133467D02*
X103714286Y-69038229D01*
X103714286Y-69038229D02*
X103761905Y-68990610D01*
X103761905Y-68990610D02*
X103857143Y-68942991D01*
X105380953Y-69942991D02*
X105380953Y-69276324D01*
X105380953Y-69371562D02*
X105428572Y-69323943D01*
X105428572Y-69323943D02*
X105523810Y-69276324D01*
X105523810Y-69276324D02*
X105666667Y-69276324D01*
X105666667Y-69276324D02*
X105761905Y-69323943D01*
X105761905Y-69323943D02*
X105809524Y-69419181D01*
X105809524Y-69419181D02*
X105809524Y-69942991D01*
X105809524Y-69419181D02*
X105857143Y-69323943D01*
X105857143Y-69323943D02*
X105952381Y-69276324D01*
X105952381Y-69276324D02*
X106095238Y-69276324D01*
X106095238Y-69276324D02*
X106190477Y-69323943D01*
X106190477Y-69323943D02*
X106238096Y-69419181D01*
X106238096Y-69419181D02*
X106238096Y-69942991D01*
X106714286Y-69942991D02*
X106714286Y-69276324D01*
X106714286Y-69371562D02*
X106761905Y-69323943D01*
X106761905Y-69323943D02*
X106857143Y-69276324D01*
X106857143Y-69276324D02*
X107000000Y-69276324D01*
X107000000Y-69276324D02*
X107095238Y-69323943D01*
X107095238Y-69323943D02*
X107142857Y-69419181D01*
X107142857Y-69419181D02*
X107142857Y-69942991D01*
X107142857Y-69419181D02*
X107190476Y-69323943D01*
X107190476Y-69323943D02*
X107285714Y-69276324D01*
X107285714Y-69276324D02*
X107428571Y-69276324D01*
X107428571Y-69276324D02*
X107523810Y-69323943D01*
X107523810Y-69323943D02*
X107571429Y-69419181D01*
X107571429Y-69419181D02*
X107571429Y-69942991D01*
D11*
X81000000Y-74138172D02*
X81000000Y-70051752D01*
X125000000Y-74138172D02*
X125000000Y-70051752D01*
X81000000Y-70638172D02*
X125000000Y-70638172D01*
X81000000Y-70638172D02*
X125000000Y-70638172D01*
X81000000Y-70638172D02*
X82126504Y-70051751D01*
X81000000Y-70638172D02*
X82126504Y-71224593D01*
X125000000Y-70638172D02*
X123873496Y-71224593D01*
X125000000Y-70638172D02*
X123873496Y-70051751D01*
D10*
X83304819Y-80328647D02*
X83304819Y-79709600D01*
X83304819Y-79709600D02*
X83685771Y-80042933D01*
X83685771Y-80042933D02*
X83685771Y-79900076D01*
X83685771Y-79900076D02*
X83733390Y-79804838D01*
X83733390Y-79804838D02*
X83781009Y-79757219D01*
X83781009Y-79757219D02*
X83876247Y-79709600D01*
X83876247Y-79709600D02*
X84114342Y-79709600D01*
X84114342Y-79709600D02*
X84209580Y-79757219D01*
X84209580Y-79757219D02*
X84257200Y-79804838D01*
X84257200Y-79804838D02*
X84304819Y-79900076D01*
X84304819Y-79900076D02*
X84304819Y-80185790D01*
X84304819Y-80185790D02*
X84257200Y-80281028D01*
X84257200Y-80281028D02*
X84209580Y-80328647D01*
X84209580Y-79281028D02*
X84257200Y-79233409D01*
X84257200Y-79233409D02*
X84304819Y-79281028D01*
X84304819Y-79281028D02*
X84257200Y-79328647D01*
X84257200Y-79328647D02*
X84209580Y-79281028D01*
X84209580Y-79281028D02*
X84304819Y-79281028D01*
X83304819Y-78614362D02*
X83304819Y-78519124D01*
X83304819Y-78519124D02*
X83352438Y-78423886D01*
X83352438Y-78423886D02*
X83400057Y-78376267D01*
X83400057Y-78376267D02*
X83495295Y-78328648D01*
X83495295Y-78328648D02*
X83685771Y-78281029D01*
X83685771Y-78281029D02*
X83923866Y-78281029D01*
X83923866Y-78281029D02*
X84114342Y-78328648D01*
X84114342Y-78328648D02*
X84209580Y-78376267D01*
X84209580Y-78376267D02*
X84257200Y-78423886D01*
X84257200Y-78423886D02*
X84304819Y-78519124D01*
X84304819Y-78519124D02*
X84304819Y-78614362D01*
X84304819Y-78614362D02*
X84257200Y-78709600D01*
X84257200Y-78709600D02*
X84209580Y-78757219D01*
X84209580Y-78757219D02*
X84114342Y-78804838D01*
X84114342Y-78804838D02*
X83923866Y-78852457D01*
X83923866Y-78852457D02*
X83685771Y-78852457D01*
X83685771Y-78852457D02*
X83495295Y-78804838D01*
X83495295Y-78804838D02*
X83400057Y-78757219D01*
X83400057Y-78757219D02*
X83352438Y-78709600D01*
X83352438Y-78709600D02*
X83304819Y-78614362D01*
X83304819Y-77661981D02*
X83304819Y-77566743D01*
X83304819Y-77566743D02*
X83352438Y-77471505D01*
X83352438Y-77471505D02*
X83400057Y-77423886D01*
X83400057Y-77423886D02*
X83495295Y-77376267D01*
X83495295Y-77376267D02*
X83685771Y-77328648D01*
X83685771Y-77328648D02*
X83923866Y-77328648D01*
X83923866Y-77328648D02*
X84114342Y-77376267D01*
X84114342Y-77376267D02*
X84209580Y-77423886D01*
X84209580Y-77423886D02*
X84257200Y-77471505D01*
X84257200Y-77471505D02*
X84304819Y-77566743D01*
X84304819Y-77566743D02*
X84304819Y-77661981D01*
X84304819Y-77661981D02*
X84257200Y-77757219D01*
X84257200Y-77757219D02*
X84209580Y-77804838D01*
X84209580Y-77804838D02*
X84114342Y-77852457D01*
X84114342Y-77852457D02*
X83923866Y-77900076D01*
X83923866Y-77900076D02*
X83685771Y-77900076D01*
X83685771Y-77900076D02*
X83495295Y-77852457D01*
X83495295Y-77852457D02*
X83400057Y-77804838D01*
X83400057Y-77804838D02*
X83352438Y-77757219D01*
X83352438Y-77757219D02*
X83304819Y-77661981D01*
X83304819Y-76709600D02*
X83304819Y-76614362D01*
X83304819Y-76614362D02*
X83352438Y-76519124D01*
X83352438Y-76519124D02*
X83400057Y-76471505D01*
X83400057Y-76471505D02*
X83495295Y-76423886D01*
X83495295Y-76423886D02*
X83685771Y-76376267D01*
X83685771Y-76376267D02*
X83923866Y-76376267D01*
X83923866Y-76376267D02*
X84114342Y-76423886D01*
X84114342Y-76423886D02*
X84209580Y-76471505D01*
X84209580Y-76471505D02*
X84257200Y-76519124D01*
X84257200Y-76519124D02*
X84304819Y-76614362D01*
X84304819Y-76614362D02*
X84304819Y-76709600D01*
X84304819Y-76709600D02*
X84257200Y-76804838D01*
X84257200Y-76804838D02*
X84209580Y-76852457D01*
X84209580Y-76852457D02*
X84114342Y-76900076D01*
X84114342Y-76900076D02*
X83923866Y-76947695D01*
X83923866Y-76947695D02*
X83685771Y-76947695D01*
X83685771Y-76947695D02*
X83495295Y-76900076D01*
X83495295Y-76900076D02*
X83400057Y-76852457D01*
X83400057Y-76852457D02*
X83352438Y-76804838D01*
X83352438Y-76804838D02*
X83304819Y-76709600D01*
X83304819Y-75757219D02*
X83304819Y-75661981D01*
X83304819Y-75661981D02*
X83352438Y-75566743D01*
X83352438Y-75566743D02*
X83400057Y-75519124D01*
X83400057Y-75519124D02*
X83495295Y-75471505D01*
X83495295Y-75471505D02*
X83685771Y-75423886D01*
X83685771Y-75423886D02*
X83923866Y-75423886D01*
X83923866Y-75423886D02*
X84114342Y-75471505D01*
X84114342Y-75471505D02*
X84209580Y-75519124D01*
X84209580Y-75519124D02*
X84257200Y-75566743D01*
X84257200Y-75566743D02*
X84304819Y-75661981D01*
X84304819Y-75661981D02*
X84304819Y-75757219D01*
X84304819Y-75757219D02*
X84257200Y-75852457D01*
X84257200Y-75852457D02*
X84209580Y-75900076D01*
X84209580Y-75900076D02*
X84114342Y-75947695D01*
X84114342Y-75947695D02*
X83923866Y-75995314D01*
X83923866Y-75995314D02*
X83685771Y-75995314D01*
X83685771Y-75995314D02*
X83495295Y-75947695D01*
X83495295Y-75947695D02*
X83400057Y-75900076D01*
X83400057Y-75900076D02*
X83352438Y-75852457D01*
X83352438Y-75852457D02*
X83304819Y-75757219D01*
X84304819Y-74233409D02*
X83638152Y-74233409D01*
X83733390Y-74233409D02*
X83685771Y-74185790D01*
X83685771Y-74185790D02*
X83638152Y-74090552D01*
X83638152Y-74090552D02*
X83638152Y-73947695D01*
X83638152Y-73947695D02*
X83685771Y-73852457D01*
X83685771Y-73852457D02*
X83781009Y-73804838D01*
X83781009Y-73804838D02*
X84304819Y-73804838D01*
X83781009Y-73804838D02*
X83685771Y-73757219D01*
X83685771Y-73757219D02*
X83638152Y-73661981D01*
X83638152Y-73661981D02*
X83638152Y-73519124D01*
X83638152Y-73519124D02*
X83685771Y-73423885D01*
X83685771Y-73423885D02*
X83781009Y-73376266D01*
X83781009Y-73376266D02*
X84304819Y-73376266D01*
X84304819Y-72900076D02*
X83638152Y-72900076D01*
X83733390Y-72900076D02*
X83685771Y-72852457D01*
X83685771Y-72852457D02*
X83638152Y-72757219D01*
X83638152Y-72757219D02*
X83638152Y-72614362D01*
X83638152Y-72614362D02*
X83685771Y-72519124D01*
X83685771Y-72519124D02*
X83781009Y-72471505D01*
X83781009Y-72471505D02*
X84304819Y-72471505D01*
X83781009Y-72471505D02*
X83685771Y-72423886D01*
X83685771Y-72423886D02*
X83638152Y-72328648D01*
X83638152Y-72328648D02*
X83638152Y-72185791D01*
X83638152Y-72185791D02*
X83685771Y-72090552D01*
X83685771Y-72090552D02*
X83781009Y-72042933D01*
X83781009Y-72042933D02*
X84304819Y-72042933D01*
D11*
X124500000Y-74638172D02*
X84413580Y-74638172D01*
X84413580Y-77638172D02*
X154500000Y-77638172D01*
X85000000Y-74638172D02*
X85000000Y-77638172D01*
X85000000Y-74638172D02*
X85000000Y-77638172D01*
X85000000Y-74638172D02*
X85586421Y-75764676D01*
X85000000Y-74638172D02*
X84413579Y-75764676D01*
X85000000Y-77638172D02*
X84413579Y-76511668D01*
X85000000Y-77638172D02*
X85586421Y-76511668D01*
D10*
X153304819Y-122804837D02*
X153304819Y-122185790D01*
X153304819Y-122185790D02*
X153685771Y-122519123D01*
X153685771Y-122519123D02*
X153685771Y-122376266D01*
X153685771Y-122376266D02*
X153733390Y-122281028D01*
X153733390Y-122281028D02*
X153781009Y-122233409D01*
X153781009Y-122233409D02*
X153876247Y-122185790D01*
X153876247Y-122185790D02*
X154114342Y-122185790D01*
X154114342Y-122185790D02*
X154209580Y-122233409D01*
X154209580Y-122233409D02*
X154257200Y-122281028D01*
X154257200Y-122281028D02*
X154304819Y-122376266D01*
X154304819Y-122376266D02*
X154304819Y-122661980D01*
X154304819Y-122661980D02*
X154257200Y-122757218D01*
X154257200Y-122757218D02*
X154209580Y-122804837D01*
X153304819Y-121852456D02*
X153304819Y-121233409D01*
X153304819Y-121233409D02*
X153685771Y-121566742D01*
X153685771Y-121566742D02*
X153685771Y-121423885D01*
X153685771Y-121423885D02*
X153733390Y-121328647D01*
X153733390Y-121328647D02*
X153781009Y-121281028D01*
X153781009Y-121281028D02*
X153876247Y-121233409D01*
X153876247Y-121233409D02*
X154114342Y-121233409D01*
X154114342Y-121233409D02*
X154209580Y-121281028D01*
X154209580Y-121281028D02*
X154257200Y-121328647D01*
X154257200Y-121328647D02*
X154304819Y-121423885D01*
X154304819Y-121423885D02*
X154304819Y-121709599D01*
X154304819Y-121709599D02*
X154257200Y-121804837D01*
X154257200Y-121804837D02*
X154209580Y-121852456D01*
X154209580Y-120804837D02*
X154257200Y-120757218D01*
X154257200Y-120757218D02*
X154304819Y-120804837D01*
X154304819Y-120804837D02*
X154257200Y-120852456D01*
X154257200Y-120852456D02*
X154209580Y-120804837D01*
X154209580Y-120804837D02*
X154304819Y-120804837D01*
X153304819Y-120138171D02*
X153304819Y-120042933D01*
X153304819Y-120042933D02*
X153352438Y-119947695D01*
X153352438Y-119947695D02*
X153400057Y-119900076D01*
X153400057Y-119900076D02*
X153495295Y-119852457D01*
X153495295Y-119852457D02*
X153685771Y-119804838D01*
X153685771Y-119804838D02*
X153923866Y-119804838D01*
X153923866Y-119804838D02*
X154114342Y-119852457D01*
X154114342Y-119852457D02*
X154209580Y-119900076D01*
X154209580Y-119900076D02*
X154257200Y-119947695D01*
X154257200Y-119947695D02*
X154304819Y-120042933D01*
X154304819Y-120042933D02*
X154304819Y-120138171D01*
X154304819Y-120138171D02*
X154257200Y-120233409D01*
X154257200Y-120233409D02*
X154209580Y-120281028D01*
X154209580Y-120281028D02*
X154114342Y-120328647D01*
X154114342Y-120328647D02*
X153923866Y-120376266D01*
X153923866Y-120376266D02*
X153685771Y-120376266D01*
X153685771Y-120376266D02*
X153495295Y-120328647D01*
X153495295Y-120328647D02*
X153400057Y-120281028D01*
X153400057Y-120281028D02*
X153352438Y-120233409D01*
X153352438Y-120233409D02*
X153304819Y-120138171D01*
X153304819Y-119185790D02*
X153304819Y-119090552D01*
X153304819Y-119090552D02*
X153352438Y-118995314D01*
X153352438Y-118995314D02*
X153400057Y-118947695D01*
X153400057Y-118947695D02*
X153495295Y-118900076D01*
X153495295Y-118900076D02*
X153685771Y-118852457D01*
X153685771Y-118852457D02*
X153923866Y-118852457D01*
X153923866Y-118852457D02*
X154114342Y-118900076D01*
X154114342Y-118900076D02*
X154209580Y-118947695D01*
X154209580Y-118947695D02*
X154257200Y-118995314D01*
X154257200Y-118995314D02*
X154304819Y-119090552D01*
X154304819Y-119090552D02*
X154304819Y-119185790D01*
X154304819Y-119185790D02*
X154257200Y-119281028D01*
X154257200Y-119281028D02*
X154209580Y-119328647D01*
X154209580Y-119328647D02*
X154114342Y-119376266D01*
X154114342Y-119376266D02*
X153923866Y-119423885D01*
X153923866Y-119423885D02*
X153685771Y-119423885D01*
X153685771Y-119423885D02*
X153495295Y-119376266D01*
X153495295Y-119376266D02*
X153400057Y-119328647D01*
X153400057Y-119328647D02*
X153352438Y-119281028D01*
X153352438Y-119281028D02*
X153304819Y-119185790D01*
X153304819Y-118233409D02*
X153304819Y-118138171D01*
X153304819Y-118138171D02*
X153352438Y-118042933D01*
X153352438Y-118042933D02*
X153400057Y-117995314D01*
X153400057Y-117995314D02*
X153495295Y-117947695D01*
X153495295Y-117947695D02*
X153685771Y-117900076D01*
X153685771Y-117900076D02*
X153923866Y-117900076D01*
X153923866Y-117900076D02*
X154114342Y-117947695D01*
X154114342Y-117947695D02*
X154209580Y-117995314D01*
X154209580Y-117995314D02*
X154257200Y-118042933D01*
X154257200Y-118042933D02*
X154304819Y-118138171D01*
X154304819Y-118138171D02*
X154304819Y-118233409D01*
X154304819Y-118233409D02*
X154257200Y-118328647D01*
X154257200Y-118328647D02*
X154209580Y-118376266D01*
X154209580Y-118376266D02*
X154114342Y-118423885D01*
X154114342Y-118423885D02*
X153923866Y-118471504D01*
X153923866Y-118471504D02*
X153685771Y-118471504D01*
X153685771Y-118471504D02*
X153495295Y-118423885D01*
X153495295Y-118423885D02*
X153400057Y-118376266D01*
X153400057Y-118376266D02*
X153352438Y-118328647D01*
X153352438Y-118328647D02*
X153304819Y-118233409D01*
X153304819Y-117281028D02*
X153304819Y-117185790D01*
X153304819Y-117185790D02*
X153352438Y-117090552D01*
X153352438Y-117090552D02*
X153400057Y-117042933D01*
X153400057Y-117042933D02*
X153495295Y-116995314D01*
X153495295Y-116995314D02*
X153685771Y-116947695D01*
X153685771Y-116947695D02*
X153923866Y-116947695D01*
X153923866Y-116947695D02*
X154114342Y-116995314D01*
X154114342Y-116995314D02*
X154209580Y-117042933D01*
X154209580Y-117042933D02*
X154257200Y-117090552D01*
X154257200Y-117090552D02*
X154304819Y-117185790D01*
X154304819Y-117185790D02*
X154304819Y-117281028D01*
X154304819Y-117281028D02*
X154257200Y-117376266D01*
X154257200Y-117376266D02*
X154209580Y-117423885D01*
X154209580Y-117423885D02*
X154114342Y-117471504D01*
X154114342Y-117471504D02*
X153923866Y-117519123D01*
X153923866Y-117519123D02*
X153685771Y-117519123D01*
X153685771Y-117519123D02*
X153495295Y-117471504D01*
X153495295Y-117471504D02*
X153400057Y-117423885D01*
X153400057Y-117423885D02*
X153352438Y-117376266D01*
X153352438Y-117376266D02*
X153304819Y-117281028D01*
X154304819Y-115757218D02*
X153638152Y-115757218D01*
X153733390Y-115757218D02*
X153685771Y-115709599D01*
X153685771Y-115709599D02*
X153638152Y-115614361D01*
X153638152Y-115614361D02*
X153638152Y-115471504D01*
X153638152Y-115471504D02*
X153685771Y-115376266D01*
X153685771Y-115376266D02*
X153781009Y-115328647D01*
X153781009Y-115328647D02*
X154304819Y-115328647D01*
X153781009Y-115328647D02*
X153685771Y-115281028D01*
X153685771Y-115281028D02*
X153638152Y-115185790D01*
X153638152Y-115185790D02*
X153638152Y-115042933D01*
X153638152Y-115042933D02*
X153685771Y-114947694D01*
X153685771Y-114947694D02*
X153781009Y-114900075D01*
X153781009Y-114900075D02*
X154304819Y-114900075D01*
X154304819Y-114423885D02*
X153638152Y-114423885D01*
X153733390Y-114423885D02*
X153685771Y-114376266D01*
X153685771Y-114376266D02*
X153638152Y-114281028D01*
X153638152Y-114281028D02*
X153638152Y-114138171D01*
X153638152Y-114138171D02*
X153685771Y-114042933D01*
X153685771Y-114042933D02*
X153781009Y-113995314D01*
X153781009Y-113995314D02*
X154304819Y-113995314D01*
X153781009Y-113995314D02*
X153685771Y-113947695D01*
X153685771Y-113947695D02*
X153638152Y-113852457D01*
X153638152Y-113852457D02*
X153638152Y-113709600D01*
X153638152Y-113709600D02*
X153685771Y-113614361D01*
X153685771Y-113614361D02*
X153781009Y-113566742D01*
X153781009Y-113566742D02*
X154304819Y-113566742D01*
D11*
X159500000Y-101638172D02*
X154413580Y-101638172D01*
X154413580Y-134638172D02*
X159500000Y-134638172D01*
X155000000Y-101638172D02*
X155000000Y-134638172D01*
X155000000Y-101638172D02*
X155000000Y-134638172D01*
X155000000Y-101638172D02*
X155586421Y-102764676D01*
X155000000Y-101638172D02*
X154413579Y-102764676D01*
X155000000Y-134638172D02*
X154413579Y-133511668D01*
X155000000Y-134638172D02*
X155586421Y-133511668D01*
D10*
X80333333Y-138942991D02*
X80142857Y-138942991D01*
X80142857Y-138942991D02*
X80047619Y-138990610D01*
X80047619Y-138990610D02*
X80000000Y-139038229D01*
X80000000Y-139038229D02*
X79904762Y-139181086D01*
X79904762Y-139181086D02*
X79857143Y-139371562D01*
X79857143Y-139371562D02*
X79857143Y-139752514D01*
X79857143Y-139752514D02*
X79904762Y-139847752D01*
X79904762Y-139847752D02*
X79952381Y-139895372D01*
X79952381Y-139895372D02*
X80047619Y-139942991D01*
X80047619Y-139942991D02*
X80238095Y-139942991D01*
X80238095Y-139942991D02*
X80333333Y-139895372D01*
X80333333Y-139895372D02*
X80380952Y-139847752D01*
X80380952Y-139847752D02*
X80428571Y-139752514D01*
X80428571Y-139752514D02*
X80428571Y-139514419D01*
X80428571Y-139514419D02*
X80380952Y-139419181D01*
X80380952Y-139419181D02*
X80333333Y-139371562D01*
X80333333Y-139371562D02*
X80238095Y-139323943D01*
X80238095Y-139323943D02*
X80047619Y-139323943D01*
X80047619Y-139323943D02*
X79952381Y-139371562D01*
X79952381Y-139371562D02*
X79904762Y-139419181D01*
X79904762Y-139419181D02*
X79857143Y-139514419D01*
X80857143Y-139847752D02*
X80904762Y-139895372D01*
X80904762Y-139895372D02*
X80857143Y-139942991D01*
X80857143Y-139942991D02*
X80809524Y-139895372D01*
X80809524Y-139895372D02*
X80857143Y-139847752D01*
X80857143Y-139847752D02*
X80857143Y-139942991D01*
X81523809Y-138942991D02*
X81619047Y-138942991D01*
X81619047Y-138942991D02*
X81714285Y-138990610D01*
X81714285Y-138990610D02*
X81761904Y-139038229D01*
X81761904Y-139038229D02*
X81809523Y-139133467D01*
X81809523Y-139133467D02*
X81857142Y-139323943D01*
X81857142Y-139323943D02*
X81857142Y-139562038D01*
X81857142Y-139562038D02*
X81809523Y-139752514D01*
X81809523Y-139752514D02*
X81761904Y-139847752D01*
X81761904Y-139847752D02*
X81714285Y-139895372D01*
X81714285Y-139895372D02*
X81619047Y-139942991D01*
X81619047Y-139942991D02*
X81523809Y-139942991D01*
X81523809Y-139942991D02*
X81428571Y-139895372D01*
X81428571Y-139895372D02*
X81380952Y-139847752D01*
X81380952Y-139847752D02*
X81333333Y-139752514D01*
X81333333Y-139752514D02*
X81285714Y-139562038D01*
X81285714Y-139562038D02*
X81285714Y-139323943D01*
X81285714Y-139323943D02*
X81333333Y-139133467D01*
X81333333Y-139133467D02*
X81380952Y-139038229D01*
X81380952Y-139038229D02*
X81428571Y-138990610D01*
X81428571Y-138990610D02*
X81523809Y-138942991D01*
X82476190Y-138942991D02*
X82571428Y-138942991D01*
X82571428Y-138942991D02*
X82666666Y-138990610D01*
X82666666Y-138990610D02*
X82714285Y-139038229D01*
X82714285Y-139038229D02*
X82761904Y-139133467D01*
X82761904Y-139133467D02*
X82809523Y-139323943D01*
X82809523Y-139323943D02*
X82809523Y-139562038D01*
X82809523Y-139562038D02*
X82761904Y-139752514D01*
X82761904Y-139752514D02*
X82714285Y-139847752D01*
X82714285Y-139847752D02*
X82666666Y-139895372D01*
X82666666Y-139895372D02*
X82571428Y-139942991D01*
X82571428Y-139942991D02*
X82476190Y-139942991D01*
X82476190Y-139942991D02*
X82380952Y-139895372D01*
X82380952Y-139895372D02*
X82333333Y-139847752D01*
X82333333Y-139847752D02*
X82285714Y-139752514D01*
X82285714Y-139752514D02*
X82238095Y-139562038D01*
X82238095Y-139562038D02*
X82238095Y-139323943D01*
X82238095Y-139323943D02*
X82285714Y-139133467D01*
X82285714Y-139133467D02*
X82333333Y-139038229D01*
X82333333Y-139038229D02*
X82380952Y-138990610D01*
X82380952Y-138990610D02*
X82476190Y-138942991D01*
X83428571Y-138942991D02*
X83523809Y-138942991D01*
X83523809Y-138942991D02*
X83619047Y-138990610D01*
X83619047Y-138990610D02*
X83666666Y-139038229D01*
X83666666Y-139038229D02*
X83714285Y-139133467D01*
X83714285Y-139133467D02*
X83761904Y-139323943D01*
X83761904Y-139323943D02*
X83761904Y-139562038D01*
X83761904Y-139562038D02*
X83714285Y-139752514D01*
X83714285Y-139752514D02*
X83666666Y-139847752D01*
X83666666Y-139847752D02*
X83619047Y-139895372D01*
X83619047Y-139895372D02*
X83523809Y-139942991D01*
X83523809Y-139942991D02*
X83428571Y-139942991D01*
X83428571Y-139942991D02*
X83333333Y-139895372D01*
X83333333Y-139895372D02*
X83285714Y-139847752D01*
X83285714Y-139847752D02*
X83238095Y-139752514D01*
X83238095Y-139752514D02*
X83190476Y-139562038D01*
X83190476Y-139562038D02*
X83190476Y-139323943D01*
X83190476Y-139323943D02*
X83238095Y-139133467D01*
X83238095Y-139133467D02*
X83285714Y-139038229D01*
X83285714Y-139038229D02*
X83333333Y-138990610D01*
X83333333Y-138990610D02*
X83428571Y-138942991D01*
X84380952Y-138942991D02*
X84476190Y-138942991D01*
X84476190Y-138942991D02*
X84571428Y-138990610D01*
X84571428Y-138990610D02*
X84619047Y-139038229D01*
X84619047Y-139038229D02*
X84666666Y-139133467D01*
X84666666Y-139133467D02*
X84714285Y-139323943D01*
X84714285Y-139323943D02*
X84714285Y-139562038D01*
X84714285Y-139562038D02*
X84666666Y-139752514D01*
X84666666Y-139752514D02*
X84619047Y-139847752D01*
X84619047Y-139847752D02*
X84571428Y-139895372D01*
X84571428Y-139895372D02*
X84476190Y-139942991D01*
X84476190Y-139942991D02*
X84380952Y-139942991D01*
X84380952Y-139942991D02*
X84285714Y-139895372D01*
X84285714Y-139895372D02*
X84238095Y-139847752D01*
X84238095Y-139847752D02*
X84190476Y-139752514D01*
X84190476Y-139752514D02*
X84142857Y-139562038D01*
X84142857Y-139562038D02*
X84142857Y-139323943D01*
X84142857Y-139323943D02*
X84190476Y-139133467D01*
X84190476Y-139133467D02*
X84238095Y-139038229D01*
X84238095Y-139038229D02*
X84285714Y-138990610D01*
X84285714Y-138990610D02*
X84380952Y-138942991D01*
X85904762Y-139942991D02*
X85904762Y-139276324D01*
X85904762Y-139371562D02*
X85952381Y-139323943D01*
X85952381Y-139323943D02*
X86047619Y-139276324D01*
X86047619Y-139276324D02*
X86190476Y-139276324D01*
X86190476Y-139276324D02*
X86285714Y-139323943D01*
X86285714Y-139323943D02*
X86333333Y-139419181D01*
X86333333Y-139419181D02*
X86333333Y-139942991D01*
X86333333Y-139419181D02*
X86380952Y-139323943D01*
X86380952Y-139323943D02*
X86476190Y-139276324D01*
X86476190Y-139276324D02*
X86619047Y-139276324D01*
X86619047Y-139276324D02*
X86714286Y-139323943D01*
X86714286Y-139323943D02*
X86761905Y-139419181D01*
X86761905Y-139419181D02*
X86761905Y-139942991D01*
X87238095Y-139942991D02*
X87238095Y-139276324D01*
X87238095Y-139371562D02*
X87285714Y-139323943D01*
X87285714Y-139323943D02*
X87380952Y-139276324D01*
X87380952Y-139276324D02*
X87523809Y-139276324D01*
X87523809Y-139276324D02*
X87619047Y-139323943D01*
X87619047Y-139323943D02*
X87666666Y-139419181D01*
X87666666Y-139419181D02*
X87666666Y-139942991D01*
X87666666Y-139419181D02*
X87714285Y-139323943D01*
X87714285Y-139323943D02*
X87809523Y-139276324D01*
X87809523Y-139276324D02*
X87952380Y-139276324D01*
X87952380Y-139276324D02*
X88047619Y-139323943D01*
X88047619Y-139323943D02*
X88095238Y-139419181D01*
X88095238Y-139419181D02*
X88095238Y-139942991D01*
D11*
X81000000Y-126138172D02*
X81000000Y-141224592D01*
X87000000Y-141224592D02*
X87000000Y-126138172D01*
X81000000Y-140638172D02*
X87000000Y-140638172D01*
X81000000Y-140638172D02*
X87000000Y-140638172D01*
X81000000Y-140638172D02*
X82126504Y-140051751D01*
X81000000Y-140638172D02*
X82126504Y-141224593D01*
X87000000Y-140638172D02*
X85873496Y-141224593D01*
X87000000Y-140638172D02*
X85873496Y-140051751D01*
D10*
X115833334Y-143942991D02*
X116500000Y-143942991D01*
X116500000Y-143942991D02*
X116071429Y-144942991D01*
X116928572Y-144942991D02*
X117119048Y-144942991D01*
X117119048Y-144942991D02*
X117214286Y-144895372D01*
X117214286Y-144895372D02*
X117261905Y-144847752D01*
X117261905Y-144847752D02*
X117357143Y-144704895D01*
X117357143Y-144704895D02*
X117404762Y-144514419D01*
X117404762Y-144514419D02*
X117404762Y-144133467D01*
X117404762Y-144133467D02*
X117357143Y-144038229D01*
X117357143Y-144038229D02*
X117309524Y-143990610D01*
X117309524Y-143990610D02*
X117214286Y-143942991D01*
X117214286Y-143942991D02*
X117023810Y-143942991D01*
X117023810Y-143942991D02*
X116928572Y-143990610D01*
X116928572Y-143990610D02*
X116880953Y-144038229D01*
X116880953Y-144038229D02*
X116833334Y-144133467D01*
X116833334Y-144133467D02*
X116833334Y-144371562D01*
X116833334Y-144371562D02*
X116880953Y-144466800D01*
X116880953Y-144466800D02*
X116928572Y-144514419D01*
X116928572Y-144514419D02*
X117023810Y-144562038D01*
X117023810Y-144562038D02*
X117214286Y-144562038D01*
X117214286Y-144562038D02*
X117309524Y-144514419D01*
X117309524Y-144514419D02*
X117357143Y-144466800D01*
X117357143Y-144466800D02*
X117404762Y-144371562D01*
X117833334Y-144847752D02*
X117880953Y-144895372D01*
X117880953Y-144895372D02*
X117833334Y-144942991D01*
X117833334Y-144942991D02*
X117785715Y-144895372D01*
X117785715Y-144895372D02*
X117833334Y-144847752D01*
X117833334Y-144847752D02*
X117833334Y-144942991D01*
X118500000Y-143942991D02*
X118595238Y-143942991D01*
X118595238Y-143942991D02*
X118690476Y-143990610D01*
X118690476Y-143990610D02*
X118738095Y-144038229D01*
X118738095Y-144038229D02*
X118785714Y-144133467D01*
X118785714Y-144133467D02*
X118833333Y-144323943D01*
X118833333Y-144323943D02*
X118833333Y-144562038D01*
X118833333Y-144562038D02*
X118785714Y-144752514D01*
X118785714Y-144752514D02*
X118738095Y-144847752D01*
X118738095Y-144847752D02*
X118690476Y-144895372D01*
X118690476Y-144895372D02*
X118595238Y-144942991D01*
X118595238Y-144942991D02*
X118500000Y-144942991D01*
X118500000Y-144942991D02*
X118404762Y-144895372D01*
X118404762Y-144895372D02*
X118357143Y-144847752D01*
X118357143Y-144847752D02*
X118309524Y-144752514D01*
X118309524Y-144752514D02*
X118261905Y-144562038D01*
X118261905Y-144562038D02*
X118261905Y-144323943D01*
X118261905Y-144323943D02*
X118309524Y-144133467D01*
X118309524Y-144133467D02*
X118357143Y-144038229D01*
X118357143Y-144038229D02*
X118404762Y-143990610D01*
X118404762Y-143990610D02*
X118500000Y-143942991D01*
X119452381Y-143942991D02*
X119547619Y-143942991D01*
X119547619Y-143942991D02*
X119642857Y-143990610D01*
X119642857Y-143990610D02*
X119690476Y-144038229D01*
X119690476Y-144038229D02*
X119738095Y-144133467D01*
X119738095Y-144133467D02*
X119785714Y-144323943D01*
X119785714Y-144323943D02*
X119785714Y-144562038D01*
X119785714Y-144562038D02*
X119738095Y-144752514D01*
X119738095Y-144752514D02*
X119690476Y-144847752D01*
X119690476Y-144847752D02*
X119642857Y-144895372D01*
X119642857Y-144895372D02*
X119547619Y-144942991D01*
X119547619Y-144942991D02*
X119452381Y-144942991D01*
X119452381Y-144942991D02*
X119357143Y-144895372D01*
X119357143Y-144895372D02*
X119309524Y-144847752D01*
X119309524Y-144847752D02*
X119261905Y-144752514D01*
X119261905Y-144752514D02*
X119214286Y-144562038D01*
X119214286Y-144562038D02*
X119214286Y-144323943D01*
X119214286Y-144323943D02*
X119261905Y-144133467D01*
X119261905Y-144133467D02*
X119309524Y-144038229D01*
X119309524Y-144038229D02*
X119357143Y-143990610D01*
X119357143Y-143990610D02*
X119452381Y-143942991D01*
X120404762Y-143942991D02*
X120500000Y-143942991D01*
X120500000Y-143942991D02*
X120595238Y-143990610D01*
X120595238Y-143990610D02*
X120642857Y-144038229D01*
X120642857Y-144038229D02*
X120690476Y-144133467D01*
X120690476Y-144133467D02*
X120738095Y-144323943D01*
X120738095Y-144323943D02*
X120738095Y-144562038D01*
X120738095Y-144562038D02*
X120690476Y-144752514D01*
X120690476Y-144752514D02*
X120642857Y-144847752D01*
X120642857Y-144847752D02*
X120595238Y-144895372D01*
X120595238Y-144895372D02*
X120500000Y-144942991D01*
X120500000Y-144942991D02*
X120404762Y-144942991D01*
X120404762Y-144942991D02*
X120309524Y-144895372D01*
X120309524Y-144895372D02*
X120261905Y-144847752D01*
X120261905Y-144847752D02*
X120214286Y-144752514D01*
X120214286Y-144752514D02*
X120166667Y-144562038D01*
X120166667Y-144562038D02*
X120166667Y-144323943D01*
X120166667Y-144323943D02*
X120214286Y-144133467D01*
X120214286Y-144133467D02*
X120261905Y-144038229D01*
X120261905Y-144038229D02*
X120309524Y-143990610D01*
X120309524Y-143990610D02*
X120404762Y-143942991D01*
X121357143Y-143942991D02*
X121452381Y-143942991D01*
X121452381Y-143942991D02*
X121547619Y-143990610D01*
X121547619Y-143990610D02*
X121595238Y-144038229D01*
X121595238Y-144038229D02*
X121642857Y-144133467D01*
X121642857Y-144133467D02*
X121690476Y-144323943D01*
X121690476Y-144323943D02*
X121690476Y-144562038D01*
X121690476Y-144562038D02*
X121642857Y-144752514D01*
X121642857Y-144752514D02*
X121595238Y-144847752D01*
X121595238Y-144847752D02*
X121547619Y-144895372D01*
X121547619Y-144895372D02*
X121452381Y-144942991D01*
X121452381Y-144942991D02*
X121357143Y-144942991D01*
X121357143Y-144942991D02*
X121261905Y-144895372D01*
X121261905Y-144895372D02*
X121214286Y-144847752D01*
X121214286Y-144847752D02*
X121166667Y-144752514D01*
X121166667Y-144752514D02*
X121119048Y-144562038D01*
X121119048Y-144562038D02*
X121119048Y-144323943D01*
X121119048Y-144323943D02*
X121166667Y-144133467D01*
X121166667Y-144133467D02*
X121214286Y-144038229D01*
X121214286Y-144038229D02*
X121261905Y-143990610D01*
X121261905Y-143990610D02*
X121357143Y-143942991D01*
X122880953Y-144942991D02*
X122880953Y-144276324D01*
X122880953Y-144371562D02*
X122928572Y-144323943D01*
X122928572Y-144323943D02*
X123023810Y-144276324D01*
X123023810Y-144276324D02*
X123166667Y-144276324D01*
X123166667Y-144276324D02*
X123261905Y-144323943D01*
X123261905Y-144323943D02*
X123309524Y-144419181D01*
X123309524Y-144419181D02*
X123309524Y-144942991D01*
X123309524Y-144419181D02*
X123357143Y-144323943D01*
X123357143Y-144323943D02*
X123452381Y-144276324D01*
X123452381Y-144276324D02*
X123595238Y-144276324D01*
X123595238Y-144276324D02*
X123690477Y-144323943D01*
X123690477Y-144323943D02*
X123738096Y-144419181D01*
X123738096Y-144419181D02*
X123738096Y-144942991D01*
X124214286Y-144942991D02*
X124214286Y-144276324D01*
X124214286Y-144371562D02*
X124261905Y-144323943D01*
X124261905Y-144323943D02*
X124357143Y-144276324D01*
X124357143Y-144276324D02*
X124500000Y-144276324D01*
X124500000Y-144276324D02*
X124595238Y-144323943D01*
X124595238Y-144323943D02*
X124642857Y-144419181D01*
X124642857Y-144419181D02*
X124642857Y-144942991D01*
X124642857Y-144419181D02*
X124690476Y-144323943D01*
X124690476Y-144323943D02*
X124785714Y-144276324D01*
X124785714Y-144276324D02*
X124928571Y-144276324D01*
X124928571Y-144276324D02*
X125023810Y-144323943D01*
X125023810Y-144323943D02*
X125071429Y-144419181D01*
X125071429Y-144419181D02*
X125071429Y-144942991D01*
D11*
X160000000Y-135138172D02*
X160000000Y-146224592D01*
X81000000Y-146224592D02*
X81000000Y-135138172D01*
X160000000Y-145638172D02*
X81000000Y-145638172D01*
X160000000Y-145638172D02*
X81000000Y-145638172D01*
X160000000Y-145638172D02*
X158873496Y-146224593D01*
X160000000Y-145638172D02*
X158873496Y-145051751D01*
X81000000Y-145638172D02*
X82126504Y-145051751D01*
X81000000Y-145638172D02*
X82126504Y-146224593D01*
D10*
X143400057Y-94257218D02*
X143352438Y-94209599D01*
X143352438Y-94209599D02*
X143304819Y-94114361D01*
X143304819Y-94114361D02*
X143304819Y-93876266D01*
X143304819Y-93876266D02*
X143352438Y-93781028D01*
X143352438Y-93781028D02*
X143400057Y-93733409D01*
X143400057Y-93733409D02*
X143495295Y-93685790D01*
X143495295Y-93685790D02*
X143590533Y-93685790D01*
X143590533Y-93685790D02*
X143733390Y-93733409D01*
X143733390Y-93733409D02*
X144304819Y-94304837D01*
X144304819Y-94304837D02*
X144304819Y-93685790D01*
X143638152Y-92828647D02*
X144304819Y-92828647D01*
X143257200Y-93066742D02*
X143971485Y-93304837D01*
X143971485Y-93304837D02*
X143971485Y-92685790D01*
X144209580Y-92304837D02*
X144257200Y-92257218D01*
X144257200Y-92257218D02*
X144304819Y-92304837D01*
X144304819Y-92304837D02*
X144257200Y-92352456D01*
X144257200Y-92352456D02*
X144209580Y-92304837D01*
X144209580Y-92304837D02*
X144304819Y-92304837D01*
X143304819Y-91638171D02*
X143304819Y-91542933D01*
X143304819Y-91542933D02*
X143352438Y-91447695D01*
X143352438Y-91447695D02*
X143400057Y-91400076D01*
X143400057Y-91400076D02*
X143495295Y-91352457D01*
X143495295Y-91352457D02*
X143685771Y-91304838D01*
X143685771Y-91304838D02*
X143923866Y-91304838D01*
X143923866Y-91304838D02*
X144114342Y-91352457D01*
X144114342Y-91352457D02*
X144209580Y-91400076D01*
X144209580Y-91400076D02*
X144257200Y-91447695D01*
X144257200Y-91447695D02*
X144304819Y-91542933D01*
X144304819Y-91542933D02*
X144304819Y-91638171D01*
X144304819Y-91638171D02*
X144257200Y-91733409D01*
X144257200Y-91733409D02*
X144209580Y-91781028D01*
X144209580Y-91781028D02*
X144114342Y-91828647D01*
X144114342Y-91828647D02*
X143923866Y-91876266D01*
X143923866Y-91876266D02*
X143685771Y-91876266D01*
X143685771Y-91876266D02*
X143495295Y-91828647D01*
X143495295Y-91828647D02*
X143400057Y-91781028D01*
X143400057Y-91781028D02*
X143352438Y-91733409D01*
X143352438Y-91733409D02*
X143304819Y-91638171D01*
X143304819Y-90685790D02*
X143304819Y-90590552D01*
X143304819Y-90590552D02*
X143352438Y-90495314D01*
X143352438Y-90495314D02*
X143400057Y-90447695D01*
X143400057Y-90447695D02*
X143495295Y-90400076D01*
X143495295Y-90400076D02*
X143685771Y-90352457D01*
X143685771Y-90352457D02*
X143923866Y-90352457D01*
X143923866Y-90352457D02*
X144114342Y-90400076D01*
X144114342Y-90400076D02*
X144209580Y-90447695D01*
X144209580Y-90447695D02*
X144257200Y-90495314D01*
X144257200Y-90495314D02*
X144304819Y-90590552D01*
X144304819Y-90590552D02*
X144304819Y-90685790D01*
X144304819Y-90685790D02*
X144257200Y-90781028D01*
X144257200Y-90781028D02*
X144209580Y-90828647D01*
X144209580Y-90828647D02*
X144114342Y-90876266D01*
X144114342Y-90876266D02*
X143923866Y-90923885D01*
X143923866Y-90923885D02*
X143685771Y-90923885D01*
X143685771Y-90923885D02*
X143495295Y-90876266D01*
X143495295Y-90876266D02*
X143400057Y-90828647D01*
X143400057Y-90828647D02*
X143352438Y-90781028D01*
X143352438Y-90781028D02*
X143304819Y-90685790D01*
X143304819Y-89733409D02*
X143304819Y-89638171D01*
X143304819Y-89638171D02*
X143352438Y-89542933D01*
X143352438Y-89542933D02*
X143400057Y-89495314D01*
X143400057Y-89495314D02*
X143495295Y-89447695D01*
X143495295Y-89447695D02*
X143685771Y-89400076D01*
X143685771Y-89400076D02*
X143923866Y-89400076D01*
X143923866Y-89400076D02*
X144114342Y-89447695D01*
X144114342Y-89447695D02*
X144209580Y-89495314D01*
X144209580Y-89495314D02*
X144257200Y-89542933D01*
X144257200Y-89542933D02*
X144304819Y-89638171D01*
X144304819Y-89638171D02*
X144304819Y-89733409D01*
X144304819Y-89733409D02*
X144257200Y-89828647D01*
X144257200Y-89828647D02*
X144209580Y-89876266D01*
X144209580Y-89876266D02*
X144114342Y-89923885D01*
X144114342Y-89923885D02*
X143923866Y-89971504D01*
X143923866Y-89971504D02*
X143685771Y-89971504D01*
X143685771Y-89971504D02*
X143495295Y-89923885D01*
X143495295Y-89923885D02*
X143400057Y-89876266D01*
X143400057Y-89876266D02*
X143352438Y-89828647D01*
X143352438Y-89828647D02*
X143304819Y-89733409D01*
X143304819Y-88781028D02*
X143304819Y-88685790D01*
X143304819Y-88685790D02*
X143352438Y-88590552D01*
X143352438Y-88590552D02*
X143400057Y-88542933D01*
X143400057Y-88542933D02*
X143495295Y-88495314D01*
X143495295Y-88495314D02*
X143685771Y-88447695D01*
X143685771Y-88447695D02*
X143923866Y-88447695D01*
X143923866Y-88447695D02*
X144114342Y-88495314D01*
X144114342Y-88495314D02*
X144209580Y-88542933D01*
X144209580Y-88542933D02*
X144257200Y-88590552D01*
X144257200Y-88590552D02*
X144304819Y-88685790D01*
X144304819Y-88685790D02*
X144304819Y-88781028D01*
X144304819Y-88781028D02*
X144257200Y-88876266D01*
X144257200Y-88876266D02*
X144209580Y-88923885D01*
X144209580Y-88923885D02*
X144114342Y-88971504D01*
X144114342Y-88971504D02*
X143923866Y-89019123D01*
X143923866Y-89019123D02*
X143685771Y-89019123D01*
X143685771Y-89019123D02*
X143495295Y-88971504D01*
X143495295Y-88971504D02*
X143400057Y-88923885D01*
X143400057Y-88923885D02*
X143352438Y-88876266D01*
X143352438Y-88876266D02*
X143304819Y-88781028D01*
X144304819Y-87257218D02*
X143638152Y-87257218D01*
X143733390Y-87257218D02*
X143685771Y-87209599D01*
X143685771Y-87209599D02*
X143638152Y-87114361D01*
X143638152Y-87114361D02*
X143638152Y-86971504D01*
X143638152Y-86971504D02*
X143685771Y-86876266D01*
X143685771Y-86876266D02*
X143781009Y-86828647D01*
X143781009Y-86828647D02*
X144304819Y-86828647D01*
X143781009Y-86828647D02*
X143685771Y-86781028D01*
X143685771Y-86781028D02*
X143638152Y-86685790D01*
X143638152Y-86685790D02*
X143638152Y-86542933D01*
X143638152Y-86542933D02*
X143685771Y-86447694D01*
X143685771Y-86447694D02*
X143781009Y-86400075D01*
X143781009Y-86400075D02*
X144304819Y-86400075D01*
X144304819Y-85923885D02*
X143638152Y-85923885D01*
X143733390Y-85923885D02*
X143685771Y-85876266D01*
X143685771Y-85876266D02*
X143638152Y-85781028D01*
X143638152Y-85781028D02*
X143638152Y-85638171D01*
X143638152Y-85638171D02*
X143685771Y-85542933D01*
X143685771Y-85542933D02*
X143781009Y-85495314D01*
X143781009Y-85495314D02*
X144304819Y-85495314D01*
X143781009Y-85495314D02*
X143685771Y-85447695D01*
X143685771Y-85447695D02*
X143638152Y-85352457D01*
X143638152Y-85352457D02*
X143638152Y-85209600D01*
X143638152Y-85209600D02*
X143685771Y-85114361D01*
X143685771Y-85114361D02*
X143781009Y-85066742D01*
X143781009Y-85066742D02*
X144304819Y-85066742D01*
D11*
X154500000Y-77638172D02*
X144413580Y-77638172D01*
X144413580Y-101638172D02*
X159500000Y-101638172D01*
X145000000Y-77638172D02*
X145000000Y-101638172D01*
X145000000Y-77638172D02*
X145000000Y-101638172D01*
X145000000Y-77638172D02*
X145586421Y-78764676D01*
X145000000Y-77638172D02*
X144413579Y-78764676D01*
X145000000Y-101638172D02*
X144413579Y-100511668D01*
X145000000Y-101638172D02*
X145586421Y-100511668D01*
D10*
X97304819Y-134185790D02*
X97304819Y-133995314D01*
X97304819Y-133995314D02*
X97257200Y-133900076D01*
X97257200Y-133900076D02*
X97209580Y-133852457D01*
X97209580Y-133852457D02*
X97066723Y-133757219D01*
X97066723Y-133757219D02*
X96876247Y-133709600D01*
X96876247Y-133709600D02*
X96495295Y-133709600D01*
X96495295Y-133709600D02*
X96400057Y-133757219D01*
X96400057Y-133757219D02*
X96352438Y-133804838D01*
X96352438Y-133804838D02*
X96304819Y-133900076D01*
X96304819Y-133900076D02*
X96304819Y-134090552D01*
X96304819Y-134090552D02*
X96352438Y-134185790D01*
X96352438Y-134185790D02*
X96400057Y-134233409D01*
X96400057Y-134233409D02*
X96495295Y-134281028D01*
X96495295Y-134281028D02*
X96733390Y-134281028D01*
X96733390Y-134281028D02*
X96828628Y-134233409D01*
X96828628Y-134233409D02*
X96876247Y-134185790D01*
X96876247Y-134185790D02*
X96923866Y-134090552D01*
X96923866Y-134090552D02*
X96923866Y-133900076D01*
X96923866Y-133900076D02*
X96876247Y-133804838D01*
X96876247Y-133804838D02*
X96828628Y-133757219D01*
X96828628Y-133757219D02*
X96733390Y-133709600D01*
X97209580Y-133281028D02*
X97257200Y-133233409D01*
X97257200Y-133233409D02*
X97304819Y-133281028D01*
X97304819Y-133281028D02*
X97257200Y-133328647D01*
X97257200Y-133328647D02*
X97209580Y-133281028D01*
X97209580Y-133281028D02*
X97304819Y-133281028D01*
X96304819Y-132614362D02*
X96304819Y-132519124D01*
X96304819Y-132519124D02*
X96352438Y-132423886D01*
X96352438Y-132423886D02*
X96400057Y-132376267D01*
X96400057Y-132376267D02*
X96495295Y-132328648D01*
X96495295Y-132328648D02*
X96685771Y-132281029D01*
X96685771Y-132281029D02*
X96923866Y-132281029D01*
X96923866Y-132281029D02*
X97114342Y-132328648D01*
X97114342Y-132328648D02*
X97209580Y-132376267D01*
X97209580Y-132376267D02*
X97257200Y-132423886D01*
X97257200Y-132423886D02*
X97304819Y-132519124D01*
X97304819Y-132519124D02*
X97304819Y-132614362D01*
X97304819Y-132614362D02*
X97257200Y-132709600D01*
X97257200Y-132709600D02*
X97209580Y-132757219D01*
X97209580Y-132757219D02*
X97114342Y-132804838D01*
X97114342Y-132804838D02*
X96923866Y-132852457D01*
X96923866Y-132852457D02*
X96685771Y-132852457D01*
X96685771Y-132852457D02*
X96495295Y-132804838D01*
X96495295Y-132804838D02*
X96400057Y-132757219D01*
X96400057Y-132757219D02*
X96352438Y-132709600D01*
X96352438Y-132709600D02*
X96304819Y-132614362D01*
X96304819Y-131661981D02*
X96304819Y-131566743D01*
X96304819Y-131566743D02*
X96352438Y-131471505D01*
X96352438Y-131471505D02*
X96400057Y-131423886D01*
X96400057Y-131423886D02*
X96495295Y-131376267D01*
X96495295Y-131376267D02*
X96685771Y-131328648D01*
X96685771Y-131328648D02*
X96923866Y-131328648D01*
X96923866Y-131328648D02*
X97114342Y-131376267D01*
X97114342Y-131376267D02*
X97209580Y-131423886D01*
X97209580Y-131423886D02*
X97257200Y-131471505D01*
X97257200Y-131471505D02*
X97304819Y-131566743D01*
X97304819Y-131566743D02*
X97304819Y-131661981D01*
X97304819Y-131661981D02*
X97257200Y-131757219D01*
X97257200Y-131757219D02*
X97209580Y-131804838D01*
X97209580Y-131804838D02*
X97114342Y-131852457D01*
X97114342Y-131852457D02*
X96923866Y-131900076D01*
X96923866Y-131900076D02*
X96685771Y-131900076D01*
X96685771Y-131900076D02*
X96495295Y-131852457D01*
X96495295Y-131852457D02*
X96400057Y-131804838D01*
X96400057Y-131804838D02*
X96352438Y-131757219D01*
X96352438Y-131757219D02*
X96304819Y-131661981D01*
X96304819Y-130709600D02*
X96304819Y-130614362D01*
X96304819Y-130614362D02*
X96352438Y-130519124D01*
X96352438Y-130519124D02*
X96400057Y-130471505D01*
X96400057Y-130471505D02*
X96495295Y-130423886D01*
X96495295Y-130423886D02*
X96685771Y-130376267D01*
X96685771Y-130376267D02*
X96923866Y-130376267D01*
X96923866Y-130376267D02*
X97114342Y-130423886D01*
X97114342Y-130423886D02*
X97209580Y-130471505D01*
X97209580Y-130471505D02*
X97257200Y-130519124D01*
X97257200Y-130519124D02*
X97304819Y-130614362D01*
X97304819Y-130614362D02*
X97304819Y-130709600D01*
X97304819Y-130709600D02*
X97257200Y-130804838D01*
X97257200Y-130804838D02*
X97209580Y-130852457D01*
X97209580Y-130852457D02*
X97114342Y-130900076D01*
X97114342Y-130900076D02*
X96923866Y-130947695D01*
X96923866Y-130947695D02*
X96685771Y-130947695D01*
X96685771Y-130947695D02*
X96495295Y-130900076D01*
X96495295Y-130900076D02*
X96400057Y-130852457D01*
X96400057Y-130852457D02*
X96352438Y-130804838D01*
X96352438Y-130804838D02*
X96304819Y-130709600D01*
X96304819Y-129757219D02*
X96304819Y-129661981D01*
X96304819Y-129661981D02*
X96352438Y-129566743D01*
X96352438Y-129566743D02*
X96400057Y-129519124D01*
X96400057Y-129519124D02*
X96495295Y-129471505D01*
X96495295Y-129471505D02*
X96685771Y-129423886D01*
X96685771Y-129423886D02*
X96923866Y-129423886D01*
X96923866Y-129423886D02*
X97114342Y-129471505D01*
X97114342Y-129471505D02*
X97209580Y-129519124D01*
X97209580Y-129519124D02*
X97257200Y-129566743D01*
X97257200Y-129566743D02*
X97304819Y-129661981D01*
X97304819Y-129661981D02*
X97304819Y-129757219D01*
X97304819Y-129757219D02*
X97257200Y-129852457D01*
X97257200Y-129852457D02*
X97209580Y-129900076D01*
X97209580Y-129900076D02*
X97114342Y-129947695D01*
X97114342Y-129947695D02*
X96923866Y-129995314D01*
X96923866Y-129995314D02*
X96685771Y-129995314D01*
X96685771Y-129995314D02*
X96495295Y-129947695D01*
X96495295Y-129947695D02*
X96400057Y-129900076D01*
X96400057Y-129900076D02*
X96352438Y-129852457D01*
X96352438Y-129852457D02*
X96304819Y-129757219D01*
X97304819Y-128233409D02*
X96638152Y-128233409D01*
X96733390Y-128233409D02*
X96685771Y-128185790D01*
X96685771Y-128185790D02*
X96638152Y-128090552D01*
X96638152Y-128090552D02*
X96638152Y-127947695D01*
X96638152Y-127947695D02*
X96685771Y-127852457D01*
X96685771Y-127852457D02*
X96781009Y-127804838D01*
X96781009Y-127804838D02*
X97304819Y-127804838D01*
X96781009Y-127804838D02*
X96685771Y-127757219D01*
X96685771Y-127757219D02*
X96638152Y-127661981D01*
X96638152Y-127661981D02*
X96638152Y-127519124D01*
X96638152Y-127519124D02*
X96685771Y-127423885D01*
X96685771Y-127423885D02*
X96781009Y-127376266D01*
X96781009Y-127376266D02*
X97304819Y-127376266D01*
X97304819Y-126900076D02*
X96638152Y-126900076D01*
X96733390Y-126900076D02*
X96685771Y-126852457D01*
X96685771Y-126852457D02*
X96638152Y-126757219D01*
X96638152Y-126757219D02*
X96638152Y-126614362D01*
X96638152Y-126614362D02*
X96685771Y-126519124D01*
X96685771Y-126519124D02*
X96781009Y-126471505D01*
X96781009Y-126471505D02*
X97304819Y-126471505D01*
X96781009Y-126471505D02*
X96685771Y-126423886D01*
X96685771Y-126423886D02*
X96638152Y-126328648D01*
X96638152Y-126328648D02*
X96638152Y-126185791D01*
X96638152Y-126185791D02*
X96685771Y-126090552D01*
X96685771Y-126090552D02*
X96781009Y-126042933D01*
X96781009Y-126042933D02*
X97304819Y-126042933D01*
D11*
X87500000Y-125638172D02*
X98586420Y-125638172D01*
X98586420Y-134638172D02*
X96500000Y-134638172D01*
X98000000Y-125638172D02*
X98000000Y-134638172D01*
X98000000Y-125638172D02*
X98000000Y-134638172D01*
X98000000Y-125638172D02*
X98586421Y-126764676D01*
X98000000Y-125638172D02*
X97413579Y-126764676D01*
X98000000Y-134638172D02*
X97413579Y-133511668D01*
X98000000Y-134638172D02*
X98586421Y-133511668D01*
D10*
X147304819Y-108781028D02*
X147304819Y-108971504D01*
X147304819Y-108971504D02*
X147352438Y-109066742D01*
X147352438Y-109066742D02*
X147400057Y-109114361D01*
X147400057Y-109114361D02*
X147542914Y-109209599D01*
X147542914Y-109209599D02*
X147733390Y-109257218D01*
X147733390Y-109257218D02*
X148114342Y-109257218D01*
X148114342Y-109257218D02*
X148209580Y-109209599D01*
X148209580Y-109209599D02*
X148257200Y-109161980D01*
X148257200Y-109161980D02*
X148304819Y-109066742D01*
X148304819Y-109066742D02*
X148304819Y-108876266D01*
X148304819Y-108876266D02*
X148257200Y-108781028D01*
X148257200Y-108781028D02*
X148209580Y-108733409D01*
X148209580Y-108733409D02*
X148114342Y-108685790D01*
X148114342Y-108685790D02*
X147876247Y-108685790D01*
X147876247Y-108685790D02*
X147781009Y-108733409D01*
X147781009Y-108733409D02*
X147733390Y-108781028D01*
X147733390Y-108781028D02*
X147685771Y-108876266D01*
X147685771Y-108876266D02*
X147685771Y-109066742D01*
X147685771Y-109066742D02*
X147733390Y-109161980D01*
X147733390Y-109161980D02*
X147781009Y-109209599D01*
X147781009Y-109209599D02*
X147876247Y-109257218D01*
X147304819Y-108066742D02*
X147304819Y-107971504D01*
X147304819Y-107971504D02*
X147352438Y-107876266D01*
X147352438Y-107876266D02*
X147400057Y-107828647D01*
X147400057Y-107828647D02*
X147495295Y-107781028D01*
X147495295Y-107781028D02*
X147685771Y-107733409D01*
X147685771Y-107733409D02*
X147923866Y-107733409D01*
X147923866Y-107733409D02*
X148114342Y-107781028D01*
X148114342Y-107781028D02*
X148209580Y-107828647D01*
X148209580Y-107828647D02*
X148257200Y-107876266D01*
X148257200Y-107876266D02*
X148304819Y-107971504D01*
X148304819Y-107971504D02*
X148304819Y-108066742D01*
X148304819Y-108066742D02*
X148257200Y-108161980D01*
X148257200Y-108161980D02*
X148209580Y-108209599D01*
X148209580Y-108209599D02*
X148114342Y-108257218D01*
X148114342Y-108257218D02*
X147923866Y-108304837D01*
X147923866Y-108304837D02*
X147685771Y-108304837D01*
X147685771Y-108304837D02*
X147495295Y-108257218D01*
X147495295Y-108257218D02*
X147400057Y-108209599D01*
X147400057Y-108209599D02*
X147352438Y-108161980D01*
X147352438Y-108161980D02*
X147304819Y-108066742D01*
X148209580Y-107304837D02*
X148257200Y-107257218D01*
X148257200Y-107257218D02*
X148304819Y-107304837D01*
X148304819Y-107304837D02*
X148257200Y-107352456D01*
X148257200Y-107352456D02*
X148209580Y-107304837D01*
X148209580Y-107304837D02*
X148304819Y-107304837D01*
X147304819Y-106638171D02*
X147304819Y-106542933D01*
X147304819Y-106542933D02*
X147352438Y-106447695D01*
X147352438Y-106447695D02*
X147400057Y-106400076D01*
X147400057Y-106400076D02*
X147495295Y-106352457D01*
X147495295Y-106352457D02*
X147685771Y-106304838D01*
X147685771Y-106304838D02*
X147923866Y-106304838D01*
X147923866Y-106304838D02*
X148114342Y-106352457D01*
X148114342Y-106352457D02*
X148209580Y-106400076D01*
X148209580Y-106400076D02*
X148257200Y-106447695D01*
X148257200Y-106447695D02*
X148304819Y-106542933D01*
X148304819Y-106542933D02*
X148304819Y-106638171D01*
X148304819Y-106638171D02*
X148257200Y-106733409D01*
X148257200Y-106733409D02*
X148209580Y-106781028D01*
X148209580Y-106781028D02*
X148114342Y-106828647D01*
X148114342Y-106828647D02*
X147923866Y-106876266D01*
X147923866Y-106876266D02*
X147685771Y-106876266D01*
X147685771Y-106876266D02*
X147495295Y-106828647D01*
X147495295Y-106828647D02*
X147400057Y-106781028D01*
X147400057Y-106781028D02*
X147352438Y-106733409D01*
X147352438Y-106733409D02*
X147304819Y-106638171D01*
X147304819Y-105685790D02*
X147304819Y-105590552D01*
X147304819Y-105590552D02*
X147352438Y-105495314D01*
X147352438Y-105495314D02*
X147400057Y-105447695D01*
X147400057Y-105447695D02*
X147495295Y-105400076D01*
X147495295Y-105400076D02*
X147685771Y-105352457D01*
X147685771Y-105352457D02*
X147923866Y-105352457D01*
X147923866Y-105352457D02*
X148114342Y-105400076D01*
X148114342Y-105400076D02*
X148209580Y-105447695D01*
X148209580Y-105447695D02*
X148257200Y-105495314D01*
X148257200Y-105495314D02*
X148304819Y-105590552D01*
X148304819Y-105590552D02*
X148304819Y-105685790D01*
X148304819Y-105685790D02*
X148257200Y-105781028D01*
X148257200Y-105781028D02*
X148209580Y-105828647D01*
X148209580Y-105828647D02*
X148114342Y-105876266D01*
X148114342Y-105876266D02*
X147923866Y-105923885D01*
X147923866Y-105923885D02*
X147685771Y-105923885D01*
X147685771Y-105923885D02*
X147495295Y-105876266D01*
X147495295Y-105876266D02*
X147400057Y-105828647D01*
X147400057Y-105828647D02*
X147352438Y-105781028D01*
X147352438Y-105781028D02*
X147304819Y-105685790D01*
X147304819Y-104733409D02*
X147304819Y-104638171D01*
X147304819Y-104638171D02*
X147352438Y-104542933D01*
X147352438Y-104542933D02*
X147400057Y-104495314D01*
X147400057Y-104495314D02*
X147495295Y-104447695D01*
X147495295Y-104447695D02*
X147685771Y-104400076D01*
X147685771Y-104400076D02*
X147923866Y-104400076D01*
X147923866Y-104400076D02*
X148114342Y-104447695D01*
X148114342Y-104447695D02*
X148209580Y-104495314D01*
X148209580Y-104495314D02*
X148257200Y-104542933D01*
X148257200Y-104542933D02*
X148304819Y-104638171D01*
X148304819Y-104638171D02*
X148304819Y-104733409D01*
X148304819Y-104733409D02*
X148257200Y-104828647D01*
X148257200Y-104828647D02*
X148209580Y-104876266D01*
X148209580Y-104876266D02*
X148114342Y-104923885D01*
X148114342Y-104923885D02*
X147923866Y-104971504D01*
X147923866Y-104971504D02*
X147685771Y-104971504D01*
X147685771Y-104971504D02*
X147495295Y-104923885D01*
X147495295Y-104923885D02*
X147400057Y-104876266D01*
X147400057Y-104876266D02*
X147352438Y-104828647D01*
X147352438Y-104828647D02*
X147304819Y-104733409D01*
X147304819Y-103781028D02*
X147304819Y-103685790D01*
X147304819Y-103685790D02*
X147352438Y-103590552D01*
X147352438Y-103590552D02*
X147400057Y-103542933D01*
X147400057Y-103542933D02*
X147495295Y-103495314D01*
X147495295Y-103495314D02*
X147685771Y-103447695D01*
X147685771Y-103447695D02*
X147923866Y-103447695D01*
X147923866Y-103447695D02*
X148114342Y-103495314D01*
X148114342Y-103495314D02*
X148209580Y-103542933D01*
X148209580Y-103542933D02*
X148257200Y-103590552D01*
X148257200Y-103590552D02*
X148304819Y-103685790D01*
X148304819Y-103685790D02*
X148304819Y-103781028D01*
X148304819Y-103781028D02*
X148257200Y-103876266D01*
X148257200Y-103876266D02*
X148209580Y-103923885D01*
X148209580Y-103923885D02*
X148114342Y-103971504D01*
X148114342Y-103971504D02*
X147923866Y-104019123D01*
X147923866Y-104019123D02*
X147685771Y-104019123D01*
X147685771Y-104019123D02*
X147495295Y-103971504D01*
X147495295Y-103971504D02*
X147400057Y-103923885D01*
X147400057Y-103923885D02*
X147352438Y-103876266D01*
X147352438Y-103876266D02*
X147304819Y-103781028D01*
X148304819Y-102257218D02*
X147638152Y-102257218D01*
X147733390Y-102257218D02*
X147685771Y-102209599D01*
X147685771Y-102209599D02*
X147638152Y-102114361D01*
X147638152Y-102114361D02*
X147638152Y-101971504D01*
X147638152Y-101971504D02*
X147685771Y-101876266D01*
X147685771Y-101876266D02*
X147781009Y-101828647D01*
X147781009Y-101828647D02*
X148304819Y-101828647D01*
X147781009Y-101828647D02*
X147685771Y-101781028D01*
X147685771Y-101781028D02*
X147638152Y-101685790D01*
X147638152Y-101685790D02*
X147638152Y-101542933D01*
X147638152Y-101542933D02*
X147685771Y-101447694D01*
X147685771Y-101447694D02*
X147781009Y-101400075D01*
X147781009Y-101400075D02*
X148304819Y-101400075D01*
X148304819Y-100923885D02*
X147638152Y-100923885D01*
X147733390Y-100923885D02*
X147685771Y-100876266D01*
X147685771Y-100876266D02*
X147638152Y-100781028D01*
X147638152Y-100781028D02*
X147638152Y-100638171D01*
X147638152Y-100638171D02*
X147685771Y-100542933D01*
X147685771Y-100542933D02*
X147781009Y-100495314D01*
X147781009Y-100495314D02*
X148304819Y-100495314D01*
X147781009Y-100495314D02*
X147685771Y-100447695D01*
X147685771Y-100447695D02*
X147638152Y-100352457D01*
X147638152Y-100352457D02*
X147638152Y-100209600D01*
X147638152Y-100209600D02*
X147685771Y-100114361D01*
X147685771Y-100114361D02*
X147781009Y-100066742D01*
X147781009Y-100066742D02*
X148304819Y-100066742D01*
D11*
X159500000Y-134638172D02*
X148413580Y-134638172D01*
X149586420Y-74638172D02*
X100500000Y-74638172D01*
X149000000Y-134638172D02*
X149000000Y-74638172D01*
X149000000Y-134638172D02*
X149000000Y-74638172D01*
X149000000Y-134638172D02*
X148413579Y-133511668D01*
X149000000Y-134638172D02*
X149586421Y-133511668D01*
X149000000Y-74638172D02*
X149586421Y-75764676D01*
X149000000Y-74638172D02*
X148413579Y-75764676D01*
D10*
X84304819Y-104233409D02*
X84304819Y-104709599D01*
X84304819Y-104709599D02*
X84781009Y-104757218D01*
X84781009Y-104757218D02*
X84733390Y-104709599D01*
X84733390Y-104709599D02*
X84685771Y-104614361D01*
X84685771Y-104614361D02*
X84685771Y-104376266D01*
X84685771Y-104376266D02*
X84733390Y-104281028D01*
X84733390Y-104281028D02*
X84781009Y-104233409D01*
X84781009Y-104233409D02*
X84876247Y-104185790D01*
X84876247Y-104185790D02*
X85114342Y-104185790D01*
X85114342Y-104185790D02*
X85209580Y-104233409D01*
X85209580Y-104233409D02*
X85257200Y-104281028D01*
X85257200Y-104281028D02*
X85304819Y-104376266D01*
X85304819Y-104376266D02*
X85304819Y-104614361D01*
X85304819Y-104614361D02*
X85257200Y-104709599D01*
X85257200Y-104709599D02*
X85209580Y-104757218D01*
X85304819Y-103233409D02*
X85304819Y-103804837D01*
X85304819Y-103519123D02*
X84304819Y-103519123D01*
X84304819Y-103519123D02*
X84447676Y-103614361D01*
X84447676Y-103614361D02*
X84542914Y-103709599D01*
X84542914Y-103709599D02*
X84590533Y-103804837D01*
X85209580Y-102804837D02*
X85257200Y-102757218D01*
X85257200Y-102757218D02*
X85304819Y-102804837D01*
X85304819Y-102804837D02*
X85257200Y-102852456D01*
X85257200Y-102852456D02*
X85209580Y-102804837D01*
X85209580Y-102804837D02*
X85304819Y-102804837D01*
X84304819Y-102138171D02*
X84304819Y-102042933D01*
X84304819Y-102042933D02*
X84352438Y-101947695D01*
X84352438Y-101947695D02*
X84400057Y-101900076D01*
X84400057Y-101900076D02*
X84495295Y-101852457D01*
X84495295Y-101852457D02*
X84685771Y-101804838D01*
X84685771Y-101804838D02*
X84923866Y-101804838D01*
X84923866Y-101804838D02*
X85114342Y-101852457D01*
X85114342Y-101852457D02*
X85209580Y-101900076D01*
X85209580Y-101900076D02*
X85257200Y-101947695D01*
X85257200Y-101947695D02*
X85304819Y-102042933D01*
X85304819Y-102042933D02*
X85304819Y-102138171D01*
X85304819Y-102138171D02*
X85257200Y-102233409D01*
X85257200Y-102233409D02*
X85209580Y-102281028D01*
X85209580Y-102281028D02*
X85114342Y-102328647D01*
X85114342Y-102328647D02*
X84923866Y-102376266D01*
X84923866Y-102376266D02*
X84685771Y-102376266D01*
X84685771Y-102376266D02*
X84495295Y-102328647D01*
X84495295Y-102328647D02*
X84400057Y-102281028D01*
X84400057Y-102281028D02*
X84352438Y-102233409D01*
X84352438Y-102233409D02*
X84304819Y-102138171D01*
X84304819Y-101185790D02*
X84304819Y-101090552D01*
X84304819Y-101090552D02*
X84352438Y-100995314D01*
X84352438Y-100995314D02*
X84400057Y-100947695D01*
X84400057Y-100947695D02*
X84495295Y-100900076D01*
X84495295Y-100900076D02*
X84685771Y-100852457D01*
X84685771Y-100852457D02*
X84923866Y-100852457D01*
X84923866Y-100852457D02*
X85114342Y-100900076D01*
X85114342Y-100900076D02*
X85209580Y-100947695D01*
X85209580Y-100947695D02*
X85257200Y-100995314D01*
X85257200Y-100995314D02*
X85304819Y-101090552D01*
X85304819Y-101090552D02*
X85304819Y-101185790D01*
X85304819Y-101185790D02*
X85257200Y-101281028D01*
X85257200Y-101281028D02*
X85209580Y-101328647D01*
X85209580Y-101328647D02*
X85114342Y-101376266D01*
X85114342Y-101376266D02*
X84923866Y-101423885D01*
X84923866Y-101423885D02*
X84685771Y-101423885D01*
X84685771Y-101423885D02*
X84495295Y-101376266D01*
X84495295Y-101376266D02*
X84400057Y-101328647D01*
X84400057Y-101328647D02*
X84352438Y-101281028D01*
X84352438Y-101281028D02*
X84304819Y-101185790D01*
X84304819Y-100233409D02*
X84304819Y-100138171D01*
X84304819Y-100138171D02*
X84352438Y-100042933D01*
X84352438Y-100042933D02*
X84400057Y-99995314D01*
X84400057Y-99995314D02*
X84495295Y-99947695D01*
X84495295Y-99947695D02*
X84685771Y-99900076D01*
X84685771Y-99900076D02*
X84923866Y-99900076D01*
X84923866Y-99900076D02*
X85114342Y-99947695D01*
X85114342Y-99947695D02*
X85209580Y-99995314D01*
X85209580Y-99995314D02*
X85257200Y-100042933D01*
X85257200Y-100042933D02*
X85304819Y-100138171D01*
X85304819Y-100138171D02*
X85304819Y-100233409D01*
X85304819Y-100233409D02*
X85257200Y-100328647D01*
X85257200Y-100328647D02*
X85209580Y-100376266D01*
X85209580Y-100376266D02*
X85114342Y-100423885D01*
X85114342Y-100423885D02*
X84923866Y-100471504D01*
X84923866Y-100471504D02*
X84685771Y-100471504D01*
X84685771Y-100471504D02*
X84495295Y-100423885D01*
X84495295Y-100423885D02*
X84400057Y-100376266D01*
X84400057Y-100376266D02*
X84352438Y-100328647D01*
X84352438Y-100328647D02*
X84304819Y-100233409D01*
X84304819Y-99281028D02*
X84304819Y-99185790D01*
X84304819Y-99185790D02*
X84352438Y-99090552D01*
X84352438Y-99090552D02*
X84400057Y-99042933D01*
X84400057Y-99042933D02*
X84495295Y-98995314D01*
X84495295Y-98995314D02*
X84685771Y-98947695D01*
X84685771Y-98947695D02*
X84923866Y-98947695D01*
X84923866Y-98947695D02*
X85114342Y-98995314D01*
X85114342Y-98995314D02*
X85209580Y-99042933D01*
X85209580Y-99042933D02*
X85257200Y-99090552D01*
X85257200Y-99090552D02*
X85304819Y-99185790D01*
X85304819Y-99185790D02*
X85304819Y-99281028D01*
X85304819Y-99281028D02*
X85257200Y-99376266D01*
X85257200Y-99376266D02*
X85209580Y-99423885D01*
X85209580Y-99423885D02*
X85114342Y-99471504D01*
X85114342Y-99471504D02*
X84923866Y-99519123D01*
X84923866Y-99519123D02*
X84685771Y-99519123D01*
X84685771Y-99519123D02*
X84495295Y-99471504D01*
X84495295Y-99471504D02*
X84400057Y-99423885D01*
X84400057Y-99423885D02*
X84352438Y-99376266D01*
X84352438Y-99376266D02*
X84304819Y-99281028D01*
X85304819Y-97757218D02*
X84638152Y-97757218D01*
X84733390Y-97757218D02*
X84685771Y-97709599D01*
X84685771Y-97709599D02*
X84638152Y-97614361D01*
X84638152Y-97614361D02*
X84638152Y-97471504D01*
X84638152Y-97471504D02*
X84685771Y-97376266D01*
X84685771Y-97376266D02*
X84781009Y-97328647D01*
X84781009Y-97328647D02*
X85304819Y-97328647D01*
X84781009Y-97328647D02*
X84685771Y-97281028D01*
X84685771Y-97281028D02*
X84638152Y-97185790D01*
X84638152Y-97185790D02*
X84638152Y-97042933D01*
X84638152Y-97042933D02*
X84685771Y-96947694D01*
X84685771Y-96947694D02*
X84781009Y-96900075D01*
X84781009Y-96900075D02*
X85304819Y-96900075D01*
X85304819Y-96423885D02*
X84638152Y-96423885D01*
X84733390Y-96423885D02*
X84685771Y-96376266D01*
X84685771Y-96376266D02*
X84638152Y-96281028D01*
X84638152Y-96281028D02*
X84638152Y-96138171D01*
X84638152Y-96138171D02*
X84685771Y-96042933D01*
X84685771Y-96042933D02*
X84781009Y-95995314D01*
X84781009Y-95995314D02*
X85304819Y-95995314D01*
X84781009Y-95995314D02*
X84685771Y-95947695D01*
X84685771Y-95947695D02*
X84638152Y-95852457D01*
X84638152Y-95852457D02*
X84638152Y-95709600D01*
X84638152Y-95709600D02*
X84685771Y-95614361D01*
X84685771Y-95614361D02*
X84781009Y-95566742D01*
X84781009Y-95566742D02*
X85304819Y-95566742D01*
D11*
X81500000Y-74638172D02*
X86586420Y-74638172D01*
X86586420Y-125638172D02*
X81500000Y-125638172D01*
X86000000Y-74638172D02*
X86000000Y-125638172D01*
X86000000Y-74638172D02*
X86000000Y-125638172D01*
X86000000Y-74638172D02*
X86586421Y-75764676D01*
X86000000Y-74638172D02*
X85413579Y-75764676D01*
X86000000Y-125638172D02*
X85413579Y-124511668D01*
X86000000Y-125638172D02*
X86586421Y-124511668D01*
D10*
X119304819Y-108781028D02*
X119304819Y-108971504D01*
X119304819Y-108971504D02*
X119352438Y-109066742D01*
X119352438Y-109066742D02*
X119400057Y-109114361D01*
X119400057Y-109114361D02*
X119542914Y-109209599D01*
X119542914Y-109209599D02*
X119733390Y-109257218D01*
X119733390Y-109257218D02*
X120114342Y-109257218D01*
X120114342Y-109257218D02*
X120209580Y-109209599D01*
X120209580Y-109209599D02*
X120257200Y-109161980D01*
X120257200Y-109161980D02*
X120304819Y-109066742D01*
X120304819Y-109066742D02*
X120304819Y-108876266D01*
X120304819Y-108876266D02*
X120257200Y-108781028D01*
X120257200Y-108781028D02*
X120209580Y-108733409D01*
X120209580Y-108733409D02*
X120114342Y-108685790D01*
X120114342Y-108685790D02*
X119876247Y-108685790D01*
X119876247Y-108685790D02*
X119781009Y-108733409D01*
X119781009Y-108733409D02*
X119733390Y-108781028D01*
X119733390Y-108781028D02*
X119685771Y-108876266D01*
X119685771Y-108876266D02*
X119685771Y-109066742D01*
X119685771Y-109066742D02*
X119733390Y-109161980D01*
X119733390Y-109161980D02*
X119781009Y-109209599D01*
X119781009Y-109209599D02*
X119876247Y-109257218D01*
X119304819Y-108066742D02*
X119304819Y-107971504D01*
X119304819Y-107971504D02*
X119352438Y-107876266D01*
X119352438Y-107876266D02*
X119400057Y-107828647D01*
X119400057Y-107828647D02*
X119495295Y-107781028D01*
X119495295Y-107781028D02*
X119685771Y-107733409D01*
X119685771Y-107733409D02*
X119923866Y-107733409D01*
X119923866Y-107733409D02*
X120114342Y-107781028D01*
X120114342Y-107781028D02*
X120209580Y-107828647D01*
X120209580Y-107828647D02*
X120257200Y-107876266D01*
X120257200Y-107876266D02*
X120304819Y-107971504D01*
X120304819Y-107971504D02*
X120304819Y-108066742D01*
X120304819Y-108066742D02*
X120257200Y-108161980D01*
X120257200Y-108161980D02*
X120209580Y-108209599D01*
X120209580Y-108209599D02*
X120114342Y-108257218D01*
X120114342Y-108257218D02*
X119923866Y-108304837D01*
X119923866Y-108304837D02*
X119685771Y-108304837D01*
X119685771Y-108304837D02*
X119495295Y-108257218D01*
X119495295Y-108257218D02*
X119400057Y-108209599D01*
X119400057Y-108209599D02*
X119352438Y-108161980D01*
X119352438Y-108161980D02*
X119304819Y-108066742D01*
X120209580Y-107304837D02*
X120257200Y-107257218D01*
X120257200Y-107257218D02*
X120304819Y-107304837D01*
X120304819Y-107304837D02*
X120257200Y-107352456D01*
X120257200Y-107352456D02*
X120209580Y-107304837D01*
X120209580Y-107304837D02*
X120304819Y-107304837D01*
X119304819Y-106638171D02*
X119304819Y-106542933D01*
X119304819Y-106542933D02*
X119352438Y-106447695D01*
X119352438Y-106447695D02*
X119400057Y-106400076D01*
X119400057Y-106400076D02*
X119495295Y-106352457D01*
X119495295Y-106352457D02*
X119685771Y-106304838D01*
X119685771Y-106304838D02*
X119923866Y-106304838D01*
X119923866Y-106304838D02*
X120114342Y-106352457D01*
X120114342Y-106352457D02*
X120209580Y-106400076D01*
X120209580Y-106400076D02*
X120257200Y-106447695D01*
X120257200Y-106447695D02*
X120304819Y-106542933D01*
X120304819Y-106542933D02*
X120304819Y-106638171D01*
X120304819Y-106638171D02*
X120257200Y-106733409D01*
X120257200Y-106733409D02*
X120209580Y-106781028D01*
X120209580Y-106781028D02*
X120114342Y-106828647D01*
X120114342Y-106828647D02*
X119923866Y-106876266D01*
X119923866Y-106876266D02*
X119685771Y-106876266D01*
X119685771Y-106876266D02*
X119495295Y-106828647D01*
X119495295Y-106828647D02*
X119400057Y-106781028D01*
X119400057Y-106781028D02*
X119352438Y-106733409D01*
X119352438Y-106733409D02*
X119304819Y-106638171D01*
X119304819Y-105685790D02*
X119304819Y-105590552D01*
X119304819Y-105590552D02*
X119352438Y-105495314D01*
X119352438Y-105495314D02*
X119400057Y-105447695D01*
X119400057Y-105447695D02*
X119495295Y-105400076D01*
X119495295Y-105400076D02*
X119685771Y-105352457D01*
X119685771Y-105352457D02*
X119923866Y-105352457D01*
X119923866Y-105352457D02*
X120114342Y-105400076D01*
X120114342Y-105400076D02*
X120209580Y-105447695D01*
X120209580Y-105447695D02*
X120257200Y-105495314D01*
X120257200Y-105495314D02*
X120304819Y-105590552D01*
X120304819Y-105590552D02*
X120304819Y-105685790D01*
X120304819Y-105685790D02*
X120257200Y-105781028D01*
X120257200Y-105781028D02*
X120209580Y-105828647D01*
X120209580Y-105828647D02*
X120114342Y-105876266D01*
X120114342Y-105876266D02*
X119923866Y-105923885D01*
X119923866Y-105923885D02*
X119685771Y-105923885D01*
X119685771Y-105923885D02*
X119495295Y-105876266D01*
X119495295Y-105876266D02*
X119400057Y-105828647D01*
X119400057Y-105828647D02*
X119352438Y-105781028D01*
X119352438Y-105781028D02*
X119304819Y-105685790D01*
X119304819Y-104733409D02*
X119304819Y-104638171D01*
X119304819Y-104638171D02*
X119352438Y-104542933D01*
X119352438Y-104542933D02*
X119400057Y-104495314D01*
X119400057Y-104495314D02*
X119495295Y-104447695D01*
X119495295Y-104447695D02*
X119685771Y-104400076D01*
X119685771Y-104400076D02*
X119923866Y-104400076D01*
X119923866Y-104400076D02*
X120114342Y-104447695D01*
X120114342Y-104447695D02*
X120209580Y-104495314D01*
X120209580Y-104495314D02*
X120257200Y-104542933D01*
X120257200Y-104542933D02*
X120304819Y-104638171D01*
X120304819Y-104638171D02*
X120304819Y-104733409D01*
X120304819Y-104733409D02*
X120257200Y-104828647D01*
X120257200Y-104828647D02*
X120209580Y-104876266D01*
X120209580Y-104876266D02*
X120114342Y-104923885D01*
X120114342Y-104923885D02*
X119923866Y-104971504D01*
X119923866Y-104971504D02*
X119685771Y-104971504D01*
X119685771Y-104971504D02*
X119495295Y-104923885D01*
X119495295Y-104923885D02*
X119400057Y-104876266D01*
X119400057Y-104876266D02*
X119352438Y-104828647D01*
X119352438Y-104828647D02*
X119304819Y-104733409D01*
X119304819Y-103781028D02*
X119304819Y-103685790D01*
X119304819Y-103685790D02*
X119352438Y-103590552D01*
X119352438Y-103590552D02*
X119400057Y-103542933D01*
X119400057Y-103542933D02*
X119495295Y-103495314D01*
X119495295Y-103495314D02*
X119685771Y-103447695D01*
X119685771Y-103447695D02*
X119923866Y-103447695D01*
X119923866Y-103447695D02*
X120114342Y-103495314D01*
X120114342Y-103495314D02*
X120209580Y-103542933D01*
X120209580Y-103542933D02*
X120257200Y-103590552D01*
X120257200Y-103590552D02*
X120304819Y-103685790D01*
X120304819Y-103685790D02*
X120304819Y-103781028D01*
X120304819Y-103781028D02*
X120257200Y-103876266D01*
X120257200Y-103876266D02*
X120209580Y-103923885D01*
X120209580Y-103923885D02*
X120114342Y-103971504D01*
X120114342Y-103971504D02*
X119923866Y-104019123D01*
X119923866Y-104019123D02*
X119685771Y-104019123D01*
X119685771Y-104019123D02*
X119495295Y-103971504D01*
X119495295Y-103971504D02*
X119400057Y-103923885D01*
X119400057Y-103923885D02*
X119352438Y-103876266D01*
X119352438Y-103876266D02*
X119304819Y-103781028D01*
X120304819Y-102257218D02*
X119638152Y-102257218D01*
X119733390Y-102257218D02*
X119685771Y-102209599D01*
X119685771Y-102209599D02*
X119638152Y-102114361D01*
X119638152Y-102114361D02*
X119638152Y-101971504D01*
X119638152Y-101971504D02*
X119685771Y-101876266D01*
X119685771Y-101876266D02*
X119781009Y-101828647D01*
X119781009Y-101828647D02*
X120304819Y-101828647D01*
X119781009Y-101828647D02*
X119685771Y-101781028D01*
X119685771Y-101781028D02*
X119638152Y-101685790D01*
X119638152Y-101685790D02*
X119638152Y-101542933D01*
X119638152Y-101542933D02*
X119685771Y-101447694D01*
X119685771Y-101447694D02*
X119781009Y-101400075D01*
X119781009Y-101400075D02*
X120304819Y-101400075D01*
X120304819Y-100923885D02*
X119638152Y-100923885D01*
X119733390Y-100923885D02*
X119685771Y-100876266D01*
X119685771Y-100876266D02*
X119638152Y-100781028D01*
X119638152Y-100781028D02*
X119638152Y-100638171D01*
X119638152Y-100638171D02*
X119685771Y-100542933D01*
X119685771Y-100542933D02*
X119781009Y-100495314D01*
X119781009Y-100495314D02*
X120304819Y-100495314D01*
X119781009Y-100495314D02*
X119685771Y-100447695D01*
X119685771Y-100447695D02*
X119638152Y-100352457D01*
X119638152Y-100352457D02*
X119638152Y-100209600D01*
X119638152Y-100209600D02*
X119685771Y-100114361D01*
X119685771Y-100114361D02*
X119781009Y-100066742D01*
X119781009Y-100066742D02*
X120304819Y-100066742D01*
D11*
X96500000Y-134638172D02*
X121586420Y-134638172D01*
X121586420Y-74638172D02*
X96500000Y-74638172D01*
X121000000Y-134638172D02*
X121000000Y-74638172D01*
X121000000Y-134638172D02*
X121000000Y-74638172D01*
X121000000Y-134638172D02*
X120413579Y-133511668D01*
X121000000Y-134638172D02*
X121586421Y-133511668D01*
X121000000Y-74638172D02*
X121586421Y-75764676D01*
X121000000Y-74638172D02*
X120413579Y-75764676D01*
D10*
X123857143Y-138942991D02*
X123666667Y-138942991D01*
X123666667Y-138942991D02*
X123571429Y-138990610D01*
X123571429Y-138990610D02*
X123523810Y-139038229D01*
X123523810Y-139038229D02*
X123428572Y-139181086D01*
X123428572Y-139181086D02*
X123380953Y-139371562D01*
X123380953Y-139371562D02*
X123380953Y-139752514D01*
X123380953Y-139752514D02*
X123428572Y-139847752D01*
X123428572Y-139847752D02*
X123476191Y-139895372D01*
X123476191Y-139895372D02*
X123571429Y-139942991D01*
X123571429Y-139942991D02*
X123761905Y-139942991D01*
X123761905Y-139942991D02*
X123857143Y-139895372D01*
X123857143Y-139895372D02*
X123904762Y-139847752D01*
X123904762Y-139847752D02*
X123952381Y-139752514D01*
X123952381Y-139752514D02*
X123952381Y-139514419D01*
X123952381Y-139514419D02*
X123904762Y-139419181D01*
X123904762Y-139419181D02*
X123857143Y-139371562D01*
X123857143Y-139371562D02*
X123761905Y-139323943D01*
X123761905Y-139323943D02*
X123571429Y-139323943D01*
X123571429Y-139323943D02*
X123476191Y-139371562D01*
X123476191Y-139371562D02*
X123428572Y-139419181D01*
X123428572Y-139419181D02*
X123380953Y-139514419D01*
X124809524Y-139276324D02*
X124809524Y-139942991D01*
X124571429Y-138895372D02*
X124333334Y-139609657D01*
X124333334Y-139609657D02*
X124952381Y-139609657D01*
X125333334Y-139847752D02*
X125380953Y-139895372D01*
X125380953Y-139895372D02*
X125333334Y-139942991D01*
X125333334Y-139942991D02*
X125285715Y-139895372D01*
X125285715Y-139895372D02*
X125333334Y-139847752D01*
X125333334Y-139847752D02*
X125333334Y-139942991D01*
X126000000Y-138942991D02*
X126095238Y-138942991D01*
X126095238Y-138942991D02*
X126190476Y-138990610D01*
X126190476Y-138990610D02*
X126238095Y-139038229D01*
X126238095Y-139038229D02*
X126285714Y-139133467D01*
X126285714Y-139133467D02*
X126333333Y-139323943D01*
X126333333Y-139323943D02*
X126333333Y-139562038D01*
X126333333Y-139562038D02*
X126285714Y-139752514D01*
X126285714Y-139752514D02*
X126238095Y-139847752D01*
X126238095Y-139847752D02*
X126190476Y-139895372D01*
X126190476Y-139895372D02*
X126095238Y-139942991D01*
X126095238Y-139942991D02*
X126000000Y-139942991D01*
X126000000Y-139942991D02*
X125904762Y-139895372D01*
X125904762Y-139895372D02*
X125857143Y-139847752D01*
X125857143Y-139847752D02*
X125809524Y-139752514D01*
X125809524Y-139752514D02*
X125761905Y-139562038D01*
X125761905Y-139562038D02*
X125761905Y-139323943D01*
X125761905Y-139323943D02*
X125809524Y-139133467D01*
X125809524Y-139133467D02*
X125857143Y-139038229D01*
X125857143Y-139038229D02*
X125904762Y-138990610D01*
X125904762Y-138990610D02*
X126000000Y-138942991D01*
X126952381Y-138942991D02*
X127047619Y-138942991D01*
X127047619Y-138942991D02*
X127142857Y-138990610D01*
X127142857Y-138990610D02*
X127190476Y-139038229D01*
X127190476Y-139038229D02*
X127238095Y-139133467D01*
X127238095Y-139133467D02*
X127285714Y-139323943D01*
X127285714Y-139323943D02*
X127285714Y-139562038D01*
X127285714Y-139562038D02*
X127238095Y-139752514D01*
X127238095Y-139752514D02*
X127190476Y-139847752D01*
X127190476Y-139847752D02*
X127142857Y-139895372D01*
X127142857Y-139895372D02*
X127047619Y-139942991D01*
X127047619Y-139942991D02*
X126952381Y-139942991D01*
X126952381Y-139942991D02*
X126857143Y-139895372D01*
X126857143Y-139895372D02*
X126809524Y-139847752D01*
X126809524Y-139847752D02*
X126761905Y-139752514D01*
X126761905Y-139752514D02*
X126714286Y-139562038D01*
X126714286Y-139562038D02*
X126714286Y-139323943D01*
X126714286Y-139323943D02*
X126761905Y-139133467D01*
X126761905Y-139133467D02*
X126809524Y-139038229D01*
X126809524Y-139038229D02*
X126857143Y-138990610D01*
X126857143Y-138990610D02*
X126952381Y-138942991D01*
X127904762Y-138942991D02*
X128000000Y-138942991D01*
X128000000Y-138942991D02*
X128095238Y-138990610D01*
X128095238Y-138990610D02*
X128142857Y-139038229D01*
X128142857Y-139038229D02*
X128190476Y-139133467D01*
X128190476Y-139133467D02*
X128238095Y-139323943D01*
X128238095Y-139323943D02*
X128238095Y-139562038D01*
X128238095Y-139562038D02*
X128190476Y-139752514D01*
X128190476Y-139752514D02*
X128142857Y-139847752D01*
X128142857Y-139847752D02*
X128095238Y-139895372D01*
X128095238Y-139895372D02*
X128000000Y-139942991D01*
X128000000Y-139942991D02*
X127904762Y-139942991D01*
X127904762Y-139942991D02*
X127809524Y-139895372D01*
X127809524Y-139895372D02*
X127761905Y-139847752D01*
X127761905Y-139847752D02*
X127714286Y-139752514D01*
X127714286Y-139752514D02*
X127666667Y-139562038D01*
X127666667Y-139562038D02*
X127666667Y-139323943D01*
X127666667Y-139323943D02*
X127714286Y-139133467D01*
X127714286Y-139133467D02*
X127761905Y-139038229D01*
X127761905Y-139038229D02*
X127809524Y-138990610D01*
X127809524Y-138990610D02*
X127904762Y-138942991D01*
X128857143Y-138942991D02*
X128952381Y-138942991D01*
X128952381Y-138942991D02*
X129047619Y-138990610D01*
X129047619Y-138990610D02*
X129095238Y-139038229D01*
X129095238Y-139038229D02*
X129142857Y-139133467D01*
X129142857Y-139133467D02*
X129190476Y-139323943D01*
X129190476Y-139323943D02*
X129190476Y-139562038D01*
X129190476Y-139562038D02*
X129142857Y-139752514D01*
X129142857Y-139752514D02*
X129095238Y-139847752D01*
X129095238Y-139847752D02*
X129047619Y-139895372D01*
X129047619Y-139895372D02*
X128952381Y-139942991D01*
X128952381Y-139942991D02*
X128857143Y-139942991D01*
X128857143Y-139942991D02*
X128761905Y-139895372D01*
X128761905Y-139895372D02*
X128714286Y-139847752D01*
X128714286Y-139847752D02*
X128666667Y-139752514D01*
X128666667Y-139752514D02*
X128619048Y-139562038D01*
X128619048Y-139562038D02*
X128619048Y-139323943D01*
X128619048Y-139323943D02*
X128666667Y-139133467D01*
X128666667Y-139133467D02*
X128714286Y-139038229D01*
X128714286Y-139038229D02*
X128761905Y-138990610D01*
X128761905Y-138990610D02*
X128857143Y-138942991D01*
X130380953Y-139942991D02*
X130380953Y-139276324D01*
X130380953Y-139371562D02*
X130428572Y-139323943D01*
X130428572Y-139323943D02*
X130523810Y-139276324D01*
X130523810Y-139276324D02*
X130666667Y-139276324D01*
X130666667Y-139276324D02*
X130761905Y-139323943D01*
X130761905Y-139323943D02*
X130809524Y-139419181D01*
X130809524Y-139419181D02*
X130809524Y-139942991D01*
X130809524Y-139419181D02*
X130857143Y-139323943D01*
X130857143Y-139323943D02*
X130952381Y-139276324D01*
X130952381Y-139276324D02*
X131095238Y-139276324D01*
X131095238Y-139276324D02*
X131190477Y-139323943D01*
X131190477Y-139323943D02*
X131238096Y-139419181D01*
X131238096Y-139419181D02*
X131238096Y-139942991D01*
X131714286Y-139942991D02*
X131714286Y-139276324D01*
X131714286Y-139371562D02*
X131761905Y-139323943D01*
X131761905Y-139323943D02*
X131857143Y-139276324D01*
X131857143Y-139276324D02*
X132000000Y-139276324D01*
X132000000Y-139276324D02*
X132095238Y-139323943D01*
X132095238Y-139323943D02*
X132142857Y-139419181D01*
X132142857Y-139419181D02*
X132142857Y-139942991D01*
X132142857Y-139419181D02*
X132190476Y-139323943D01*
X132190476Y-139323943D02*
X132285714Y-139276324D01*
X132285714Y-139276324D02*
X132428571Y-139276324D01*
X132428571Y-139276324D02*
X132523810Y-139323943D01*
X132523810Y-139323943D02*
X132571429Y-139419181D01*
X132571429Y-139419181D02*
X132571429Y-139942991D01*
D11*
X96000000Y-135138172D02*
X96000000Y-141224592D01*
X160000000Y-141224592D02*
X160000000Y-135138172D01*
X96000000Y-140638172D02*
X160000000Y-140638172D01*
X96000000Y-140638172D02*
X160000000Y-140638172D01*
X96000000Y-140638172D02*
X97126504Y-140051751D01*
X96000000Y-140638172D02*
X97126504Y-141224593D01*
X160000000Y-140638172D02*
X158873496Y-141224593D01*
X160000000Y-140638172D02*
X158873496Y-140051751D01*
D10*
X87452381Y-139942991D02*
X87642857Y-139942991D01*
X87642857Y-139942991D02*
X87738095Y-139895372D01*
X87738095Y-139895372D02*
X87785714Y-139847752D01*
X87785714Y-139847752D02*
X87880952Y-139704895D01*
X87880952Y-139704895D02*
X87928571Y-139514419D01*
X87928571Y-139514419D02*
X87928571Y-139133467D01*
X87928571Y-139133467D02*
X87880952Y-139038229D01*
X87880952Y-139038229D02*
X87833333Y-138990610D01*
X87833333Y-138990610D02*
X87738095Y-138942991D01*
X87738095Y-138942991D02*
X87547619Y-138942991D01*
X87547619Y-138942991D02*
X87452381Y-138990610D01*
X87452381Y-138990610D02*
X87404762Y-139038229D01*
X87404762Y-139038229D02*
X87357143Y-139133467D01*
X87357143Y-139133467D02*
X87357143Y-139371562D01*
X87357143Y-139371562D02*
X87404762Y-139466800D01*
X87404762Y-139466800D02*
X87452381Y-139514419D01*
X87452381Y-139514419D02*
X87547619Y-139562038D01*
X87547619Y-139562038D02*
X87738095Y-139562038D01*
X87738095Y-139562038D02*
X87833333Y-139514419D01*
X87833333Y-139514419D02*
X87880952Y-139466800D01*
X87880952Y-139466800D02*
X87928571Y-139371562D01*
X88357143Y-139847752D02*
X88404762Y-139895372D01*
X88404762Y-139895372D02*
X88357143Y-139942991D01*
X88357143Y-139942991D02*
X88309524Y-139895372D01*
X88309524Y-139895372D02*
X88357143Y-139847752D01*
X88357143Y-139847752D02*
X88357143Y-139942991D01*
X89023809Y-138942991D02*
X89119047Y-138942991D01*
X89119047Y-138942991D02*
X89214285Y-138990610D01*
X89214285Y-138990610D02*
X89261904Y-139038229D01*
X89261904Y-139038229D02*
X89309523Y-139133467D01*
X89309523Y-139133467D02*
X89357142Y-139323943D01*
X89357142Y-139323943D02*
X89357142Y-139562038D01*
X89357142Y-139562038D02*
X89309523Y-139752514D01*
X89309523Y-139752514D02*
X89261904Y-139847752D01*
X89261904Y-139847752D02*
X89214285Y-139895372D01*
X89214285Y-139895372D02*
X89119047Y-139942991D01*
X89119047Y-139942991D02*
X89023809Y-139942991D01*
X89023809Y-139942991D02*
X88928571Y-139895372D01*
X88928571Y-139895372D02*
X88880952Y-139847752D01*
X88880952Y-139847752D02*
X88833333Y-139752514D01*
X88833333Y-139752514D02*
X88785714Y-139562038D01*
X88785714Y-139562038D02*
X88785714Y-139323943D01*
X88785714Y-139323943D02*
X88833333Y-139133467D01*
X88833333Y-139133467D02*
X88880952Y-139038229D01*
X88880952Y-139038229D02*
X88928571Y-138990610D01*
X88928571Y-138990610D02*
X89023809Y-138942991D01*
X89976190Y-138942991D02*
X90071428Y-138942991D01*
X90071428Y-138942991D02*
X90166666Y-138990610D01*
X90166666Y-138990610D02*
X90214285Y-139038229D01*
X90214285Y-139038229D02*
X90261904Y-139133467D01*
X90261904Y-139133467D02*
X90309523Y-139323943D01*
X90309523Y-139323943D02*
X90309523Y-139562038D01*
X90309523Y-139562038D02*
X90261904Y-139752514D01*
X90261904Y-139752514D02*
X90214285Y-139847752D01*
X90214285Y-139847752D02*
X90166666Y-139895372D01*
X90166666Y-139895372D02*
X90071428Y-139942991D01*
X90071428Y-139942991D02*
X89976190Y-139942991D01*
X89976190Y-139942991D02*
X89880952Y-139895372D01*
X89880952Y-139895372D02*
X89833333Y-139847752D01*
X89833333Y-139847752D02*
X89785714Y-139752514D01*
X89785714Y-139752514D02*
X89738095Y-139562038D01*
X89738095Y-139562038D02*
X89738095Y-139323943D01*
X89738095Y-139323943D02*
X89785714Y-139133467D01*
X89785714Y-139133467D02*
X89833333Y-139038229D01*
X89833333Y-139038229D02*
X89880952Y-138990610D01*
X89880952Y-138990610D02*
X89976190Y-138942991D01*
X90928571Y-138942991D02*
X91023809Y-138942991D01*
X91023809Y-138942991D02*
X91119047Y-138990610D01*
X91119047Y-138990610D02*
X91166666Y-139038229D01*
X91166666Y-139038229D02*
X91214285Y-139133467D01*
X91214285Y-139133467D02*
X91261904Y-139323943D01*
X91261904Y-139323943D02*
X91261904Y-139562038D01*
X91261904Y-139562038D02*
X91214285Y-139752514D01*
X91214285Y-139752514D02*
X91166666Y-139847752D01*
X91166666Y-139847752D02*
X91119047Y-139895372D01*
X91119047Y-139895372D02*
X91023809Y-139942991D01*
X91023809Y-139942991D02*
X90928571Y-139942991D01*
X90928571Y-139942991D02*
X90833333Y-139895372D01*
X90833333Y-139895372D02*
X90785714Y-139847752D01*
X90785714Y-139847752D02*
X90738095Y-139752514D01*
X90738095Y-139752514D02*
X90690476Y-139562038D01*
X90690476Y-139562038D02*
X90690476Y-139323943D01*
X90690476Y-139323943D02*
X90738095Y-139133467D01*
X90738095Y-139133467D02*
X90785714Y-139038229D01*
X90785714Y-139038229D02*
X90833333Y-138990610D01*
X90833333Y-138990610D02*
X90928571Y-138942991D01*
X91880952Y-138942991D02*
X91976190Y-138942991D01*
X91976190Y-138942991D02*
X92071428Y-138990610D01*
X92071428Y-138990610D02*
X92119047Y-139038229D01*
X92119047Y-139038229D02*
X92166666Y-139133467D01*
X92166666Y-139133467D02*
X92214285Y-139323943D01*
X92214285Y-139323943D02*
X92214285Y-139562038D01*
X92214285Y-139562038D02*
X92166666Y-139752514D01*
X92166666Y-139752514D02*
X92119047Y-139847752D01*
X92119047Y-139847752D02*
X92071428Y-139895372D01*
X92071428Y-139895372D02*
X91976190Y-139942991D01*
X91976190Y-139942991D02*
X91880952Y-139942991D01*
X91880952Y-139942991D02*
X91785714Y-139895372D01*
X91785714Y-139895372D02*
X91738095Y-139847752D01*
X91738095Y-139847752D02*
X91690476Y-139752514D01*
X91690476Y-139752514D02*
X91642857Y-139562038D01*
X91642857Y-139562038D02*
X91642857Y-139323943D01*
X91642857Y-139323943D02*
X91690476Y-139133467D01*
X91690476Y-139133467D02*
X91738095Y-139038229D01*
X91738095Y-139038229D02*
X91785714Y-138990610D01*
X91785714Y-138990610D02*
X91880952Y-138942991D01*
X93404762Y-139942991D02*
X93404762Y-139276324D01*
X93404762Y-139371562D02*
X93452381Y-139323943D01*
X93452381Y-139323943D02*
X93547619Y-139276324D01*
X93547619Y-139276324D02*
X93690476Y-139276324D01*
X93690476Y-139276324D02*
X93785714Y-139323943D01*
X93785714Y-139323943D02*
X93833333Y-139419181D01*
X93833333Y-139419181D02*
X93833333Y-139942991D01*
X93833333Y-139419181D02*
X93880952Y-139323943D01*
X93880952Y-139323943D02*
X93976190Y-139276324D01*
X93976190Y-139276324D02*
X94119047Y-139276324D01*
X94119047Y-139276324D02*
X94214286Y-139323943D01*
X94214286Y-139323943D02*
X94261905Y-139419181D01*
X94261905Y-139419181D02*
X94261905Y-139942991D01*
X94738095Y-139942991D02*
X94738095Y-139276324D01*
X94738095Y-139371562D02*
X94785714Y-139323943D01*
X94785714Y-139323943D02*
X94880952Y-139276324D01*
X94880952Y-139276324D02*
X95023809Y-139276324D01*
X95023809Y-139276324D02*
X95119047Y-139323943D01*
X95119047Y-139323943D02*
X95166666Y-139419181D01*
X95166666Y-139419181D02*
X95166666Y-139942991D01*
X95166666Y-139419181D02*
X95214285Y-139323943D01*
X95214285Y-139323943D02*
X95309523Y-139276324D01*
X95309523Y-139276324D02*
X95452380Y-139276324D01*
X95452380Y-139276324D02*
X95547619Y-139323943D01*
X95547619Y-139323943D02*
X95595238Y-139419181D01*
X95595238Y-139419181D02*
X95595238Y-139942991D01*
D11*
X87000000Y-126138172D02*
X87000000Y-141224592D01*
X96000000Y-141224592D02*
X96000000Y-135138172D01*
X87000000Y-140638172D02*
X96000000Y-140638172D01*
X87000000Y-140638172D02*
X96000000Y-140638172D01*
X87000000Y-140638172D02*
X88126504Y-140051751D01*
X87000000Y-140638172D02*
X88126504Y-141224593D01*
X96000000Y-140638172D02*
X94873496Y-141224593D01*
X96000000Y-140638172D02*
X94873496Y-140051751D01*
M02*
