%TF.GenerationSoftware,KiCad,Pcbnew,8.0.4-8.0.4-0~ubuntu22.04.1*%
%TF.CreationDate,2024-08-25T18:16:45-03:00*%
%TF.ProjectId,Antares-Transmitter,416e7461-7265-4732-9d54-72616e736d69,1.0.2*%
%TF.SameCoordinates,Original*%
%TF.FileFunction,Soldermask,Bot*%
%TF.FilePolarity,Negative*%
%FSLAX46Y46*%
G04 Gerber Fmt 4.6, Leading zero omitted, Abs format (unit mm)*
G04 Created by KiCad (PCBNEW 8.0.4-8.0.4-0~ubuntu22.04.1) date 2024-08-25 18:16:45*
%MOMM*%
%LPD*%
G01*
G04 APERTURE LIST*
G04 Aperture macros list*
%AMRoundRect*
0 Rectangle with rounded corners*
0 $1 Rounding radius*
0 $2 $3 $4 $5 $6 $7 $8 $9 X,Y pos of 4 corners*
0 Add a 4 corners polygon primitive as box body*
4,1,4,$2,$3,$4,$5,$6,$7,$8,$9,$2,$3,0*
0 Add four circle primitives for the rounded corners*
1,1,$1+$1,$2,$3*
1,1,$1+$1,$4,$5*
1,1,$1+$1,$6,$7*
1,1,$1+$1,$8,$9*
0 Add four rect primitives between the rounded corners*
20,1,$1+$1,$2,$3,$4,$5,0*
20,1,$1+$1,$4,$5,$6,$7,0*
20,1,$1+$1,$6,$7,$8,$9,0*
20,1,$1+$1,$8,$9,$2,$3,0*%
G04 Aperture macros list end*
%ADD10RoundRect,0.250000X0.350000X0.625000X-0.350000X0.625000X-0.350000X-0.625000X0.350000X-0.625000X0*%
%ADD11O,1.200000X1.750000*%
%ADD12R,1.700000X1.700000*%
%ADD13O,1.700000X1.700000*%
%ADD14O,2.000000X2.800000*%
%ADD15RoundRect,0.250000X-0.725000X0.600000X-0.725000X-0.600000X0.725000X-0.600000X0.725000X0.600000X0*%
%ADD16O,1.950000X1.700000*%
%ADD17O,2.800000X2.000000*%
%ADD18RoundRect,0.250000X0.600000X0.725000X-0.600000X0.725000X-0.600000X-0.725000X0.600000X-0.725000X0*%
%ADD19O,1.700000X1.950000*%
%ADD20RoundRect,0.250000X-0.600000X-0.725000X0.600000X-0.725000X0.600000X0.725000X-0.600000X0.725000X0*%
%ADD21C,1.700000*%
%ADD22C,4.000000*%
%ADD23C,2.200000*%
G04 APERTURE END LIST*
D10*
%TO.C,J602*%
X150800000Y-144400000D03*
D11*
X148800000Y-144400000D03*
X146800000Y-144400000D03*
X144800000Y-144400000D03*
X142800000Y-144400000D03*
X140800000Y-144400000D03*
%TD*%
D12*
%TO.C,J1001*%
X150925000Y-110630000D03*
D13*
X150925000Y-113170000D03*
X150925000Y-115710000D03*
X150925000Y-118250000D03*
X150925000Y-120790000D03*
X150925000Y-123330000D03*
X150925000Y-125870000D03*
%TD*%
D14*
%TO.C,J401*%
X175000000Y-121500000D03*
D15*
X168500000Y-109000000D03*
D16*
X168500000Y-111500000D03*
X168500000Y-114000000D03*
X168500000Y-116500000D03*
X168500000Y-119000000D03*
X168500000Y-121500000D03*
X168500000Y-124000000D03*
X168500000Y-126500000D03*
X168500000Y-129000001D03*
X168500000Y-131500001D03*
X168500000Y-134000001D03*
%TD*%
D17*
%TO.C,J601*%
X109500000Y-146500000D03*
D18*
X114500000Y-140000000D03*
D19*
X112000000Y-140000000D03*
X109500000Y-140000000D03*
X107000000Y-140000000D03*
X104500000Y-140000000D03*
%TD*%
D17*
%TO.C,J501*%
X146750000Y-90400000D03*
D20*
X144250000Y-96900000D03*
D19*
X146750000Y-96900000D03*
X149250000Y-96900000D03*
%TD*%
D21*
%TO.C,SW702*%
X132330000Y-132500000D03*
D22*
X127250000Y-132500000D03*
D21*
X122170000Y-132500000D03*
D23*
X124710000Y-127420000D03*
X131060000Y-129960000D03*
%TD*%
D21*
%TO.C,SW701*%
X132330000Y-107500000D03*
D22*
X127250000Y-107500000D03*
D21*
X122170000Y-107500000D03*
D23*
X124710000Y-102420000D03*
X131060000Y-104960000D03*
%TD*%
D17*
%TO.C,J901*%
X162400000Y-150300000D03*
D18*
X167400000Y-143800000D03*
D19*
X164900000Y-143800000D03*
X162400000Y-143800000D03*
X159900000Y-143800000D03*
X157400000Y-143800000D03*
%TD*%
D17*
%TO.C,J1101*%
X106400000Y-90399999D03*
D20*
X105150000Y-96900000D03*
D19*
X107650000Y-96900000D03*
%TD*%
M02*
