%TF.GenerationSoftware,KiCad,Pcbnew,8.0.4-8.0.4-0~ubuntu22.04.1*%
%TF.CreationDate,2024-08-25T18:16:45-03:00*%
%TF.ProjectId,Antares-Transmitter,416e7461-7265-4732-9d54-72616e736d69,1.0.2*%
%TF.SameCoordinates,Original*%
%TF.FileFunction,Profile,NP*%
%FSLAX46Y46*%
G04 Gerber Fmt 4.6, Leading zero omitted, Abs format (unit mm)*
G04 Created by KiCad (PCBNEW 8.0.4-8.0.4-0~ubuntu22.04.1) date 2024-08-25 18:16:45*
%MOMM*%
%LPD*%
G01*
G04 APERTURE LIST*
%TA.AperFunction,Profile*%
%ADD10C,0.050000*%
%TD*%
G04 APERTURE END LIST*
D10*
X81000000Y-125000000D02*
X81000000Y-103000000D01*
X123250000Y-150750000D02*
X123250000Y-147000000D01*
X175000000Y-99000000D02*
X175000000Y-150750000D01*
X88000000Y-90000000D02*
X152200000Y-90000000D01*
X175000000Y-150750000D02*
X123250000Y-150750000D01*
X93000000Y-147000000D02*
X93000000Y-125000000D01*
X98300002Y-119000000D02*
G75*
G02*
X94100002Y-119000000I-2100000J0D01*
G01*
X94100002Y-119000000D02*
G75*
G02*
X98300002Y-119000000I2100000J0D01*
G01*
X160300002Y-136000000D02*
G75*
G02*
X158100002Y-136000000I-1100000J0D01*
G01*
X158100002Y-136000000D02*
G75*
G02*
X160300002Y-136000000I1100000J0D01*
G01*
X141300002Y-119000000D02*
G75*
G02*
X137100002Y-119000000I-2100000J0D01*
G01*
X137100002Y-119000000D02*
G75*
G02*
X141300002Y-119000000I2100000J0D01*
G01*
X129300002Y-145000000D02*
G75*
G02*
X125100002Y-145000000I-2100000J0D01*
G01*
X125100002Y-145000000D02*
G75*
G02*
X129300002Y-145000000I2100000J0D01*
G01*
X118300002Y-119000000D02*
G75*
G02*
X114100002Y-119000000I-2100000J0D01*
G01*
X114100002Y-119000000D02*
G75*
G02*
X118300002Y-119000000I2100000J0D01*
G01*
X123250000Y-147000000D02*
X93000000Y-147000000D01*
X93000000Y-125000000D02*
X81000000Y-125000000D01*
X129300002Y-95000000D02*
G75*
G02*
X125100002Y-95000000I-2100000J0D01*
G01*
X125100002Y-95000000D02*
G75*
G02*
X129300002Y-95000000I2100000J0D01*
G01*
X152200002Y-90000000D02*
X161200002Y-99000000D01*
X97300002Y-136000000D02*
G75*
G02*
X95100002Y-136000000I-1100000J0D01*
G01*
X95100002Y-136000000D02*
G75*
G02*
X97300002Y-136000000I1100000J0D01*
G01*
X88000000Y-103000000D02*
X88000000Y-90000000D01*
X81000000Y-103000000D02*
X88000000Y-103000000D01*
X97300002Y-104000000D02*
G75*
G02*
X95100002Y-104000000I-1100000J0D01*
G01*
X95100002Y-104000000D02*
G75*
G02*
X97300002Y-104000000I1100000J0D01*
G01*
X160300002Y-104000000D02*
G75*
G02*
X158100002Y-104000000I-1100000J0D01*
G01*
X158100002Y-104000000D02*
G75*
G02*
X160300002Y-104000000I1100000J0D01*
G01*
X161300002Y-119000000D02*
G75*
G02*
X157100002Y-119000000I-2100000J0D01*
G01*
X157100002Y-119000000D02*
G75*
G02*
X161300002Y-119000000I2100000J0D01*
G01*
X161200002Y-99000000D02*
X175000000Y-99000000D01*
M02*
