%TF.GenerationSoftware,KiCad,Pcbnew,8.0.4-8.0.4-0~ubuntu22.04.1*%
%TF.CreationDate,2024-08-26T11:26:39-03:00*%
%TF.ProjectId,Antares-Transmitter,416e7461-7265-4732-9d54-72616e736d69,1.0.2*%
%TF.SameCoordinates,Original*%
%TF.FileFunction,Paste,Top*%
%TF.FilePolarity,Positive*%
%FSLAX46Y46*%
G04 Gerber Fmt 4.6, Leading zero omitted, Abs format (unit mm)*
G04 Created by KiCad (PCBNEW 8.0.4-8.0.4-0~ubuntu22.04.1) date 2024-08-26 11:26:39*
%MOMM*%
%LPD*%
G01*
G04 APERTURE LIST*
G04 Aperture macros list*
%AMRoundRect*
0 Rectangle with rounded corners*
0 $1 Rounding radius*
0 $2 $3 $4 $5 $6 $7 $8 $9 X,Y pos of 4 corners*
0 Add a 4 corners polygon primitive as box body*
4,1,4,$2,$3,$4,$5,$6,$7,$8,$9,$2,$3,0*
0 Add four circle primitives for the rounded corners*
1,1,$1+$1,$2,$3*
1,1,$1+$1,$4,$5*
1,1,$1+$1,$6,$7*
1,1,$1+$1,$8,$9*
0 Add four rect primitives between the rounded corners*
20,1,$1+$1,$2,$3,$4,$5,0*
20,1,$1+$1,$4,$5,$6,$7,0*
20,1,$1+$1,$6,$7,$8,$9,0*
20,1,$1+$1,$8,$9,$2,$3,0*%
%AMRotRect*
0 Rectangle, with rotation*
0 The origin of the aperture is its center*
0 $1 length*
0 $2 width*
0 $3 Rotation angle, in degrees counterclockwise*
0 Add horizontal line*
21,1,$1,$2,0,0,$3*%
G04 Aperture macros list end*
%ADD10RoundRect,0.225000X0.250000X-0.225000X0.250000X0.225000X-0.250000X0.225000X-0.250000X-0.225000X0*%
%ADD11RoundRect,0.200000X0.335876X0.053033X0.053033X0.335876X-0.335876X-0.053033X-0.053033X-0.335876X0*%
%ADD12RoundRect,0.200000X-0.275000X0.200000X-0.275000X-0.200000X0.275000X-0.200000X0.275000X0.200000X0*%
%ADD13RoundRect,0.225000X-0.017678X0.335876X-0.335876X0.017678X0.017678X-0.335876X0.335876X-0.017678X0*%
%ADD14RoundRect,0.200000X0.200000X0.275000X-0.200000X0.275000X-0.200000X-0.275000X0.200000X-0.275000X0*%
%ADD15RoundRect,0.200000X-0.200000X-0.275000X0.200000X-0.275000X0.200000X0.275000X-0.200000X0.275000X0*%
%ADD16RoundRect,0.250000X0.550000X-1.500000X0.550000X1.500000X-0.550000X1.500000X-0.550000X-1.500000X0*%
%ADD17RoundRect,0.225000X-0.250000X0.225000X-0.250000X-0.225000X0.250000X-0.225000X0.250000X0.225000X0*%
%ADD18RoundRect,0.218750X0.335876X0.026517X0.026517X0.335876X-0.335876X-0.026517X-0.026517X-0.335876X0*%
%ADD19RoundRect,0.100000X-0.637500X-0.100000X0.637500X-0.100000X0.637500X0.100000X-0.637500X0.100000X0*%
%ADD20RoundRect,0.225000X0.225000X0.250000X-0.225000X0.250000X-0.225000X-0.250000X0.225000X-0.250000X0*%
%ADD21RoundRect,0.200000X0.053033X-0.335876X0.335876X-0.053033X-0.053033X0.335876X-0.335876X0.053033X0*%
%ADD22RoundRect,0.200000X-0.335876X-0.053033X-0.053033X-0.335876X0.335876X0.053033X0.053033X0.335876X0*%
%ADD23RoundRect,0.218750X0.218750X0.256250X-0.218750X0.256250X-0.218750X-0.256250X0.218750X-0.256250X0*%
%ADD24RoundRect,0.218750X-0.026517X0.335876X-0.335876X0.026517X0.026517X-0.335876X0.335876X-0.026517X0*%
%ADD25RoundRect,0.218750X-0.256250X0.218750X-0.256250X-0.218750X0.256250X-0.218750X0.256250X0.218750X0*%
%ADD26RoundRect,0.087500X-0.070711X-0.194454X0.194454X0.070711X0.070711X0.194454X-0.194454X-0.070711X0*%
%ADD27RoundRect,0.087500X0.070711X-0.194454X0.194454X-0.070711X-0.070711X0.194454X-0.194454X0.070711X0*%
%ADD28RoundRect,0.125000X-0.353553X-0.530330X0.530330X0.353553X0.353553X0.530330X-0.530330X-0.353553X0*%
%ADD29RoundRect,0.125000X0.353553X-0.530330X0.530330X-0.353553X-0.353553X0.530330X-0.530330X0.353553X0*%
%ADD30RoundRect,0.225000X-0.225000X-0.250000X0.225000X-0.250000X0.225000X0.250000X-0.225000X0.250000X0*%
%ADD31RoundRect,0.225000X-0.335876X-0.017678X-0.017678X-0.335876X0.335876X0.017678X0.017678X0.335876X0*%
%ADD32RoundRect,0.225000X0.017678X-0.335876X0.335876X-0.017678X-0.017678X0.335876X-0.335876X0.017678X0*%
%ADD33RoundRect,0.225000X0.335876X0.017678X0.017678X0.335876X-0.335876X-0.017678X-0.017678X-0.335876X0*%
%ADD34RoundRect,0.218750X0.256250X-0.218750X0.256250X0.218750X-0.256250X0.218750X-0.256250X-0.218750X0*%
%ADD35RotRect,1.400000X1.200000X225.000000*%
%ADD36RoundRect,0.249999X0.000000X0.410123X-0.410123X0.000000X0.000000X-0.410123X0.410123X0.000000X0*%
%ADD37RoundRect,0.062500X0.203293X0.291682X-0.291682X-0.203293X-0.203293X-0.291682X0.291682X0.203293X0*%
%ADD38RoundRect,0.062500X-0.203293X0.291682X-0.291682X0.203293X0.203293X-0.291682X0.291682X-0.203293X0*%
G04 APERTURE END LIST*
D10*
%TO.C,C601*%
X114400000Y-133775000D03*
X114400000Y-132225000D03*
%TD*%
D11*
%TO.C,R801*%
X141883363Y-114133363D03*
X140716637Y-112966637D03*
%TD*%
D12*
%TO.C,R608*%
X142800000Y-139575000D03*
X142800000Y-141225000D03*
%TD*%
D13*
%TO.C,C802*%
X136648008Y-111601992D03*
X135551992Y-112698008D03*
%TD*%
%TO.C,C307*%
X104557533Y-112520642D03*
X103461517Y-113616658D03*
%TD*%
D12*
%TO.C,R609*%
X104600000Y-135575000D03*
X104600000Y-137225000D03*
%TD*%
D14*
%TO.C,R701*%
X129025000Y-102400000D03*
X127375000Y-102400000D03*
%TD*%
D15*
%TO.C,R1003*%
X146350000Y-118480000D03*
X148000000Y-118480000D03*
%TD*%
D16*
%TO.C,C1101*%
X115200000Y-99000000D03*
X115200000Y-93600000D03*
%TD*%
D17*
%TO.C,C501*%
X144200000Y-100025000D03*
X144200000Y-101575000D03*
%TD*%
D18*
%TO.C,L303*%
X108093069Y-118283562D03*
X106979375Y-117169868D03*
%TD*%
D12*
%TO.C,R903*%
X162450000Y-139375000D03*
X162450000Y-141025000D03*
%TD*%
D19*
%TO.C,U402*%
X157937500Y-110125000D03*
X157937500Y-110775000D03*
X157937500Y-111425000D03*
X157937500Y-112075000D03*
X157937500Y-112725000D03*
X157937500Y-113375000D03*
X157937500Y-114025000D03*
X157937500Y-114675000D03*
X163662500Y-114675000D03*
X163662500Y-114025000D03*
X163662500Y-113375000D03*
X163662500Y-112725000D03*
X163662500Y-112075000D03*
X163662500Y-111425000D03*
X163662500Y-110775000D03*
X163662500Y-110125000D03*
%TD*%
%TO.C,U401*%
X157937500Y-123725000D03*
X157937500Y-124375000D03*
X157937500Y-125025000D03*
X157937500Y-125675000D03*
X157937500Y-126325000D03*
X157937500Y-126975000D03*
X157937500Y-127625000D03*
X157937500Y-128275000D03*
X163662500Y-128275000D03*
X163662500Y-127625000D03*
X163662500Y-126975000D03*
X163662500Y-126325000D03*
X163662500Y-125675000D03*
X163662500Y-125025000D03*
X163662500Y-124375000D03*
X163662500Y-123725000D03*
%TD*%
D20*
%TO.C,C311*%
X101350000Y-121200000D03*
X99800000Y-121200000D03*
%TD*%
D12*
%TO.C,R904*%
X159940000Y-139375000D03*
X159940000Y-141025000D03*
%TD*%
D21*
%TO.C,R704*%
X122016637Y-130183363D03*
X123183363Y-129016637D03*
%TD*%
%TO.C,R802*%
X136716637Y-113933363D03*
X137883363Y-112766637D03*
%TD*%
D10*
%TO.C,C602*%
X107000000Y-137175000D03*
X107000000Y-135625000D03*
%TD*%
D12*
%TO.C,R901*%
X167470000Y-139375000D03*
X167470000Y-141025000D03*
%TD*%
D22*
%TO.C,R201*%
X123816637Y-111616637D03*
X124983363Y-112783363D03*
%TD*%
D23*
%TO.C,L306*%
X101387501Y-123000000D03*
X99812499Y-123000000D03*
%TD*%
D24*
%TO.C,L304*%
X103256843Y-115933644D03*
X102143149Y-117047338D03*
%TD*%
D25*
%TO.C,L305*%
X103200000Y-121224998D03*
X103200000Y-122800000D03*
%TD*%
D21*
%TO.C,R703*%
X121816637Y-105183363D03*
X122983363Y-104016637D03*
%TD*%
D26*
%TO.C,U801*%
X137826687Y-110559099D03*
X138180241Y-110912652D03*
X138533794Y-111266206D03*
X138887348Y-111619759D03*
X139240901Y-111973313D03*
D27*
X139912652Y-111619759D03*
X140266206Y-111266206D03*
X140619759Y-110912652D03*
D26*
X140973313Y-110240901D03*
X140619759Y-109887348D03*
X140266206Y-109533794D03*
X139912652Y-109180241D03*
X139559099Y-108826687D03*
D27*
X138887348Y-109180241D03*
X138533794Y-109533794D03*
X138180241Y-109887348D03*
%TD*%
D12*
%TO.C,R606*%
X146800000Y-139575000D03*
X146800000Y-141225000D03*
%TD*%
D28*
%TO.C,U201*%
X122567930Y-119972272D03*
X123133616Y-120537957D03*
X123699301Y-121103643D03*
X124264986Y-121669328D03*
X124830672Y-122235014D03*
X125396357Y-122800699D03*
X125962043Y-123366384D03*
X126527728Y-123932070D03*
D29*
X128472272Y-123932070D03*
X129037957Y-123366384D03*
X129603643Y-122800699D03*
X130169328Y-122235014D03*
X130735014Y-121669328D03*
X131300699Y-121103643D03*
X131866384Y-120537957D03*
X132432070Y-119972272D03*
D28*
X132432070Y-118027728D03*
X131866384Y-117462043D03*
X131300699Y-116896357D03*
X130735014Y-116330672D03*
X130169328Y-115764986D03*
X129603643Y-115199301D03*
X129037957Y-114633616D03*
X128472272Y-114067930D03*
D29*
X126527728Y-114067930D03*
X125962043Y-114633616D03*
X125396357Y-115199301D03*
X124830672Y-115764986D03*
X124264986Y-116330672D03*
X123699301Y-116896357D03*
X123133616Y-117462043D03*
X122567930Y-118027728D03*
%TD*%
D30*
%TO.C,C702*%
X130425000Y-127400000D03*
X131975000Y-127400000D03*
%TD*%
D12*
%TO.C,R604*%
X150800000Y-139575000D03*
X150800000Y-141225000D03*
%TD*%
%TO.C,R603*%
X114400000Y-135575000D03*
X114400000Y-137225000D03*
%TD*%
D13*
%TO.C,C310*%
X104448004Y-117142483D03*
X103351988Y-118238499D03*
%TD*%
D31*
%TO.C,C308*%
X104751988Y-114942483D03*
X105848004Y-116038499D03*
%TD*%
D15*
%TO.C,R1005*%
X146350000Y-123500000D03*
X148000000Y-123500000D03*
%TD*%
D12*
%TO.C,R902*%
X164960000Y-139375000D03*
X164960000Y-141025000D03*
%TD*%
D32*
%TO.C,C305*%
X112087774Y-106238499D03*
X113183790Y-105142483D03*
%TD*%
D15*
%TO.C,R1004*%
X146350000Y-120990000D03*
X148000000Y-120990000D03*
%TD*%
D12*
%TO.C,R602*%
X112000000Y-135575000D03*
X112000000Y-137225000D03*
%TD*%
D31*
%TO.C,C202*%
X121451992Y-124451992D03*
X122548008Y-125548008D03*
%TD*%
D24*
%TO.C,L302*%
X108592629Y-113333644D03*
X107478935Y-114447338D03*
%TD*%
%TO.C,L301*%
X107392629Y-112133644D03*
X106278935Y-113247338D03*
%TD*%
D20*
%TO.C,C313*%
X98175000Y-123000000D03*
X96625000Y-123000000D03*
%TD*%
D33*
%TO.C,C309*%
X106820276Y-119556355D03*
X105724260Y-118460339D03*
%TD*%
D30*
%TO.C,C701*%
X130825000Y-102400000D03*
X132375000Y-102400000D03*
%TD*%
D31*
%TO.C,C304*%
X113887774Y-112342483D03*
X114983790Y-113438499D03*
%TD*%
D34*
%TO.C,L307*%
X96600000Y-126187501D03*
X96600000Y-124612499D03*
%TD*%
D15*
%TO.C,R1002*%
X146350000Y-115970000D03*
X148000000Y-115970000D03*
%TD*%
D31*
%TO.C,C301*%
X108587774Y-103292483D03*
X109683790Y-104388499D03*
%TD*%
D22*
%TO.C,R301*%
X112652420Y-113507128D03*
X113819146Y-114673854D03*
%TD*%
D35*
%TO.C,Y301*%
X107062559Y-104711632D03*
X105506924Y-106267267D03*
X106709005Y-107469348D03*
X108264640Y-105913713D03*
%TD*%
D17*
%TO.C,C312*%
X98200000Y-124625000D03*
X98200000Y-126175000D03*
%TD*%
D32*
%TO.C,C303*%
X113737774Y-106838499D03*
X114833790Y-105742483D03*
%TD*%
D31*
%TO.C,C306*%
X111487774Y-114742483D03*
X112583790Y-115838499D03*
%TD*%
D20*
%TO.C,C401*%
X163575000Y-122200000D03*
X162025000Y-122200000D03*
%TD*%
D12*
%TO.C,R607*%
X144800000Y-139575000D03*
X144800000Y-141225000D03*
%TD*%
%TO.C,R605*%
X148800000Y-139575000D03*
X148800000Y-141225000D03*
%TD*%
D36*
%TO.C,U301*%
X111769665Y-110090491D03*
X110885782Y-109206608D03*
X110885782Y-110974374D03*
X110001899Y-110090491D03*
D37*
X112962908Y-109427578D03*
X112609355Y-109074025D03*
X112255801Y-108720472D03*
X111902248Y-108366918D03*
X111548695Y-108013365D03*
D38*
X110222869Y-108013365D03*
X109869316Y-108366918D03*
X109515763Y-108720472D03*
X109162209Y-109074025D03*
X108808656Y-109427578D03*
D37*
X108808656Y-110753404D03*
X109162209Y-111106957D03*
X109515763Y-111460510D03*
X109869316Y-111814064D03*
X110222869Y-112167617D03*
D38*
X111548695Y-112167617D03*
X111902248Y-111814064D03*
X112255801Y-111460510D03*
X112609355Y-111106957D03*
X112962908Y-110753404D03*
%TD*%
D14*
%TO.C,R702*%
X128825000Y-127400000D03*
X127175000Y-127400000D03*
%TD*%
D33*
%TO.C,C801*%
X138048008Y-107698008D03*
X136951992Y-106601992D03*
%TD*%
D31*
%TO.C,C203*%
X122651992Y-123251992D03*
X123748008Y-124348008D03*
%TD*%
D30*
%TO.C,C1102*%
X115200000Y-102800000D03*
X116750000Y-102800000D03*
%TD*%
D20*
%TO.C,C402*%
X163575000Y-108600000D03*
X162025000Y-108600000D03*
%TD*%
D33*
%TO.C,C302*%
X105183790Y-108888499D03*
X104087774Y-107792483D03*
%TD*%
D15*
%TO.C,R1001*%
X146350000Y-113460000D03*
X148000000Y-113460000D03*
%TD*%
D12*
%TO.C,R601*%
X112000000Y-132175000D03*
X112000000Y-133825000D03*
%TD*%
M02*
